<svg width="1457" height="1418" viewBox="0 0 1457 1418" fill="none" xmlns="http://www.w3.org/2000/svg">
<rect y="1185.29" width="1463.83" height="392.707" fill="#FF3C00"/>
<path d="M3.98438 1177.32V1068.61L623.172 824.453L3.98438 1177.32Z" fill="#34CF12" stroke="#220DFF" stroke-width="9.10625"/>
<path d="M893.945 1267.24C927.699 1267.24 926.795 1222.72 927.699 1204.07L841.068 1197.81C839.713 1207.25 839.713 1226.12 841.068 1238.26C842.94 1255.01 862.084 1267.24 869.541 1267.24H893.945Z" fill="#00003E"/>
<path d="M609.725 1267.24C575.971 1267.24 576.875 1222.72 575.971 1204.07L662.602 1197.81C663.957 1207.25 663.957 1226.12 662.602 1238.26C660.73 1255.01 641.586 1267.24 634.129 1267.24H609.725Z" fill="#00003E"/>
<path d="M1452.45 12.2891V95.3836L764.898 792.758L1452.45 12.2891Z" fill="#34CF12" stroke="#220DFF" stroke-width="9.10625"/>
<path d="M1451.88 603.625L818.496 804.522L1451.88 650.864V603.625Z" fill="#34CF12" stroke="#220DFF" stroke-width="9.10625"/>
<path d="M1452.41 1177.32V1068.61L833.22 824.453L1452.41 1177.32Z" fill="#34CF12" stroke="#220DFF" stroke-width="9.10625"/>
<path d="M4.55273 259.865V318.487L729.601 846.357L4.55273 259.865Z" fill="#34CF12" stroke="#220DFF" stroke-width="9.10625"/>
<path d="M4.55382 838.101L4.55215 782.905L614.13 838.101L4.55382 838.101Z" fill="#34CF12" stroke="#220DFF" stroke-width="9.10625"/>
<path d="M1452.45 852.909L1452.45 793.15L821.839 830.706L1452.45 852.909Z" fill="#34CF12" stroke="#220DFF" stroke-width="9.10625"/>
<path d="M518.121 475.261C527.938 462.866 553.463 436.837 577.024 431.879C606.476 425.681 645.229 458.218 646.779 475.261C648.329 492.304 643.147 447.949 699.482 431.879C755.818 415.809 792.808 447.635 803.339 461.317C813.87 474.999 814.189 475.261 814.189 475.261C814.189 475.261 838.991 431.879 863.793 431.879H882.394C884.977 417.418 892.004 384.778 899.445 369.904C908.745 351.312 942.848 321.874 975.4 324.972C1007.95 328.071 1040.5 343.565 1045.15 349.763C1049.8 355.96 1066.86 368.355 1060.65 403.991C1055.69 432.499 1044.12 450.988 1038.95 456.669C1055.49 461.833 1086.21 477.773 1094.76 492.304C1102.99 506.302 1107.16 520.193 1105.61 538.785C1104.37 553.659 1103.02 560.476 1102.51 562.026C1112.84 559.443 1140.33 556.448 1167.61 565.124C1194.89 573.801 1226.5 613.3 1232.76 630.375C1258.22 699.81 1239.59 759 1200.16 795.979C1155.96 837.441 1098.89 850.207 1080.81 857.954C1128.86 866.734 1210.13 922.344 1220.81 964.46C1233.15 1013.16 1216.25 1075.44 1200.16 1099.65C1185.65 1121.5 1135.37 1140.56 1080.81 1130.64C1026.24 1120.73 987.8 1105.85 975.4 1099.65C988.834 1112.05 989.35 1144.26 973.229 1172.77C957.108 1201.27 945.431 1206.04 930.447 1205.01C913.396 1198.81 876.193 1175.26 863.793 1130.64C851.392 1086.02 851.392 1097.59 852.942 1108.95C855.525 1165.76 815.36 1181.46 769.477 1205.01C712.123 1234.45 636.017 1188.93 584.728 1169.37C569.029 1163.39 560.135 1164.34 555.434 1166.94C551.96 1181.43 547.089 1171.57 555.434 1166.94C555.963 1164.74 556.46 1161.97 556.873 1158.53C560.593 1127.54 565.657 1106.37 567.724 1099.65C557.39 1109.98 531.142 1130.64 508.82 1130.64C486.499 1130.64 453.17 1125.34 435.966 1099.65C418.458 1073.51 421.085 1036.44 435.966 1019.09C448.012 1005.04 460.193 994.784 467.412 989.468C455.633 996.542 429.888 1004.98 394.113 997.397C353.19 988.72 335.726 961.761 332.109 949.366C323.842 927.159 315.988 877.786 350.71 857.954C385.432 838.122 407.547 834.197 414.264 834.714C390.496 829.033 336.759 807.755 311.958 768.091C287.156 728.427 291.29 669.965 296.457 645.691C300.074 626.066 315.988 584.646 350.71 575.97C385.432 567.293 414.781 572.355 425.115 575.97C417.881 563.575 395.408 523.756 404.089 505.164C414.939 481.923 432.865 461.317 460.767 461.317C483.088 461.317 508.303 470.613 518.121 475.261Z" fill="#220DFF"/>
<path d="M518.121 475.261C527.938 462.866 553.463 436.837 577.024 431.879C606.476 425.681 645.229 458.218 646.779 475.261C648.329 492.304 643.147 447.949 699.482 431.879C755.818 415.809 792.808 447.635 803.339 461.317C813.87 474.999 814.189 475.261 814.189 475.261C814.189 475.261 838.991 431.879 863.793 431.879C888.594 431.879 886.527 431.879 882.394 431.879C884.977 417.418 892.004 384.778 899.445 369.904C908.745 351.312 942.848 321.874 975.4 324.972C1007.95 328.071 1040.5 343.565 1045.15 349.763C1049.8 355.96 1066.86 368.355 1060.65 403.991C1055.69 432.499 1044.12 450.988 1038.95 456.669C1055.49 461.833 1086.21 477.773 1094.76 492.304C1102.99 506.302 1107.16 520.193 1105.61 538.785C1104.37 553.659 1103.02 560.476 1102.51 562.026C1112.84 559.443 1140.33 556.448 1167.61 565.124C1194.89 573.801 1226.5 613.3 1232.76 630.375C1258.22 699.81 1239.59 759 1200.16 795.979C1155.96 837.441 1098.89 850.207 1080.81 857.954C1128.86 866.734 1210.13 922.344 1220.81 964.46C1233.15 1013.16 1216.25 1075.44 1200.16 1099.65C1185.65 1121.5 1135.37 1140.56 1080.81 1130.64C1026.24 1120.73 987.8 1105.85 975.4 1099.65C988.834 1112.05 989.35 1144.26 973.229 1172.77C957.108 1201.27 945.431 1206.04 930.447 1205.01C913.396 1198.81 876.193 1175.26 863.793 1130.64C851.392 1086.02 851.392 1097.59 852.942 1108.95C855.525 1165.76 815.36 1181.46 769.477 1205.01C712.123 1234.45 636.017 1188.93 584.728 1169.37C536.914 1151.14 552.223 1197.26 556.873 1158.53C560.593 1127.54 565.657 1106.37 567.724 1099.65C557.39 1109.98 531.142 1130.64 508.82 1130.64C486.499 1130.64 453.17 1125.34 435.966 1099.65C418.458 1073.51 421.085 1036.44 435.966 1019.09C450.846 1001.73 465.934 990.166 471.618 986.551C462.834 993.782 435.035 1006.07 394.113 997.397C353.19 988.72 335.726 961.761 332.109 949.366C323.842 927.159 315.988 877.786 350.71 857.954C385.432 838.122 407.547 834.197 414.264 834.714C390.496 829.033 336.759 807.755 311.958 768.091C287.156 728.427 291.29 669.965 296.457 645.691C300.074 626.066 315.988 584.646 350.71 575.97C385.432 567.293 414.781 572.355 425.115 575.97C417.881 563.575 395.408 523.756 404.089 505.164C414.939 481.923 432.865 461.317 460.767 461.317C483.088 461.317 508.303 470.613 518.121 475.261Z" stroke="#E2E2E2" stroke-width="9.10625"/>
<path d="M1165.91 554.741L913.359 762.347L1309.02 821.262L927.39 861.942L1084.53 986.786L886.701 888.594L927.39 1137.77L827.772 940.495L848.844 1192.12L726.752 962.939L694.302 1151.2L590.654 940.495L342.312 1131.27L547.159 888.594L199.199 922.26L547.159 821.262L234.276 746.917H528.919L325.475 406.05L652.389 728.681V300.844L750.604 685.196L853.027 442.521L810.935 685.196L1181.34 331.704L913.359 685.196L1165.91 554.741Z" fill="#E2E2E2" stroke="#34CF12" stroke-width="9.10625"/>
<rect x="528.162" y="1163.66" width="427.994" height="68.2969" fill="#00003E"/>
<path d="M494.584 1157.97L680.693 926.328H824.116L1001.12 1157.97H953.311L941.359 1181.87H558.328L546.376 1157.97H494.584Z" fill="#34CF12" stroke="#E2E2E2" stroke-width="9.10625"/>
<path d="M548.082 1157.97L582.231 1231.96L518.487 1231.39L486.615 1157.97H548.082Z" fill="#FF3C00" stroke="#E2E2E2" stroke-width="9.10625"/>
<path d="M953.311 1157.4L919.162 1231.96H972.662L1002.83 1157.4H953.311Z" fill="#FF3C00" stroke="#E2E2E2" stroke-width="9.10625"/>
<circle cx="527.025" cy="1181.87" r="23.9039" fill="#220DFF" stroke="#34CF12" stroke-width="9.10625"/>
<circle cx="968.677" cy="1181.87" r="23.9039" fill="#220DFF" stroke="#34CF12" stroke-width="9.10625"/>
<path d="M564.588 1194.39H934.529" stroke="#E2E2E2" stroke-width="9.10625"/>
<path d="M649.959 1016.82L658.949 1000.83L657.172 943.973H851.689V1000.83L870.786 1016.82H649.959Z" fill="#FF3C00"/>
<path d="M658.949 1000.83L649.959 1016.82H870.786L851.689 1000.83M658.949 1000.83L657.172 943.973H851.689V1000.83M658.949 1000.83H851.689" stroke="#E2E2E2" stroke-width="9.10625"/>
<path d="M704.285 800.856L725.822 801.049C729.04 810.969 732.168 819.406 735.208 826.361C738.34 833.317 742.396 841.247 747.376 850.152C752.447 859.336 756.827 867.638 760.514 875.057C761.258 873.67 763.678 869.183 767.773 861.597C771.868 854.012 774.846 848.461 776.707 844.946C778.569 841.43 781.082 836.573 784.247 830.375C787.505 824.084 790.159 818.625 792.208 813.998C794.351 809.28 796.121 805.023 797.52 801.228L819.336 801.283L819.024 981.362L797.208 981.308L797.252 852.778C794.739 857.589 791.017 864.388 786.085 873.176C781.246 881.964 777.291 889.226 774.22 894.962C771.241 900.605 769.519 904.167 769.052 905.648L752.101 905.189C751.825 904.54 750.811 902.592 749.059 899.345C747.4 896.099 744.772 891.09 741.176 884.319C737.673 877.455 734.216 870.73 730.805 864.145C728.778 859.786 727.35 856.864 726.52 855.38L726.205 981.13L704.251 981.075L704.285 800.856Z" fill="#34CF12"/>
<path d="M602.15 1068.05L631.177 1047.56L628.9 974.707H878.184V1047.56L902.657 1068.05H602.15Z" fill="#FF3C00"/>
<path d="M631.177 1047.56L602.15 1068.05H902.657L878.184 1047.56M631.177 1047.56L628.9 974.707H878.184V1047.56M631.177 1047.56H878.184" stroke="#E2E2E2" stroke-width="9.10625"/>
<path d="M569.141 1206.91H932.252" stroke="#E2E2E2" stroke-width="9.10625"/>
<path d="M575.971 1219.44H927.13" stroke="#E2E2E2" stroke-width="9.10625"/>
<path d="M562.881 1231.96H934.53" stroke="#E2E2E2" stroke-width="9.10625"/>
<path d="M671.808 1075.93L649.559 1078.33L625.854 899.953L720.205 887.414C729.161 886.598 736.675 887.235 742.746 889.325L737.705 910.46C735.93 909.761 734.514 909.295 733.455 909.062C732.488 908.817 730.55 908.654 727.643 908.573C724.827 908.48 721.307 908.714 717.083 909.276L707.441 910.557C702.85 911.167 683.762 913.797 650.178 918.447L656.182 963.626C661.692 962.894 668.756 961.908 677.376 960.669C685.983 959.338 693.087 958.301 698.689 957.556C700.342 957.337 702.001 957.163 703.666 957.035C705.331 956.907 706.812 956.804 708.11 956.725C709.408 956.646 710.666 956.619 711.884 956.644C713.09 956.577 714.118 956.58 714.969 956.654C715.899 956.624 716.646 956.618 717.209 956.637C717.864 956.643 718.382 956.668 718.761 956.711L719.33 956.776L721.901 957.135L719.597 977.766C714.1 977.188 707.908 977.357 701.021 978.272C682.84 980.688 668.809 982.693 658.928 984.287C659.709 990.164 661.9 1005.95 665.5 1031.63C669.181 1057.22 671.283 1071.98 671.808 1075.93Z" fill="#220DFF"/>
<path d="M785.558 968.546C779.115 964.167 774.111 958.372 770.548 951.16C767.075 943.963 766.066 935.696 767.521 926.36C769.703 912.356 776.581 902.506 788.156 896.81C799.732 891.113 813.299 889.477 828.859 891.901L830.095 892.094C864.713 897.956 882.398 914.118 883.151 940.579L860.701 941.16C859.541 932.354 856.275 925.939 850.902 921.914C845.543 917.798 837.327 914.877 826.251 913.151C813.254 911.126 803.219 912.657 796.145 917.742C792.428 920.538 790.199 924.316 789.458 929.075C788.645 934.292 789.231 938.649 791.218 942.146C793.219 945.552 796.252 948.65 800.317 951.439C803.707 953.749 811.947 957.423 825.037 962.463C838.127 967.502 847.648 971.986 853.598 975.913C861.131 981.118 867.002 988.267 871.21 997.36C875.524 1006.38 876.811 1016.47 875.071 1027.63C873.674 1036.6 870.916 1044.38 866.797 1050.95C862.679 1057.53 857.577 1062.6 851.492 1066.15C845.499 1069.71 838.8 1072.09 831.396 1073.28C824.006 1074.38 816.147 1074.28 807.817 1072.98L805.209 1072.58C793.536 1070.48 783.731 1067.22 775.796 1062.79C767.874 1058.28 762 1052.96 758.173 1046.83C754.453 1040.62 752.046 1034.11 750.953 1027.28C749.875 1020.36 749.963 1012.88 751.218 1004.82L772.91 1008.2C771.099 1019.83 773.021 1029.45 778.676 1037.08C784.422 1044.73 794.618 1049.69 809.263 1051.97C834.982 1055.98 849.539 1047.09 852.933 1025.31C854.031 1018.26 853.212 1012.09 850.476 1006.79C847.845 1001.41 843.839 997.033 838.458 993.664C833.843 990.788 825.357 986.888 812.999 981.962C800.656 976.945 791.508 972.473 785.558 968.546Z" fill="#220DFF"/>
<path d="M849.157 1062.92C848.967 1057.42 849.546 1045.85 840.051 1037.88C830.099 1029.53 820.7 1027.64 811.594 1027.64C802.487 1027.64 789.49 1031.62 783.706 1037.88C778.973 1043 776.307 1056.09 777.445 1065.2" stroke="#E2E2E2" stroke-width="9.10625"/>
<path d="M593.614 1002.59L589.63 1052.11C588.912 1055.75 589.9 1058.18 593.614 1060.08L619.795 1063.49C712.185 1063.87 889.447 1063.49 896.397 1063.49C903.226 1063.49 909.108 1062.92 910.625 1060.08C907.59 1049.64 895.828 1010.33 893.551 1002.59C891.275 994.854 883.307 991.592 875.339 991.781L607.273 991.781C597.712 991.781 594.942 998.421 593.614 1002.59Z" stroke="#34CF12" stroke-width="9.10625"/>
<rect x="588.492" y="1064.63" width="331.24" height="13.6594" fill="#34CF12"/>
<rect x="486.459" y="1135.2" width="16.0351" height="38.7016" transform="rotate(38.9262 486.459 1135.2)" fill="#00003E"/>
<rect x="1010.7" y="1150.08" width="15.8326" height="31.0983" transform="rotate(22.0337 1010.7 1150.08)" fill="#00003E"/>
<rect x="993.469" y="1140.45" width="16.167" height="38.7016" transform="rotate(-37.3649 993.469 1140.45)" fill="#00003E"/>
</svg>
