<svg width="1457" height="1724" viewBox="0 0 1457 1724" fill="none" xmlns="http://www.w3.org/2000/svg">
<path d="M344.453 942.259C343.66 931.709 341.633 922.327 338.373 914.114C335.112 905.901 330.211 897.831 323.668 889.903C317.009 881.681 308.941 874.188 299.465 867.424C289.696 860.777 278.221 856.674 265.039 855.116C251.565 853.674 237.641 855.806 223.269 861.512C203.91 869.197 187.316 884.273 173.486 906.74C159.246 929.031 151.292 956.465 149.625 989.044C173.183 1011.61 197.846 1026.26 223.613 1033.01C248.971 1039.58 271.329 1039.03 290.688 1031.34C305.06 1025.64 316.655 1017.64 325.472 1007.35C333.996 997.171 339.532 986.315 342.082 974.777C344.339 963.355 345.129 952.516 344.453 942.259ZM58.1115 1025.37C44.9183 1005.82 29.6845 993.537 12.41 988.51C-5.15788 983.601 -20.248 983.649 -32.8605 988.656C-42.8332 992.615 -50.2007 997.577 -54.963 1003.54C-60.0186 1009.62 -62.469 1016.71 -62.3143 1024.8C-62.5693 1032.71 -61.7675 1039.86 -59.9089 1046.25C-58.46 1052.47 -55.9307 1060.12 -52.3211 1069.21C-48.7114 1078.31 -45.244 1085.76 -41.9188 1091.57C-39.0034 1097.2 -34.6818 1102.95 -28.9541 1108.83C-23.6362 1114.53 -17.0521 1117.86 -9.20191 1118.81C-1.64504 1119.89 7.11973 1118.45 17.0924 1114.49C29.7049 1109.48 40.7196 1099.17 50.1366 1083.54C59.2603 1068.04 61.9186 1048.65 58.1115 1025.37ZM-53.942 1219.08C-89.7542 1199.01 -118.839 1160.81 -141.195 1104.49C-163.552 1048.18 -168.526 1000.58 -156.118 961.701C-143.827 922.528 -116.563 894.558 -74.3258 877.79C-51.7407 868.824 -26.1583 867.836 2.42132 874.826C30.8845 881.522 51.95 893.532 65.6177 910.855C66.4093 876.926 76.7483 844.81 96.6347 814.506C116.111 784.025 144.768 761.274 182.606 746.253C233.936 725.876 282.54 728.142 328.419 753.05C374.299 777.958 408.708 819.303 431.646 877.086C454.585 934.869 457.903 988.557 441.599 1038.15C425.296 1087.74 391.48 1122.73 340.15 1143.11C302.312 1158.13 265.912 1161.37 230.949 1152.84C195.576 1144.14 165.966 1127.71 142.119 1103.56C144.054 1125.54 137.02 1148.88 121.016 1173.57C104.895 1197.96 85.5425 1214.64 62.9574 1223.61C20.7202 1240.37 -18.2462 1238.87 -53.942 1219.08Z" fill="#E2E2E2"/>
<path d="M425.821 842.528C430.014 852.241 434.992 860.447 440.755 867.146C446.518 873.844 453.785 879.873 462.558 885.231C471.536 890.828 481.608 895.277 492.772 898.577C504.176 901.672 516.362 901.804 529.33 898.973C542.537 895.937 555.002 889.377 566.725 879.292C582.514 865.709 593.278 846.041 599.016 820.29C605.2 794.573 603.762 766.045 594.703 734.707C565.07 721.069 536.974 715.266 510.415 717.3C484.302 719.366 463.35 727.192 447.561 740.775C435.838 750.86 427.49 762.205 422.515 774.81C417.779 787.21 416.09 799.279 417.446 811.017C419.041 822.55 421.833 833.053 425.821 842.528ZM669.344 670.494C688.196 684.666 706.607 691.307 724.575 690.419C742.784 689.325 757.031 684.353 767.318 675.503C775.452 668.505 780.796 661.41 783.351 654.217C786.144 646.819 786.148 639.323 783.361 631.729C781.02 624.168 777.928 617.67 774.084 612.235C770.686 606.832 765.796 600.423 759.416 593.007C753.036 585.591 747.326 579.679 742.287 575.273C737.692 570.9 731.729 566.871 724.397 563.188C717.51 559.538 710.2 558.541 702.467 560.198C694.974 561.649 687.16 565.874 679.026 572.871C668.739 581.721 661.694 595.066 657.893 612.907C654.331 630.541 658.148 649.737 669.344 670.494ZM712.025 450.817C752.429 458.104 792.389 484.713 831.905 530.646C871.42 576.58 891.66 619.946 892.623 660.746C893.793 701.785 877.153 737.123 842.703 766.76C824.282 782.607 800.423 791.892 771.128 794.615C742.038 797.577 718.206 793.102 699.632 781.189C709.959 813.518 710.671 847.25 701.766 882.385C693.307 917.554 673.646 948.414 642.785 974.963C600.919 1010.98 554.237 1024.7 502.74 1016.14C451.244 1007.57 405.223 979.723 364.678 932.593C324.134 885.464 303.472 835.8 302.693 783.601C301.914 731.403 322.458 687.295 364.324 651.278C395.185 624.729 428.532 609.778 464.364 606.428C500.642 603.11 533.992 608.972 564.415 624.012C555.41 603.867 554.442 579.514 561.51 550.954C568.784 522.633 581.632 500.549 600.053 484.702C634.503 455.065 671.827 443.77 712.025 450.817Z" fill="#E2E2E2"/>
<path d="M1340.6 658.741C1415.21 884.252 1313.11 1120.86 1112.54 1187.23C911.968 1253.59 682.908 1071.33 608.293 845.815C533.678 620.304 641.764 436.939 842.334 370.577C1042.9 304.214 1265.98 433.23 1340.6 658.741Z" fill="#E2E2E2"/>
<circle cx="1290.83" cy="788.154" r="430.094" transform="rotate(-18.3078 1290.83 788.154)" fill="#E2E2E2"/>
<path d="M857.821 832.081C857.821 896.672 840.066 954.946 811.597 996.942C783.111 1038.96 744.236 1064.29 701.877 1064.29C659.517 1064.29 620.642 1038.96 592.156 996.942C563.688 954.946 545.932 896.672 545.932 832.081C545.932 767.49 563.688 709.216 592.156 667.219C620.642 625.197 659.517 599.871 701.877 599.871C744.236 599.871 783.111 625.197 811.597 667.219C840.066 709.216 857.821 767.49 857.821 832.081Z" fill="#220DFF" stroke="#FF3C00" stroke-width="9.10625"/>
<path d="M681.132 597.772C639.068 650.908 628.972 675.06 610.464 721.755C601.104 745.37 610.464 854.138 610.464 900.379C610.464 938.152 564.525 1029.41 603.734 1104.44C642.944 1179.46 677.766 1238.08 773.111 1289.6C864.483 1338.98 1031.81 1389.71 1157.61 1356.36C1283.41 1323.02 1422.04 1252.81 1475.51 1190.29C1508.18 1152.08 1570.26 1059.12 1557.19 992.951C1540.85 910.239 1540.85 878.327 1557.19 740.257C1570.26 629.801 1509.12 658.62 1483.71 631.049C1468.5 614.55 1445.01 566.707 1388.92 519.476C1338.76 477.232 1290.78 443.929 1244.22 443.928C1197.67 443.927 1140.55 443.929 1105.69 443.929L1067.36 443.929C1040.54 443.928 1011.22 443.928 955.387 443.929C889.46 443.929 831.837 473.803 796.667 492.039C757.638 515.485 721.73 546.488 681.132 597.772Z" fill="#220DFF" stroke="#FF3C00" stroke-width="9.10625"/>
<path d="M662.605 832.65C662.605 876.36 713.258 920.867 713.258 936.803C713.258 974.746 626.749 1080.23 635.855 1114.37C647.238 1157.06 695.046 1207.71 738.301 1235.03C781.555 1262.35 917.58 1294.22 1001.81 1303.33C1069.2 1310.61 1205.57 1280.56 1265.32 1264.63C1302.51 1246.42 1381.77 1202.25 1401.35 1171.29C1420.93 1140.33 1433.79 1051.01 1437.77 1010.22C1431.7 988.974 1423.2 933.274 1437.77 880.458C1452.34 827.642 1416.34 750.694 1404.2 715.976C1393.57 698.522 1377.33 654.281 1335.9 639.711C1294.46 625.141 1219.98 633.64 1187.92 639.711C1173.5 645.023 1129.76 656.102 1070.11 657.923C1010.46 659.745 960.265 646.541 942.622 639.711C916.062 637.434 851.56 634.247 806.028 639.711C760.497 645.175 684.232 705.731 651.791 735.327C642.685 757.144 662.605 788.94 662.605 832.65Z" fill="#E2E2E2" stroke="#E2E2E2" stroke-width="9.10625"/>
<rect x="965.957" y="629.467" width="99.0305" height="88.7859" rx="6.82969" fill="#00003E" stroke="#E2E2E2" stroke-width="9.10625"/>
<rect x="1063.85" y="629.467" width="99.0305" height="88.7859" rx="6.82969" fill="#00003E" stroke="#E2E2E2" stroke-width="9.10625"/>
<path d="M904.572 541.101C922.68 542.596 939.371 542.177 951.761 540.219C957.92 539.246 963.276 537.854 967.263 535.975C970.896 534.262 975.049 531.343 975.447 526.515C975.846 521.688 972.228 518.127 968.925 515.842C965.3 513.334 960.245 511.083 954.329 509.113C942.428 505.149 926.032 501.999 907.923 500.504C889.815 499.009 873.124 499.428 860.734 501.386C854.575 502.359 849.219 503.751 845.232 505.63C841.599 507.343 837.446 510.262 837.048 515.09C836.649 519.917 840.267 523.478 843.57 525.763C847.195 528.27 852.25 530.522 858.166 532.492C870.067 536.456 886.463 539.606 904.572 541.101Z" fill="#00003E" stroke="#E2E2E2" stroke-width="9.10625"/>
<path d="M1171.5 537.041C1189.33 533.498 1205.26 528.478 1216.63 523.143C1222.28 520.492 1227.05 517.652 1230.36 514.715C1233.39 512.023 1236.53 508.051 1235.59 503.3C1234.64 498.55 1230.23 496.079 1226.39 494.753C1222.21 493.306 1216.72 492.505 1210.48 492.216C1197.93 491.635 1181.29 493.09 1163.47 496.633C1145.64 500.176 1129.71 505.196 1118.34 510.531C1112.69 513.183 1107.92 516.022 1104.61 518.959C1101.57 521.651 1098.44 525.624 1099.38 530.374C1100.33 535.124 1104.74 537.596 1108.58 538.921C1112.76 540.368 1118.25 541.17 1124.49 541.458C1137.03 542.039 1153.67 540.584 1171.5 537.041Z" fill="#00003E" stroke="#E2E2E2" stroke-width="9.10625"/>
<path d="M1404.06 823.767C1393.41 830.92 1379.36 832.189 1365.75 828.578C1352.14 824.969 1339.54 816.617 1332 805.384C1324.68 794.487 1324.36 783.428 1328.19 772.7C1332.09 761.763 1340.32 751.181 1350.05 742.043C1358.67 733.948 1371.2 731.682 1383.91 734.533C1396.62 737.383 1408.91 745.253 1416.45 756.479C1431.58 778.996 1425.9 809.096 1404.06 823.767Z" fill="#00003E" stroke="#E2E2E2" stroke-width="9.10625"/>
<path d="M1369.91 775.96C1359.26 783.113 1345.22 784.383 1331.6 780.772C1317.99 777.162 1305.39 768.81 1297.85 757.578C1290.53 746.681 1290.21 735.621 1294.04 724.893C1297.94 713.956 1306.18 703.375 1315.91 694.236C1324.53 686.141 1337.05 683.875 1349.77 686.726C1362.48 689.576 1374.77 697.446 1382.31 708.673C1397.43 731.19 1391.75 761.29 1369.91 775.96Z" fill="#00003E" stroke="#E2E2E2" stroke-width="9.10625"/>
<path d="M1318.69 737.257C1308.04 744.41 1293.99 745.679 1280.38 742.068C1266.77 738.459 1254.17 730.107 1246.63 718.875C1239.31 707.977 1238.99 696.918 1242.82 686.19C1246.72 675.253 1254.96 664.671 1264.69 655.533C1273.3 647.438 1285.83 645.172 1298.54 648.023C1311.25 650.873 1323.54 658.743 1331.08 669.969C1346.21 692.487 1340.53 722.587 1318.69 737.257Z" fill="#00003E" stroke="#E2E2E2" stroke-width="9.10625"/>
<rect x="1164.65" y="627.571" width="99.0305" height="88.7859" rx="6.82969" transform="rotate(2.23396 1164.65 627.571)" fill="#00003E" stroke="#E2E2E2" stroke-width="9.10625"/>
<path d="M730.963 766.462C726.653 792.735 704.206 810.376 677.742 806.035C664.789 803.91 656.511 796.57 651.31 786.436C646.009 776.105 643.934 762.857 643.934 749.509C643.934 737.684 650.857 727.003 661.639 719.688C672.419 712.373 686.569 708.803 699.914 710.992C713.028 713.143 721.69 720.259 726.69 730.017C731.776 739.943 733.191 752.88 730.963 766.462Z" fill="#00003E" stroke="#E2E2E2" stroke-width="9.10625"/>
<path d="M752.997 729.668C750.92 742.328 742.23 753.435 730.278 760.886C718.331 768.334 703.616 771.801 690.264 769.611C677.139 767.458 663.842 757.86 656.196 746.45C648.453 734.895 647.629 723.612 655.081 716.344C660.375 711.182 665.076 705.527 669.479 700.212L669.713 699.93C674.087 694.65 678.143 689.753 682.418 685.599C690.951 677.309 699.795 672.494 712.435 674.568C739.202 678.959 757.256 703.704 752.997 729.668Z" fill="#00003E" stroke="#E2E2E2" stroke-width="9.10625"/>
<path d="M798.924 704.551C796.848 717.211 788.157 728.318 776.206 735.769C764.259 743.217 749.544 746.684 736.192 744.494C723.238 742.369 714.96 735.029 709.759 724.895C704.458 714.564 702.383 701.316 702.383 687.968C702.383 676.143 709.306 665.462 720.088 658.147C730.868 650.832 745.018 647.262 758.363 649.451C785.13 653.842 803.184 678.587 798.924 704.551Z" fill="#00003E" stroke="#E2E2E2" stroke-width="9.10625"/>
<rect x="776.821" y="626.796" width="86.6822" height="96.4809" rx="6.82969" transform="rotate(-3.87074 776.821 626.796)" fill="#00003E" stroke="#E2E2E2" stroke-width="9.10625"/>
<rect x="866.928" y="629.467" width="99.0305" height="88.7859" rx="6.82969" fill="#00003E" stroke="#E2E2E2" stroke-width="9.10625"/>
<rect x="967.096" y="1164.46" width="99.0305" height="95.6156" rx="6.82969" fill="#00003E" stroke="#E2E2E2" stroke-width="9.10625"/>
<path d="M1066.13 1171.47C1066.13 1167.93 1068.83 1164.98 1072.36 1164.67L1153.17 1157.56C1157.17 1157.21 1160.6 1160.36 1160.6 1164.37V1245.28C1160.6 1249.05 1157.54 1252.11 1153.77 1252.11H1072.96C1069.18 1252.11 1066.13 1249.05 1066.13 1245.28V1171.47Z" fill="#00003E" stroke="#E2E2E2" stroke-width="9.10625"/>
<path d="M967.095 1169.68C967.095 1166.62 965.057 1163.93 962.108 1163.1L881.29 1140.45C876.935 1139.23 872.618 1142.51 872.618 1147.03V1245.28C872.618 1249.05 875.676 1252.11 879.448 1252.11H960.266C964.038 1252.11 967.095 1249.05 967.095 1245.28V1169.68Z" fill="#00003E" stroke="#E2E2E2" stroke-width="9.10625"/>
<path d="M877.171 1140.01C877.171 1137.14 875.367 1134.57 872.659 1133.59L801.87 1108.05C798.116 1106.7 794.006 1108.84 792.961 1112.69L768.203 1203.92C767.273 1207.35 769.125 1210.92 772.463 1212.13L868.01 1246.84C872.464 1248.45 877.171 1245.15 877.171 1240.42V1140.01Z" fill="#00003E" stroke="#E2E2E2" stroke-width="9.10625"/>
<path d="M1410.72 1048.9C1400.07 1056.05 1386.03 1057.32 1372.41 1053.71C1358.81 1050.1 1346.2 1041.75 1338.66 1030.52C1331.41 1019.72 1331.3 1007.8 1335.33 996.495C1339.4 985.078 1347.64 974.567 1356.47 967.391C1365.85 959.773 1378.57 957.557 1391.11 960.231C1403.64 962.905 1415.59 970.403 1423.12 981.613C1438.24 1004.13 1432.56 1034.23 1410.72 1048.9Z" fill="#00003E" stroke="#E2E2E2" stroke-width="9.10625"/>
<path d="M1406.97 1088.19C1395.86 1095.65 1380.97 1096.72 1366.37 1092.48C1351.79 1088.25 1338.12 1078.89 1329.76 1066.44C1321.68 1054.41 1321.33 1041.37 1325.35 1029.23C1329.42 1016.97 1337.92 1005.81 1347.11 998.282C1356.85 990.293 1370.3 988.169 1383.74 991.364C1397.17 994.558 1410.14 1002.99 1418.48 1015.41C1435.27 1040.41 1429.72 1072.91 1406.97 1088.19Z" fill="#00003E" stroke="#E2E2E2" stroke-width="9.10625"/>
<path d="M1387.62 1132.58C1376.51 1140.04 1361.62 1141.11 1347.02 1136.87C1332.44 1132.64 1318.77 1123.28 1310.41 1110.84C1302.33 1098.81 1301.97 1085.77 1306 1073.62C1310.07 1061.36 1318.57 1050.21 1327.76 1042.67C1337.5 1034.69 1350.95 1032.56 1364.39 1035.76C1377.81 1038.95 1390.78 1047.38 1399.13 1059.8C1415.92 1084.81 1410.36 1117.3 1387.62 1132.58Z" fill="#00003E" stroke="#E2E2E2" stroke-width="9.10625"/>
<path d="M1360.3 1167.87C1349.19 1175.33 1334.3 1176.4 1319.7 1172.16C1305.12 1167.93 1291.45 1158.56 1283.09 1146.12C1275.01 1134.09 1274.66 1121.05 1278.68 1108.91C1282.75 1096.65 1291.25 1085.49 1300.44 1077.96C1310.18 1069.97 1323.63 1067.85 1337.07 1071.04C1350.5 1074.24 1363.47 1082.67 1371.81 1095.09C1388.6 1120.09 1383.05 1152.59 1360.3 1167.87Z" fill="#00003E" stroke="#E2E2E2" stroke-width="9.10625"/>
<path d="M1314.77 1206.57C1303.66 1214.03 1288.77 1215.1 1274.17 1210.86C1259.59 1206.63 1245.92 1197.27 1237.56 1184.82C1229.48 1172.79 1229.12 1159.76 1233.15 1147.61C1237.22 1135.35 1245.72 1124.2 1254.91 1116.66C1264.65 1108.67 1278.1 1106.55 1291.54 1109.75C1304.96 1112.94 1317.93 1121.37 1326.28 1133.79C1343.07 1158.8 1337.51 1191.29 1314.77 1206.57Z" fill="#00003E" stroke="#E2E2E2" stroke-width="9.10625"/>
<path d="M1158.33 1155.95C1158.33 1153.07 1160.13 1150.5 1162.84 1149.52L1233.63 1123.99C1237.38 1122.63 1241.49 1124.77 1242.54 1128.62L1267.29 1219.86C1268.22 1223.29 1266.37 1226.86 1263.04 1228.07L1167.49 1262.77C1163.03 1264.39 1158.33 1261.09 1158.33 1256.35V1155.95Z" fill="#00003E" stroke="#E2E2E2" stroke-width="9.10625"/>
<path d="M780.544 1019.22C768.88 1027.06 753.247 1028.14 737.919 1023.66C722.614 1019.18 708.238 1009.31 699.433 996.196C690.904 983.498 690.51 969.756 694.711 956.994C698.951 944.112 707.847 932.413 717.462 924.522C727.69 916.128 741.821 913.926 755.934 917.317C770.037 920.704 783.676 929.599 792.468 942.69C810.161 969.032 804.391 1003.2 780.544 1019.22Z" fill="#00003E" stroke="#E2E2E2" stroke-width="9.10625"/>
<path d="M749.809 1054.51C738.145 1062.34 722.512 1063.43 707.185 1058.94C691.88 1054.47 677.504 1044.59 668.698 1031.48C660.169 1018.78 659.776 1005.04 663.977 992.281C668.217 979.399 677.112 967.7 686.727 959.809C696.955 951.415 711.086 949.213 725.2 952.604C739.303 955.991 752.941 964.886 761.734 977.977C779.427 1004.32 773.657 1038.49 749.809 1054.51Z" fill="#00003E" stroke="#E2E2E2" stroke-width="9.10625"/>
<path d="M730.215 1107.51C718.551 1115.35 702.919 1116.43 687.591 1111.95C672.286 1107.47 657.91 1097.6 649.105 1084.49C640.576 1071.79 640.182 1058.05 644.383 1045.29C648.623 1032.4 657.519 1020.71 667.133 1012.81C677.362 1004.42 691.493 1002.22 705.606 1005.61C719.709 1009 733.347 1017.89 742.14 1030.98C759.833 1057.33 754.063 1091.5 730.215 1107.51Z" fill="#00003E" stroke="#E2E2E2" stroke-width="9.10625"/>
<path d="M797.003 1107.41C797.848 1104.66 796.876 1101.67 794.574 1099.94L736.596 1056.42C732.965 1053.7 727.734 1055.21 726.115 1059.45L692.853 1146.6C691.811 1149.33 692.622 1152.42 694.869 1154.29L756.907 1205.84C760.658 1208.95 766.371 1207.25 767.801 1202.59L797.003 1107.41Z" fill="#00003E" stroke="#E2E2E2" stroke-width="9.10625"/>
<path d="M752.287 658.569C716.226 677.016 700.17 719.948 680.25 748.417C673.61 747.003 636.881 743.121 638.702 737.604C640.979 730.707 677.732 672.154 696.514 653.587C711.539 638.733 755.894 612.032 776.193 600.538C795.544 591.873 822.178 586.907 855.871 583.936C897.987 580.223 920.184 593.11 946.933 600.537C973.683 607.964 1003.28 613.426 1038 600.537C1072.71 587.649 1142.82 577.459 1166.05 574.906C1217.84 569.214 1251.67 580.223 1292.65 596.824C1329.64 611.812 1379.91 657.21 1398.51 681.259C1417.1 705.308 1439.37 766.324 1441.19 787.119C1443.47 813.113 1452.33 883.304 1452.33 903.981C1452.33 917.64 1453.71 970.382 1452.33 987.799C1451.4 999.447 1444.04 1056.44 1441.19 1073.74C1438.35 1091.04 1417.32 1158.77 1391.68 1190.64C1366.03 1222.51 1349.77 1233.21 1283.3 1272.68C1216.82 1312.14 1131.52 1334.39 1099.46 1335.28C1067.4 1336.16 986.774 1336.97 913.924 1320.42C822.862 1299.73 723.911 1235.04 687.977 1199.47C623.664 1135.81 627.857 1106.96 623.905 1080.23C614.229 1014.78 691.581 955.797 696.514 924.851C696.514 906.814 648.736 834.458 644.394 820.129C638.702 801.348 630.924 760.172 636.426 744.434L678.542 754.678C671.144 781.733 686.046 839.073 696.514 862.246C707.569 886.719 737.733 919.387 734.318 924.851C717.244 952.17 650.541 1051.37 663.745 1080.23C680.25 1116.3 694.237 1143.77 711.88 1162.86C729.524 1181.96 818.309 1223.34 865.548 1232.89C903.339 1240.53 1010.3 1246.33 1059.05 1248.27C1101.74 1247.57 1201.11 1241.59 1257.11 1223.34C1313.12 1205.09 1349.55 1170.72 1363.79 1145.68C1382.19 1113.32 1401.92 1065.43 1407.94 1042.66C1413.49 1021.63 1428.48 972.711 1428.1 944.771C1431.14 929.564 1408.18 838.911 1398.51 811.023C1388.68 782.709 1362.65 715.407 1345.58 700.041C1322.87 679.608 1298.43 669.714 1256.55 653.587C1204.18 633.428 1165.73 630.245 1148.08 630.245C1130.44 630.245 1044.26 635.565 1015.23 642.447C985.635 649.463 977.477 646.337 963.438 642.447C944.657 638.379 920.866 630.245 862.131 630.245C788.712 630.245 773.343 647.798 752.287 658.569Z" fill="#34CF12" stroke="#FF3C00" stroke-width="9.10625"/>
<ellipse cx="917.011" cy="526.453" rx="26.1805" ry="18.7816" fill="#E2E2E2"/>
<ellipse cx="1154.22" cy="524.305" rx="26.1805" ry="17.6434" fill="#E2E2E2"/>
<ellipse cx="971.524" cy="562.438" rx="6.26055" ry="5.69141" fill="#E2E2E2"/>
<ellipse cx="1026.16" cy="562.438" rx="6.26055" ry="5.69141" fill="#E2E2E2"/>
<line x1="849.76" y1="470.625" x2="973.861" y2="468.453" stroke="#E2E2E2" stroke-width="9.10625"/>
<line x1="1113.32" y1="469.1" x2="1237.42" y2="471.266" stroke="#E2E2E2" stroke-width="9.10625"/>
<path d="M613.66 810.813C652.293 819.295 680.917 833.563 702.486 851.534C724.054 869.504 738.357 891.001 748.598 913.637C758.817 936.222 765.02 960.014 770.348 982.558C771.23 986.289 772.086 989.98 772.932 993.623C777.233 1012.15 781.25 1029.46 786.841 1044.63C799.946 1080.2 827.953 1104.81 861.136 1121.71C894.336 1138.62 932.365 1147.62 964.749 1152.11C1009.34 1158.29 1033.51 1153.75 1070.43 1146.82C1072.06 1146.51 1073.72 1146.2 1075.41 1145.88C1088.62 1143.41 1101.26 1133.49 1109.14 1119.64C1116.98 1105.86 1119.83 1088.69 1114.06 1072.18C1107.08 1052.18 1094.83 1037.83 1076.44 1028.19C1057.86 1018.46 1032.77 1013.4 1000 1012.67C964.756 1011.9 929.385 988.067 901.578 960.347C873.697 932.554 852.32 899.746 845.412 879.192C840.325 864.055 836.014 848.959 831.744 834.004C813.413 769.8 795.826 708.204 720.702 657.214C657.949 614.621 587.821 611.136 539.335 622.591C444.684 644.952 371.073 639.972 277.133 610.81C257.652 604.763 237.417 591.733 217.65 575.228C197.833 558.683 178.216 538.415 159.978 517.571C130.047 483.362 103.597 447.321 85.9438 423.267C84.2373 420.942 82.613 418.729 81.0758 416.64C68.2227 459.971 48.8325 546.099 89.7624 631.029C133.692 722.184 225.907 786.941 327.956 800.719C404.724 811.083 445.974 807.308 482.495 803.966L483.702 803.855C520.903 800.452 553.718 797.651 613.66 810.813Z" fill="#FF3C00" stroke="#220DFF" stroke-width="9.10625"/>
<path d="M229.451 609.154L241.779 620.446L228.711 630.184L216.383 618.891L229.451 609.154ZM218.772 636.612L175.693 668.16C174.749 668.839 173.829 669.668 172.932 670.647C169.472 674.424 169.701 678.107 173.618 681.695C179.039 686.66 184.978 689.656 191.434 690.682L189.799 700.472C185.714 699.946 181.489 698.52 177.124 696.194C172.826 693.865 168.928 691.099 165.43 687.895C163.017 685.685 161.24 683.446 160.1 681.18C159.027 678.911 158.563 676.749 158.708 674.695C158.888 672.673 159.377 670.805 160.174 669.092C160.972 667.378 162.076 665.752 163.485 664.213C164.735 662.849 165.994 661.72 167.264 660.825L198.542 638.053C196.721 637.864 194.011 637.312 190.413 636.395C186.881 635.476 183.968 634.479 181.671 633.405L185.548 623.064C190.732 624.917 195.069 626.221 198.56 626.974C202.051 627.728 204.332 628.081 205.404 628.034C206.543 627.984 207.677 627.8 208.804 627.482L218.772 636.612Z" fill="#34CF12"/>
<path d="M309.641 731.992L308.511 734.65C307.522 736.806 306.797 738.877 306.334 740.864C304.259 749.779 308.026 755.355 317.634 757.591C325.903 759.516 332.711 757.57 338.058 751.754L344.942 760.149C343.642 761.551 342.098 762.847 340.311 764.038C338.571 765.24 336.414 766.345 333.842 767.353C331.27 768.362 328.191 768.935 324.603 769.074C321.016 769.213 317.213 768.815 313.194 767.88C306.173 766.246 300.914 763.001 297.418 758.145C293.922 753.29 293.024 747.213 294.722 739.914C295.271 737.558 296.155 735.013 297.376 732.278L298.624 729.427C299.627 727.421 301.374 723.786 303.865 718.522C306.367 713.212 308.731 708.284 310.958 703.738L305.484 702.464C303.544 702.012 301.545 701.815 299.486 701.871L300.525 691.448C302.27 691.27 305.384 691.703 309.864 692.746L315.408 694.036C316.107 692.494 317.267 689.916 318.888 686.3C320.509 682.684 321.669 680.105 322.369 678.564L333.301 681.181C331.191 685.852 328.903 690.871 326.436 696.238L334.89 698.205L355.64 702.889L356.887 703.179L352.507 712.897L330.611 707.801C329.549 707.553 328.152 707.277 326.421 706.972C324.701 706.62 323.31 706.321 322.248 706.073C319.596 711.397 316.852 717.016 314.015 722.929C311.188 728.797 309.73 731.818 309.641 731.992Z" fill="#34CF12"/>
<path d="M452.448 734.362C451.596 738.849 451.304 742.867 451.57 746.414C451.904 750.859 453.019 754.295 454.913 756.721C456.808 759.147 459.174 760.254 462.012 760.04C465.086 759.809 467.96 758.809 470.633 757.038C473.349 755.217 475.639 753.095 477.502 750.672C479.366 748.249 481.1 745.383 482.707 742.076C484.36 738.765 485.635 735.792 486.531 733.156C487.427 730.52 488.266 727.77 489.05 724.905L491.197 710.76C489.406 709.706 487.917 708.89 486.733 708.313C485.544 707.689 483.786 707.084 481.459 706.498C479.18 705.908 476.905 705.699 474.635 705.87C468.108 706.36 463.247 708.771 460.053 713.101C456.907 717.428 454.371 724.515 452.448 734.362ZM503.975 695.674L498.907 742.143C498.323 747.038 498.103 750.431 498.245 752.323C498.373 754.026 498.734 755.354 499.329 756.308C499.968 757.211 501.046 758.272 502.565 759.489L495.679 768.497C495.479 768.369 494.953 768.004 494.099 767.403C493.241 766.754 492.66 766.298 492.355 766.036C492.046 765.726 491.555 765.192 490.879 764.434C490.2 763.629 489.691 762.859 489.35 762.124C489.053 761.337 488.738 760.315 488.406 759.055C488.07 757.749 487.843 756.315 487.726 754.755C487.669 753.998 487.648 753.405 487.664 752.976C486.569 754.865 485.326 756.671 483.933 758.393C482.537 760.067 480.748 761.89 478.565 763.862C476.379 765.786 473.741 767.387 470.65 768.666C467.607 769.941 464.312 770.712 460.765 770.978C455.326 771.387 450.777 769.398 447.118 765.012C443.455 760.579 441.35 754.72 440.803 747.437C440.522 743.701 440.685 739.86 441.292 735.914C443.378 722.535 446.964 712.658 452.05 706.283C457.183 699.904 464.928 696.326 475.286 695.547C478.029 695.341 480.582 695.458 482.946 695.899C485.353 696.289 487.148 696.748 488.329 697.278C489.51 697.807 490.897 698.536 492.488 699.462C492.665 698.022 492.786 696.467 492.851 694.798L503.975 695.674Z" fill="#34CF12"/>
<path d="M643.333 669.701L608.477 737.648C607.42 739.709 606.642 741.581 606.143 743.263C604.875 747.537 605.059 750.833 606.697 753.149C608.394 755.434 611.243 757.17 615.244 758.357C622.292 760.448 628.943 760.542 635.197 758.638L638.013 768.156C634.11 769.471 629.687 770.039 624.744 769.858C619.859 769.646 615.144 768.865 610.597 767.516C603.549 765.424 598.708 761.984 596.072 757.195C593.496 752.373 593.125 746.871 594.96 740.687C595.54 738.732 596.359 736.724 597.415 734.663L632.547 665.536L643.333 669.701Z" fill="#34CF12"/>
<path d="M783.483 765.673L793.97 778.693L779.585 786.352L769.098 773.332L783.483 765.673ZM768.791 791.21L721.453 815.911C720.418 816.441 719.383 817.122 718.349 817.955C714.36 821.168 714.031 824.843 717.364 828.98C721.975 834.705 727.395 838.561 733.624 840.548L730.533 849.98C726.574 848.845 722.612 846.799 718.647 843.842C714.748 840.892 711.311 837.57 708.336 833.877C706.283 831.328 704.864 828.848 704.078 826.436C703.359 824.031 703.226 821.824 703.678 819.815C704.16 817.843 704.925 816.07 705.971 814.496C707.018 812.923 708.354 811.481 709.979 810.172C711.419 809.012 712.835 808.085 714.225 807.391L748.575 789.589C746.803 789.128 744.208 788.174 740.788 786.726C737.435 785.285 734.705 783.861 732.597 782.453L737.986 772.813C742.832 775.427 746.923 777.369 750.261 778.639C753.598 779.909 755.801 780.602 756.868 780.717C758.001 780.839 759.149 780.828 760.312 780.683L768.791 791.21Z" fill="#34CF12"/>
<path d="M797.199 918.651C787.725 924.875 786.361 933.12 793.106 943.387L793.614 944.16C796.4 948.401 799.603 951.376 803.222 953.084C806.881 954.766 811.064 955.82 815.77 956.247L813.702 967.48C813.57 967.453 812.992 967.35 811.967 967.172C810.942 966.994 810.089 966.817 809.406 966.642C808.749 966.506 807.751 966.282 806.411 965.971C805.111 965.633 803.923 965.25 802.847 964.822C801.811 964.368 800.559 963.8 799.09 963.119C797.647 962.478 796.284 961.699 795.001 960.783C793.784 959.88 792.469 958.872 791.056 957.757C789.682 956.617 788.336 955.259 787.018 953.685C785.687 952.177 784.435 950.53 783.263 948.747C778.575 941.612 776.683 934.456 777.587 927.28C778.516 920.143 781.974 914.608 787.959 910.676C791.328 908.462 795.678 906.229 801.007 903.976C811.758 899.523 821.379 898.792 829.87 901.783C838.387 904.813 845.732 911.026 851.904 920.42C855.211 925.454 856.599 930.245 856.069 934.793C855.578 939.315 853.557 943.452 850.007 947.203L840.761 939.998C841.715 939.031 842.471 938.109 843.029 937.231C843.627 936.327 844.043 935.232 844.275 933.944C844.573 932.67 844.464 931.209 843.949 929.562C843.474 927.888 842.585 926.06 841.283 924.078C837.09 917.696 832.073 913.643 826.23 911.92C820.454 910.211 813.971 910.838 806.782 913.802C802.653 915.55 799.458 917.166 797.199 918.651Z" fill="#34CF12"/>
<circle cx="1297.52" cy="706.947" r="9.67539" fill="#FF3C00"/>
<circle cx="1015.23" cy="1204.38" r="9.67539" fill="#34CF12"/>
<circle cx="1113.12" cy="1204.38" r="9.67539" fill="#FF3C00"/>
<circle cx="828.552" cy="1166.81" r="9.67539" fill="#FF3C00"/>
<circle cx="919.615" cy="1195.27" r="9.67539" fill="#34CF12"/>
<circle cx="1369.24" cy="803.701" r="9.67539" fill="#FF3C00"/>
<path d="M1351.53 760.158C1349.69 760.528 1343.07 760.499 1339.43 760.416C1338.83 756.698 1336.96 747.059 1338.02 744.38C1339.07 741.701 1342.06 740.766 1344.66 741.775C1346.33 742.424 1347.23 743.278 1347.85 745.938C1348.5 748.709 1346.3 751.326 1348.2 749.947C1350.1 748.568 1355.05 749.747 1356.5 752.448C1357.95 755.148 1355.1 759.439 1351.53 760.158Z" fill="#FF3C00" stroke="#FF3C00" stroke-width="1.13828"/>
<path d="M1217.02 1188.45C1215.63 1189.71 1209.94 1193.09 1206.78 1194.89C1204.35 1192.01 1197.79 1184.71 1197.31 1181.87C1196.84 1179.03 1198.92 1176.69 1201.67 1176.22C1203.43 1175.92 1204.64 1176.19 1206.55 1178.15C1208.53 1180.19 1207.99 1183.56 1208.91 1181.4C1209.83 1179.24 1214.68 1177.71 1217.32 1179.28C1219.95 1180.85 1219.71 1185.99 1217.02 1188.45Z" fill="#FF3C00" stroke="#FF3C00" stroke-width="1.13828"/>
<path d="M753.276 1123.98C752.347 1125.61 747.983 1130.58 745.528 1133.27C742.332 1131.28 733.832 1126.37 732.505 1123.81C731.178 1121.26 732.433 1118.39 734.898 1117.09C736.484 1116.26 737.721 1116.14 740.136 1117.42C742.651 1118.75 743.186 1122.12 743.392 1119.78C743.598 1117.45 747.738 1114.48 750.727 1115.16C753.716 1115.84 755.079 1120.81 753.276 1123.98Z" fill="#FF3C00" stroke="#FF3C00" stroke-width="1.13828"/>
</svg>
