<svg width="1068" height="1558" viewBox="0 0 1068 1558" fill="none" xmlns="http://www.w3.org/2000/svg">
<rect width="31.9236" height="740.377" transform="matrix(-0.961783 0.273814 0.273814 0.961783 193.727 265.184)" fill="#E2E2E2"/>
<rect x="171.939" y="329.863" width="64.4534" height="117.829" fill="#00003E"/>
<rect x="215.244" y="468.84" width="64.4534" height="96.6801" fill="#00003E"/>
<path d="M695.182 299.65L701.742 320.605C675.476 334.551 640.742 352.455 597.54 374.316C554.37 396.269 517.846 414.682 487.969 429.555L442.579 451.909C572.514 425.274 667.575 406.927 727.764 396.868L734.945 417.916L194.15 602.59L186.969 581.543L569.422 450.743C432.088 477.562 356.919 492.631 343.913 495.95L339.154 476.822C439.628 428.299 505.005 395.463 535.284 378.316L161.087 505.689L153.859 484.505L695.182 299.65Z" fill="#34CF12"/>
<path d="M117.873 485.894C134.083 472.967 147.06 463.338 156.804 457.005C166.548 450.673 180.529 442.813 198.748 433.427C203.824 430.708 224.806 419.59 261.694 400.072C298.255 380.704 330.067 363.905 357.13 349.677C383.867 335.597 413.243 320.382 445.259 304.031C477.225 287.568 500.56 275.984 515.265 269.28C516.572 268.684 518.232 267.995 520.243 267.213C522.204 266.319 523.511 265.723 524.165 265.425C463.592 270.219 394.929 281.942 318.176 300.594C241.097 319.395 165.135 344.978 90.2919 377.343L76.3283 351.908C117.83 332.988 162.225 315.652 209.513 299.9C256.802 284.148 302.378 271.135 346.242 260.86C390.056 250.473 430.994 242.005 469.058 235.455C507.121 228.905 542.585 224.012 575.449 220.777C593.582 218.993 606.275 220.43 613.531 225.089C620.735 229.637 626.809 237.333 631.753 248.177C622.348 251.79 610.946 256.65 597.548 262.758C554.412 282.423 493.593 312.649 415.089 353.434C336.207 394.257 273.374 427.425 226.59 452.94C221.514 455.659 213.114 461.041 201.388 469.088C189.336 477.283 180.751 483.56 175.633 487.918L117.873 485.894Z" fill="#FF3C00"/>
<path d="M111.204 666.918C115.001 666.231 118.897 665.793 122.842 665.683C130.183 665.478 136.479 667.148 141.565 671.365C145.916 674.972 148.382 679.765 149.916 682.747C149.973 682.856 150.028 682.963 150.081 683.067C151.86 686.517 153.093 688.902 155.044 691.149C156.825 693.199 159.491 695.414 164.25 697.315L200.277 711.704L162.085 718.509C151.026 720.48 144.094 720.591 137.77 720.377C136.615 720.338 135.524 720.291 134.463 720.246C129.942 720.053 125.977 719.884 119.955 720.413C108.816 721.391 101.583 723.728 96.6653 726.421C91.8712 729.047 88.7279 732.311 86.1701 736.099C83.963 739.368 82.3346 742.748 80.376 746.846C91.3861 745.853 104.723 744.613 117.893 743.307C127.604 742.344 135.525 743.983 142.52 747.891C149.01 751.516 154.092 756.817 158.448 761.397C158.759 761.724 159.072 762.053 159.385 762.384C167.947 771.405 177.563 781.536 197.763 789.478C213.94 795.839 230.74 795.774 245.518 792.838C259.939 789.972 271.78 784.495 278.16 780.489C289.519 770.97 305.888 760.635 323.058 752.255C340.415 743.785 359.659 736.785 376.204 735.072C386.206 734.037 395.671 736.698 404.214 740.383C412.179 743.818 420.277 748.577 427.993 753.112C428.482 753.399 428.969 753.685 429.455 753.97C446.461 763.954 462.627 772.972 480.801 774.031C489.154 774.518 502.805 771.67 519.848 766.128C536.466 760.725 554.931 753.236 572.284 745.579C589.602 737.937 605.635 730.208 617.348 724.382C622.739 721.701 627.205 719.429 630.45 717.759L630.45 596.212C629.949 596.306 629.423 596.413 628.871 596.532C622.874 597.821 615.125 600.271 605.765 603.575C599.379 605.828 592.233 608.488 584.596 611.33C570.54 616.562 554.82 622.413 539.115 627.489C514.674 635.389 488.438 642.069 464.629 642.59C440.784 643.111 417.456 637.446 401.589 618.48C394.711 610.259 381.649 607.949 363.977 612.166C346.87 616.248 329.615 625.644 319.746 634.114L312.531 625.707L319.746 634.114C307.984 644.208 288.602 658.124 268.345 667.115C258.217 671.61 247.339 675.114 236.759 676.02C226.112 676.931 215.008 675.251 205.578 668.445C192.3 658.864 181.984 652.343 171.327 649.356C161.216 646.521 149.903 646.652 134.407 652.54C125.958 655.75 118.133 660.961 111.204 666.918Z" fill="#00003E" stroke="#FF3C00" stroke-width="22.1558"/>
</svg>
