<svg width="811" height="906" viewBox="0 0 811 906" fill="none" xmlns="http://www.w3.org/2000/svg">
<path d="M1300.55 394.538C1234.33 444.323 1222.36 555.853 1167.51 543.859C1112.66 531.865 1085.78 421.722 1098.63 388.741C1113.36 350.93 1182.54 369.164 1164.4 417.008C1141.73 476.813 985.428 531.248 942.273 475.905M915.4 438.069C954.781 487.675 855.97 537.973 825.078 576.81C785.099 616.888 676.23 666.333 560.591 543.494" stroke="#220DFF" stroke-width="9.10625"/>
<path d="M352.537 536.278L347.434 533.329L345.869 539.011L329.845 597.173L325.238 613.896L337.464 601.592C344.143 594.871 353.743 589.021 363.319 585.619C373.101 582.142 381.768 581.593 387.088 583.964C393.44 586.794 403.105 593.369 413.512 602.153C423.845 610.875 434.6 621.511 443.162 632.216L453.74 645.442L451.22 628.694C450.686 625.148 449.296 613.787 448.146 597.496C447.613 589.94 448.593 584.605 450.033 580.612C451.486 576.584 453.476 573.701 455.419 570.91L455.419 570.91L455.504 570.788L455.504 570.788C456.195 569.796 458.044 568.36 461.085 567.423C464.01 566.521 467.582 566.237 471.209 567.043C479.135 568.806 492.972 575.743 507.569 587.865L517.643 596.231L514.933 583.419C513.283 575.623 509.656 566.673 506.48 558.835C505.753 557.04 505.049 555.304 504.399 553.654C502.585 549.052 501.189 545.16 500.537 542.157C500.212 540.656 500.129 539.624 500.174 538.976C500.181 538.873 500.19 538.791 500.199 538.727C500.329 538.653 500.544 538.55 500.88 538.442C501.551 538.225 502.506 538.052 503.768 537.981C506.302 537.839 509.547 538.135 513.109 538.802C520.288 540.146 527.767 542.804 531.829 545.211L537.69 538.43L505.098 498.163L500.5 492.483L497.428 499.113C496.042 502.102 492.13 509.673 487.795 515.649C486.295 517.716 483.224 519.64 479.292 521.165C475.56 522.612 471.717 523.448 469.362 523.77C462.148 524.322 445.284 524.789 433.887 522.54C420.672 519.931 407.432 523.319 402.248 525.402L401.675 525.633L401.184 526.008C396.636 529.48 384.998 536.909 374.817 539.298C365.158 541.565 355.765 538.144 352.537 536.278ZM500.24 538.536C500.24 538.536 500.239 538.54 500.236 538.547C500.239 538.539 500.24 538.536 500.24 538.536Z" fill="#34CF12" stroke="#220DFF" stroke-width="9.10625"/>
<path d="M155.763 397.607L163.975 402.143L162.457 392.885L150.446 319.599L147.853 303.781L141.743 318.6C136.554 331.186 131.134 338.721 123.518 343.392C115.779 348.14 105.093 350.356 88.3997 350.698L71.4624 351.045L86.2916 359.235L155.763 397.607Z" fill="#34CF12" stroke="#220DFF" stroke-width="9.10625"/>
<path d="M316.34 332.274L318.575 329.226L315.99 326.468L312.668 329.582C315.99 326.468 315.988 326.466 315.986 326.464L315.982 326.46L315.973 326.45L315.954 326.429C315.939 326.415 315.923 326.398 315.905 326.379C315.868 326.341 315.823 326.296 315.769 326.243C315.662 326.137 315.52 326.002 315.341 325.837C314.982 325.509 314.472 325.068 313.786 324.529C312.414 323.449 310.339 321.974 307.357 320.216C301.396 316.701 291.803 312.046 276.943 307.143C261.752 302.13 249.87 301.542 241.639 302.289C237.532 302.662 234.357 303.365 232.155 304.001C231.054 304.318 230.198 304.619 229.591 304.853C229.288 304.97 229.046 305.07 228.868 305.147C228.779 305.185 228.705 305.218 228.648 305.244C228.619 305.257 228.594 305.269 228.573 305.279L228.545 305.292L228.533 305.298L228.527 305.3C228.525 305.301 228.522 305.303 230.49 309.409L228.522 305.303L225.093 306.946L226.099 310.613L244.465 377.578L248.739 393.158L253.23 377.639C254.414 373.547 254.927 368.99 255.301 364.788C255.394 363.742 255.478 362.723 255.561 361.73C255.822 358.57 256.062 355.675 256.491 353.024C257.065 349.475 257.861 347.282 258.817 346.085C259.45 345.293 260.355 344.62 262.767 344.886C264.907 345.122 266.136 346.072 267.08 347.82C268.18 349.86 268.836 352.979 269.041 357.158C269.242 361.259 268.993 365.884 268.643 370.667C268.561 371.784 268.472 372.917 268.384 374.052C268.104 377.657 267.821 381.285 267.73 384.531L267.322 399.121L275.953 387.351L316.34 332.274Z" fill="#34CF12" stroke="#220DFF" stroke-width="9.10625"/>
<path d="M380.056 418.818L379.52 422.602L383.154 423.786L405.565 431.086L451.524 454.11L466.895 461.81L457.35 447.511L450.714 437.57C445.228 429.352 442.951 423.843 441.884 419.296C441.057 415.771 440.918 412.794 440.746 409.098C440.686 407.823 440.623 406.464 440.526 404.967C440.186 399.72 442.224 392.104 445.902 382.624C448.637 375.574 452.074 367.976 455.62 360.135C456.769 357.595 457.93 355.029 459.082 352.447L464.698 339.865L452.691 346.624C442.95 352.107 436.754 354.809 432.162 355.917C427.852 356.957 424.88 356.613 421.386 355.526C409.62 351.864 404.825 342.523 400.914 332.41L394.611 316.111L392.159 333.413L380.056 418.818Z" fill="#34CF12" stroke="#220DFF" stroke-width="9.10625"/>
<path d="M73.8617 539.204L62.0697 532.034L67.2801 544.813C73.2755 559.518 92.6242 594.023 122.788 615.492C138.107 626.395 160.75 634.352 182.402 639.901C204.169 645.48 225.478 648.757 238.519 650.071L238.559 650.075L238.598 650.079C247.636 650.83 262.299 651.122 277.16 649.576C291.838 648.05 307.517 644.658 317.964 637.513C337.369 624.239 350.756 608.564 355.188 602.115L364.076 589.181L349.646 595.35C346.89 596.528 343.749 598.154 340.472 599.851C339.754 600.223 339.029 600.599 338.3 600.973C334.151 603.107 329.661 605.338 324.832 607.265C315.172 611.118 304.428 613.638 292.981 611.689C283.246 610.031 276.501 600.214 272.357 585.817C268.332 571.832 267.395 555.535 267.8 544.819L268.432 528.079L259.413 542.197C255.705 548.001 253.201 555.332 251.219 562.654C249.997 567.165 248.898 571.99 247.85 576.591C247.218 579.364 246.605 582.056 245.994 584.549C244.293 591.498 242.571 597.111 240.393 600.822C239.329 602.635 238.317 603.707 237.416 604.29C236.614 604.809 235.73 605.06 234.507 604.919C226.644 604.009 218.45 599.613 211.182 594.058C203.977 588.552 198.139 582.259 195.038 578.246L184.856 565.07L186.917 581.594C187.369 585.213 187.321 590.324 186.038 594.134C185.408 596.005 184.605 597.191 183.787 597.85C183.104 598.399 182.099 598.845 180.293 598.648C180.293 598.648 180.293 598.648 180.293 598.648C180.297 598.635 179.688 598.426 178.468 597.05C177.16 595.574 175.654 593.329 173.976 590.324C170.634 584.336 167.026 576.095 163.252 566.89C161.514 562.652 159.741 558.203 157.949 553.709C152.096 539.029 146.052 523.868 140.439 513.986L132.123 499.344L131.927 516.181C131.845 523.257 130.802 533.755 128.055 542.281C126.677 546.56 124.975 550.001 123.025 552.273C121.159 554.445 119.292 555.328 117.226 555.278C110.54 555.114 101.994 552.55 93.728 549.147C85.5616 545.785 78.1385 541.804 73.8617 539.204Z" fill="#34CF12" stroke="#220DFF" stroke-width="9.10625"/>
<path d="M89.4885 538.429L99.1016 541.078L94.807 532.079C92.7702 527.811 92.4006 522.468 93.2093 517.438C94.0371 512.289 95.9448 508.372 97.4975 506.76C102.564 501.501 108.915 492.11 104.037 481.888C103.757 481.303 103.512 479.857 103.916 476.89C104.301 474.073 105.153 470.63 106.262 466.541C106.565 465.424 106.886 464.265 107.216 463.07C109.248 455.729 111.662 447.006 112.682 438.192L114.268 424.474L104.834 434.558C102.222 437.35 99.7062 440.762 97.3182 444.092C96.8616 444.729 96.4095 445.363 95.9603 445.994C93.9992 448.744 92.0948 451.415 90.1267 453.879C87.7056 456.911 85.4044 459.346 83.1501 460.971C80.9318 462.57 79.0379 463.188 77.2922 463.099C76.5619 463.061 76.2173 462.871 76.0176 462.717C75.7817 462.536 75.4405 462.159 75.1016 461.349C74.3662 459.592 74.016 456.721 74.136 452.755C74.2526 448.901 74.787 444.54 75.4271 440.087C75.6245 438.714 75.8344 437.318 76.0431 435.929C76.4937 432.932 76.9388 429.97 77.241 427.358L79.0075 412.085L69.2093 423.933C64.7222 429.359 60.0805 438.272 57.0629 448.866C54.03 459.513 52.5465 472.171 54.6949 485.119C56.8601 498.168 63.301 510.724 70.0166 520.204C73.3909 524.968 76.9106 529.063 80.1304 532.144C81.7391 533.683 83.321 535.015 84.8162 536.06C86.2535 537.065 87.8573 537.98 89.4885 538.429Z" fill="#34CF12" stroke="#220DFF" stroke-width="9.10625"/>
<path d="M401.876 441.594L790.292 358.853L795.372 387.987L401.876 441.594Z" fill="#E2E2E2"/>
<path d="M523.797 535.979C520.392 532.762 522.191 527.036 526.824 526.343L573.326 519.395C577.428 518.782 580.756 522.675 579.514 526.632L567.189 565.869C565.947 569.826 560.991 571.117 557.976 568.268L523.797 535.979Z" fill="#34CF12" stroke="#220DFF" stroke-width="9.10625"/>
</svg>
