<svg width="468" height="545" viewBox="0 0 468 545" fill="none" xmlns="http://www.w3.org/2000/svg">
<circle cx="262.599" cy="118.822" r="77.624" transform="rotate(18.7953 262.599 118.822)" stroke="#34CF12" stroke-width="9.10625"/>
<path d="M134.904 434.723L133.798 432.771L134.679 430.704C150.947 392.558 189.381 367.313 209.053 356.282C219.348 350.509 233.085 345.904 246.295 342.971C259.454 340.049 272.644 338.665 281.85 339.682C286.438 340.189 291.481 340.416 296.904 340.66C300.489 340.821 304.24 340.989 308.136 341.251C317.549 341.885 327.453 343.063 335.584 346.281L337.913 347.203L338.375 349.662C338.612 350.923 339.49 353.305 340.985 356.688C342.419 359.932 344.229 363.683 346.092 367.544L346.107 367.575C347.957 371.409 349.858 375.349 351.395 378.83C352.884 382.201 354.217 385.543 354.726 388.058C355.56 392.179 355.989 398.295 356.102 404.127C356.215 409.975 356.018 415.979 355.47 419.921L355.454 420.037L355.432 420.151C353.924 428.015 346.578 448.157 329.049 470.239C319.868 481.804 306.622 490.288 294.092 496.196C281.526 502.121 269.295 505.635 261.734 507.07L261.49 507.116L261.242 507.136C248.881 508.113 218.027 507.447 192.732 496.751C179.524 491.167 167.283 479.407 157.404 467.488C147.44 455.467 139.473 442.783 134.904 434.723Z" fill="#FF3C00" stroke="#220DFF" stroke-width="9.10625"/>
<path d="M261.167 441.65C288.769 429.2 311.273 412.317 325.277 394.881C339.095 377.677 345.5 358.709 337.813 342.939C330.126 327.169 310.872 319.774 288.286 318.99C265.396 318.194 237.511 324.038 209.909 336.487C182.307 348.937 159.803 365.82 145.799 383.257C131.981 400.461 125.576 419.428 133.263 435.198C140.95 450.969 160.204 458.363 182.79 459.148C205.68 459.943 233.565 454.099 261.167 441.65Z" fill="#FF3C00" stroke="#220DFF" stroke-width="9.10625"/>
<path d="M165.441 392.943L179.364 385.825L164.088 355.947L150.165 363.066L134.89 333.188L148.812 326.07L133.626 296.367L119.703 303.485L104.427 273.608L118.35 266.489L103.163 236.787L145.28 215.253L160.467 244.956L174.389 237.837L159.203 208.135L201.319 186.601L323.169 424.922L309.072 432.13L293.796 402.252L279.699 409.46L294.975 439.337L253.033 460.782L237.757 430.904L223.66 438.112L238.936 467.989L210.916 482.315L195.64 452.438L209.563 445.319L194.287 415.442L180.364 422.56L165.267 393.032L165.441 392.943ZM161.735 282.216L146.548 252.513L132.451 259.72L147.638 289.423L161.735 282.216ZM176.921 311.918L162.824 319.126L178.011 348.829L192.108 341.621L176.921 311.918ZM207.384 371.499L193.287 378.706L208.563 408.584L222.66 401.376L207.384 371.499ZM189.754 267.89L175.832 275.008L191.018 304.711L204.941 297.592L189.754 267.89ZM220.127 327.295L206.205 334.414L221.481 364.291L235.403 357.173L220.127 327.295ZM265.776 416.578L250.501 386.701L236.578 393.819L251.854 423.697L265.776 416.578ZM217.948 253.475L202.762 223.772L188.665 230.979L203.851 260.682L217.948 253.475ZM248.321 312.88L233.135 283.177L219.038 290.385L234.224 320.088L248.321 312.88ZM278.784 372.46L263.508 342.583L249.411 349.791L264.687 379.668L278.784 372.46Z" fill="#34CF12"/>
<path d="M78.3236 306.914L79.0343 308.951L81.0609 309.691C121.266 324.371 167.819 313.422 189.593 307.248C201.034 304.004 213.95 297.554 225.236 290.322C236.468 283.124 246.576 274.837 252.127 267.666C261.487 255.576 278.089 229.404 283.97 214.451L284.921 212.032L283.323 209.983C281.108 207.146 277.886 202.288 274.474 197.121L274.106 196.564C270.891 191.696 267.555 186.643 265.069 183.367C262.5 179.982 258.131 175.514 253.756 171.453C249.366 167.379 244.657 163.427 241.293 161.132L241.202 161.07L241.109 161.013C234.134 156.732 213.784 148.115 184.972 145.275C169.929 143.792 154.425 147.231 141.335 151.95C128.218 156.678 117.163 162.824 110.885 167.134L110.674 167.279L110.48 167.446C101.27 175.425 80.6235 197.488 71.4659 222.569C66.6804 235.676 67.0428 252.642 69.1432 268.014C71.2629 283.528 75.258 298.128 78.3236 306.914Z" stroke="#220DFF" stroke-width="9.10625"/>
<path d="M338.919 345.961C351.972 372.74 315.14 419.41 260.947 443.853C206.754 468.296 145.943 460.957 132.891 434.178" stroke="#220DFF" stroke-width="9.10625"/>
</svg>
