<svg width="661" height="1065" viewBox="0 0 661 1065" fill="none" xmlns="http://www.w3.org/2000/svg">
<path d="M455.461 445.135L456.915 443.475L459.119 443.589C491.271 445.245 519.836 465.899 533.018 476.889C540.006 482.715 547.019 491.255 552.656 499.818C558.261 508.333 562.819 517.349 564.56 524.251C565.396 527.568 566.538 531.083 567.778 534.904C568.608 537.461 569.483 540.154 570.34 543.016C572.367 549.785 574.181 557.189 573.995 563.923L573.924 566.47L571.717 567.742C570.989 568.162 569.585 569.303 567.531 571.221C565.581 573.043 563.362 575.259 561.059 577.559L561.049 577.569C558.773 579.842 556.416 582.196 554.292 584.179C552.255 586.08 550.116 587.946 548.325 589.011C545.489 590.698 541.119 592.588 536.926 594.164C532.715 595.747 528.275 597.164 525.214 597.804L525.103 597.827L524.99 597.845C518.748 598.826 502.123 598.81 481.443 592.139C470.48 588.602 460.733 581.38 453.101 574.051C445.445 566.698 439.625 558.953 436.546 553.94L436.415 553.726L436.307 553.498C432.302 544.997 424.564 522.999 425.633 502.255C426.2 491.258 431.593 479.46 437.619 469.446C443.716 459.313 450.818 450.431 455.461 445.135Z" fill="#34CF12" stroke="#FF3C00" stroke-width="9.10625"/>
<path d="M483.713 536.943C500.069 553.191 518.329 564.745 534.8 570.16C550.985 575.481 566.915 575.261 576.726 565.385C586.537 555.508 586.652 539.577 581.225 523.428C575.701 506.993 564.026 488.81 547.671 472.562C531.315 456.314 513.055 444.76 496.584 439.345C480.399 434.024 464.47 434.244 454.658 444.121C444.847 453.997 444.732 469.928 450.16 486.077C455.683 502.512 467.358 520.695 483.713 536.943Z" fill="#34CF12" stroke="#FF3C00" stroke-width="9.10625"/>
<path d="M574.092 474.019L580.786 467.535C588.382 460.179 595.334 453.704 601.773 448.244L613.801 460.92C609.68 464.394 605.431 468.25 601.312 472.24C600.41 473.113 598.351 475.108 595.261 478.1C592.171 481.093 589.468 483.711 587.022 486.08L518.792 552.165C523.437 552.066 528.466 551.076 534.139 549.205C539.812 547.334 544.711 545.952 548.968 545.452L549.905 560.331C545.906 560.839 540.748 561.953 534.817 563.558C528.885 565.162 522.696 566.757 516.377 567.961C510.058 569.164 503.608 569.976 497.029 570.138L488.364 561.192C488.609 555.778 489.497 549.225 491.027 541.273C492.557 533.322 493.702 526.002 494.59 519.449C495.478 512.895 495.466 507.473 494.811 503.19L488.116 509.674C480.521 517.03 473.569 523.505 467.13 528.965L454.973 516.413C459.094 512.94 463.343 509.083 467.463 505.093C468.364 504.221 470.423 502.226 473.513 499.233C476.603 496.241 479.306 493.622 481.752 491.253L549.982 425.169C546.756 424.929 543.919 425.348 541.21 425.901C538.502 426.454 536.569 427.291 535.023 428.271C533.477 429.251 531.285 430.08 528.578 431.149C525.871 432.218 523.034 432.895 519.681 433.297L515.385 416.496C519.383 415.988 524.671 415.007 531.247 413.296C537.823 411.585 544.658 410.399 551.365 409.079C558.071 407.76 564.907 407.09 571.616 407.062L580.281 416.008C580.033 420.389 579.529 425.536 578.51 431.439C577.492 437.343 576.601 442.605 575.708 447.093C574.815 451.581 574.052 456.46 573.547 461.349C573.042 466.237 573.568 470.644 574.092 474.019ZM573.963 474.144L557.064 475.243C556.409 470.702 556.399 466.312 557.163 462.207C557.928 458.103 558.821 453.873 559.973 449.652C561.125 445.432 561.76 441.451 561.623 437.703C555.444 443.688 545.531 453.289 532.143 466.514C518.755 479.74 507.812 490.338 499.573 498.318L495.068 502.682L511.838 501.708C512.494 506.249 512.504 510.638 511.739 514.743C510.974 518.848 510.081 523.078 508.929 527.298C507.778 531.519 507.142 535.499 507.279 539.248C513.459 533.263 523.371 523.662 536.759 510.436C550.147 497.211 561.09 486.612 569.329 478.632L573.963 474.144Z" fill="#220DFF"/>
<path d="M504.842 394.491L503.121 395.858V398.057C503.121 430.428 523.535 460.53 533.725 474.197C539.171 481.502 547.32 488.974 555.564 495.068C563.761 501.126 572.514 506.164 579.307 508.266C590.545 511.745 613.904 516.707 626.369 517.006L628.925 517.067L630.308 514.917C631.741 512.688 634.363 509.232 637.206 505.503L637.526 505.083C640.18 501.604 642.968 497.947 644.7 495.334C646.525 492.58 648.632 488.298 650.418 484.176C652.21 480.037 653.85 475.662 654.644 472.628L654.672 472.519L654.696 472.408C655.993 466.209 656.831 449.548 651.246 428.477C648.286 417.311 641.593 407.17 634.681 399.141C627.747 391.087 620.328 384.852 615.49 381.506L615.283 381.363L615.061 381.243C606.794 376.788 585.265 367.892 564.53 367.892C553.577 367.892 541.257 372.572 530.673 377.998C519.968 383.485 510.425 390.057 504.842 394.491Z" stroke="#FF3C00" stroke-width="9.10625"/>
<path d="M575.662 566.321C559.773 582.316 515.693 569.21 483.769 537.496C451.845 505.783 438.285 460.721 454.174 444.727" stroke="#FF3C00" stroke-width="9.10625"/>
<circle cx="331.808" cy="834.017" r="186.213" transform="rotate(18.7953 331.808 834.017)" fill="#220DFF" stroke="#FF3C00" stroke-width="9.10625"/>
<circle cx="211.312" cy="296.911" r="238.372" transform="rotate(18.7953 211.312 296.911)" fill="#34CF12" stroke="#220DFF" stroke-width="9.10625"/>
<path d="M266.116 895.339L308.929 912.603L422.599 699.688L444.979 708.712L332.228 920.456L353.391 928.99C349.26 936.193 346.048 942.225 343.681 946.669C329.313 973.653 320.609 994.438 317.158 1009.24L293.905 1007.96C297.471 991.277 305.086 971.982 316.676 949.662L294.296 940.637L228.205 914.371L341.632 701.358C330.686 696.944 324.118 694.296 321.442 693.217C318.766 692.138 316.577 691.255 314.388 690.372L329.602 661.801C334.71 663.861 344.197 667.686 358.549 673.474C372.901 679.261 384.82 684.068 394.307 687.894C399.173 689.855 405.233 693.456 412.733 698.794L393.235 724.867C387.999 720.827 383.229 718.132 378.364 716.17L364.498 710.579L266.528 895.119L266.359 895.437L266.116 895.339Z" fill="#34CF12"/>
<path d="M177.572 729.865C166.759 744.094 170.856 812.618 310.182 877.273C449.508 941.927 508.243 897.193 511.089 884.672" stroke="#FF3C00" stroke-width="9.10625"/>
</svg>
