<svg width="646" height="1113" viewBox="0 0 646 1113" fill="none" xmlns="http://www.w3.org/2000/svg">
<circle cx="350.008" cy="624.214" r="52.9932" transform="rotate(18.7953 350.008 624.214)" fill="#220DFF" stroke="#FF3C00" stroke-width="9.10625"/>
<circle cx="594.155" cy="653.289" r="77.624" transform="rotate(18.7953 594.155 653.289)" fill="#34CF12" stroke="#FF3C00" stroke-width="9.10625"/>
<circle cx="502.125" cy="761.596" r="48.1548" transform="rotate(18.7953 502.125 761.596)" fill="#FF3C00" stroke="#E2E2E2" stroke-width="9.10625"/>
<circle cx="484.466" cy="633.996" r="64.7389" transform="rotate(18.7953 484.466 633.996)" fill="#34CF12" stroke="#220DFF" stroke-width="9.10625"/>
<circle cx="341.456" cy="470.026" r="77.624" transform="rotate(18.7953 341.456 470.026)" fill="#FF3C00" stroke="#220DFF" stroke-width="9.10625"/>
<path d="M175.172 386.714C181.978 369.615 190.154 352.422 199.702 335.136C208.865 317.697 222.033 298.018 239.206 276.098C256.214 253.475 274.866 233.423 295.164 215.942C315.078 198.308 339.9 182.309 369.63 167.943C399.196 152.873 430.598 142.687 463.836 137.385C497.294 131.531 536.262 131.385 580.741 136.946C625.439 141.956 672.275 153.886 721.248 172.737L727.582 175.258C772.112 192.98 812.336 217.614 848.252 249.16C884.388 280.154 912.763 312.213 933.377 345.337C962.707 393.431 978.27 448.185 980.064 509.601C981.859 571.017 969.256 635.649 942.254 703.496C920.96 757.001 893.936 805.35 861.182 848.544C828.264 891.033 791.619 922.775 751.246 943.768C656.076 994.069 556.09 998.366 451.289 956.658C361.844 921.061 295.984 882.071 253.708 839.687C211.048 797.151 179.88 750.882 160.202 700.879C143.814 660.491 136.312 613.417 137.696 559.656C139.081 505.895 151.573 448.248 175.172 386.714ZM719.272 831.364C776.922 803.829 821.882 749.519 854.152 668.433C887.74 584.038 884.632 508.043 844.831 440.447C833.539 417.422 810.317 392.526 775.168 365.758C740.018 338.99 706.238 318.838 673.827 305.3L662.886 300.946C572.673 265.043 493.779 256.009 426.204 273.843C348.976 293.587 295.324 341.243 265.25 416.812C249.663 455.976 241.208 490.63 239.885 520.773C238.177 550.764 243.544 581.973 255.986 614.4C288.432 702.711 370.108 772.915 501.013 825.012C534.027 838.151 571.567 846.062 613.634 848.746C655.92 850.879 691.132 845.085 719.272 831.364Z" fill="#34CF12"/>
<path d="M313.711 887.563C377.801 909.375 447.283 875.944 468.807 812.7C490.332 749.456 455.668 680.581 391.578 658.769C327.487 636.957 258.005 670.387 236.481 733.631C214.957 796.876 249.621 865.751 313.711 887.563Z" fill="#34CF12" stroke="#E2E2E2" stroke-width="9.10625"/>
<path d="M333.502 764.527C359.672 773.433 388.101 759.13 397.081 732.745C406.06 706.361 392.259 677.685 366.088 668.778C339.918 659.872 311.489 674.175 302.51 700.56C293.53 726.944 307.332 755.62 333.502 764.527Z" fill="#FF3C00" stroke="#E2E2E2" stroke-width="9.10625"/>
<path d="M335.819 749.259C353.242 755.189 372.112 745.537 378.093 727.963C384.074 710.389 375.01 691.23 357.586 685.301C340.163 679.371 321.293 689.023 315.312 706.596C309.331 724.17 318.395 743.329 335.819 749.259Z" fill="#00003E" stroke="#E2E2E2" stroke-width="9.10625"/>
<rect x="333.562" y="688.734" width="9.91461" height="60.5528" transform="rotate(-15.5069 333.562 688.734)" fill="#E2E2E2"/>
<path d="M335.819 749.259C353.242 755.189 372.112 745.537 378.093 727.963C384.074 710.389 375.01 691.23 357.586 685.301C340.163 679.371 321.293 689.023 315.312 706.596C309.331 724.17 318.395 743.329 335.819 749.259Z" stroke="#E2E2E2" stroke-width="9.10625"/>
<rect x="289.08" y="759.686" width="93.6791" height="93.6791" rx="26.1805" transform="rotate(18.7953 289.08 759.686)" fill="#E2E2E2" stroke="#FF3C00" stroke-width="9.10625"/>
<path d="M272.948 789.759L276.641 779.418L266.714 784.111L175.526 827.218C174.828 826.563 174.162 825.909 173.475 825.235C172.626 824.401 171.745 823.537 170.736 822.603C168.381 820.425 165.57 818.145 161.99 816.927C157.826 815.51 154.036 814.641 150.282 814.615C146.456 814.588 142.93 815.437 139.288 817.092C138.053 817.654 137.079 818.542 136.4 819.251C135.667 820.016 134.968 820.905 134.323 821.803C133.034 823.597 131.712 825.775 130.496 827.846C130.015 828.666 129.556 829.459 129.114 830.222C128.392 831.471 127.715 832.64 127.059 833.722C125.935 835.578 125.258 836.511 124.987 836.779L122.308 839.424L124.402 842.552L150.56 881.628L152.809 884.988L156.412 883.151L256.5 832.123L258.111 831.302L258.719 829.598L272.948 789.759Z" stroke="#FF3C00" stroke-width="9.10625"/>
<path d="M215.431 896.44C245.804 906.777 278.889 888.424 289.783 856.416C300.676 824.408 285.655 789.683 255.282 779.346C224.909 769.008 191.823 787.362 180.93 819.37C170.037 851.377 185.058 886.103 215.431 896.44Z" fill="#220DFF" stroke="#E2E2E2" stroke-width="9.10625"/>
<path d="M366.852 823.916L371.213 811.783L360.2 818.487L276.269 869.584C273.632 867.514 270.266 865.049 266.791 862.835C264.421 861.326 261.931 859.888 259.537 858.768C257.214 857.681 254.666 856.741 252.259 856.496C247.418 856.005 242.343 856.724 238.015 857.974C233.776 859.198 229.704 861.091 227.116 863.377C223.777 866.327 221.071 869.766 220.052 871.235L218.101 874.048L220.262 876.703L258.706 923.945L261.404 927.26L264.883 924.777L352.122 862.507L353.281 861.681L353.762 860.341L366.852 823.916Z" stroke="#FF3C00" stroke-width="9.10625"/>
<path d="M218.175 876.321L217.396 875.41L216.269 875L130.92 843.982L115.801 838.488L125.798 851.091L152.918 885.283L153.75 886.332L155.018 886.764L240.968 916.015L256.682 921.364L245.896 908.746L218.175 876.321Z" stroke="#FF3C00" stroke-width="9.10625"/>
</svg>
