<svg width="660" height="1156" viewBox="0 0 660 1156" fill="none" xmlns="http://www.w3.org/2000/svg">
<circle cx="364.008" cy="624.214" r="52.9932" transform="rotate(18.7953 364.008 624.214)" fill="#220DFF" stroke="#FF3C00" stroke-width="9.10625"/>
<circle cx="608.155" cy="653.289" r="77.624" transform="rotate(18.7953 608.155 653.289)" fill="#34CF12" stroke="#FF3C00" stroke-width="9.10625"/>
<circle cx="516.125" cy="761.596" r="48.1548" transform="rotate(18.7953 516.125 761.596)" fill="#FF3C00" stroke="#E2E2E2" stroke-width="9.10625"/>
<circle cx="498.466" cy="633.996" r="64.7389" transform="rotate(18.7953 498.466 633.996)" fill="#34CF12" stroke="#220DFF" stroke-width="9.10625"/>
<circle cx="355.456" cy="470.026" r="77.624" transform="rotate(18.7953 355.456 470.026)" fill="#FF3C00" stroke="#220DFF" stroke-width="9.10625"/>
<path d="M189.172 386.714C195.978 369.615 204.154 352.422 213.702 335.136C222.865 317.697 236.033 298.018 253.206 276.098C270.214 253.475 288.866 233.423 309.164 215.942C329.078 198.308 353.9 182.309 383.63 167.943C413.196 152.873 444.598 142.687 477.836 137.385C511.294 131.531 550.262 131.385 594.741 136.946C639.439 141.956 686.275 153.886 735.248 172.737L741.582 175.258C786.112 192.98 826.336 217.614 862.252 249.16C898.388 280.154 926.763 312.213 947.377 345.337C976.707 393.431 992.27 448.185 994.064 509.601C995.859 571.017 983.256 635.649 956.254 703.496C934.96 757.001 907.936 805.35 875.182 848.544C842.264 891.033 805.619 922.775 765.246 943.768C670.076 994.069 570.09 998.366 465.289 956.658C375.844 921.061 309.984 882.071 267.708 839.687C225.048 797.151 193.88 750.882 174.202 700.879C157.814 660.491 150.312 613.417 151.696 559.656C153.081 505.895 165.573 448.248 189.172 386.714ZM733.272 831.364C790.922 803.829 835.882 749.519 868.152 668.433C901.74 584.038 898.632 508.043 858.831 440.447C847.539 417.422 824.317 392.526 789.168 365.758C754.018 338.99 720.238 318.838 687.827 305.3L676.886 300.946C586.673 265.043 507.779 256.009 440.204 273.843C362.976 293.587 309.324 341.243 279.25 416.812C263.663 455.976 255.208 490.63 253.885 520.773C252.177 550.764 257.544 581.973 269.986 614.4C302.432 702.711 384.108 772.915 515.013 825.012C548.027 838.151 585.567 846.062 627.634 848.746C669.92 850.879 705.132 845.085 733.272 831.364Z" fill="#34CF12"/>
<path d="M327.711 887.563C391.801 909.375 461.283 875.944 482.807 812.7C504.332 749.456 469.668 680.581 405.578 658.769C341.487 636.957 272.005 670.387 250.481 733.631C228.957 796.876 263.621 865.751 327.711 887.563Z" fill="#34CF12" stroke="#E2E2E2" stroke-width="9.10625"/>
<path d="M347.502 764.527C373.672 773.433 402.101 759.13 411.081 732.745C420.06 706.361 406.259 677.685 380.088 668.778C353.918 659.872 325.489 674.175 316.51 700.56C307.53 726.944 321.332 755.62 347.502 764.527Z" fill="#FF3C00" stroke="#E2E2E2" stroke-width="9.10625"/>
<path d="M349.819 749.259C367.242 755.189 386.112 745.537 392.093 727.963C398.074 710.389 389.01 691.23 371.586 685.301C354.163 679.371 335.293 689.023 329.312 706.596C323.331 724.17 332.395 743.329 349.819 749.259Z" fill="#00003E" stroke="#E2E2E2" stroke-width="9.10625"/>
<rect x="347.562" y="688.734" width="9.91461" height="60.5528" transform="rotate(-15.5069 347.562 688.734)" fill="#E2E2E2"/>
<path d="M349.819 749.259C367.242 755.189 386.112 745.537 392.093 727.963C398.074 710.389 389.01 691.23 371.586 685.301C354.163 679.371 335.293 689.023 329.312 706.596C323.331 724.17 332.395 743.329 349.819 749.259Z" stroke="#E2E2E2" stroke-width="9.10625"/>
<rect x="303.08" y="759.686" width="93.6791" height="93.6791" rx="26.1805" transform="rotate(18.7953 303.08 759.686)" fill="#E2E2E2" stroke="#FF3C00" stroke-width="9.10625"/>
<path d="M286.948 789.759L290.641 779.418L280.714 784.111L189.526 827.218C188.828 826.563 188.162 825.909 187.475 825.235C186.626 824.401 185.745 823.537 184.736 822.603C182.381 820.425 179.57 818.145 175.99 816.927C171.826 815.51 168.036 814.641 164.282 814.615C160.456 814.588 156.93 815.437 153.288 817.092C152.053 817.654 151.079 818.542 150.4 819.251C149.667 820.016 148.968 820.905 148.323 821.803C147.034 823.597 145.712 825.775 144.496 827.846C144.015 828.666 143.556 829.459 143.114 830.222C142.392 831.471 141.715 832.64 141.059 833.722C139.935 835.578 139.258 836.511 138.987 836.779L136.308 839.424L138.402 842.552L164.56 881.628L166.809 884.988L170.412 883.151L270.5 832.123L272.111 831.302L272.719 829.598L286.948 789.759Z" stroke="#FF3C00" stroke-width="9.10625"/>
<path d="M229.431 896.44C259.804 906.777 292.889 888.424 303.783 856.416C314.676 824.408 299.655 789.683 269.282 779.346C238.909 769.008 205.823 787.362 194.93 819.37C184.037 851.377 199.058 886.103 229.431 896.44Z" fill="#220DFF" stroke="#E2E2E2" stroke-width="9.10625"/>
<path d="M380.852 823.916L385.213 811.783L374.2 818.487L290.269 869.584C287.632 867.514 284.266 865.049 280.791 862.835C278.421 861.326 275.931 859.888 273.537 858.768C271.214 857.681 268.666 856.741 266.259 856.496C261.418 856.005 256.343 856.724 252.015 857.974C247.776 859.198 243.704 861.091 241.116 863.377C237.777 866.327 235.071 869.766 234.052 871.235L232.101 874.048L234.262 876.703L272.706 923.945L275.404 927.26L278.883 924.777L366.122 862.507L367.281 861.681L367.762 860.341L380.852 823.916Z" stroke="#FF3C00" stroke-width="9.10625"/>
<path d="M232.175 876.321L231.396 875.41L230.269 875L144.92 843.982L129.801 838.488L139.798 851.091L166.918 885.283L167.75 886.332L169.018 886.764L254.968 916.015L270.682 921.364L259.896 908.746L232.175 876.321Z" stroke="#FF3C00" stroke-width="9.10625"/>
<rect x="123.797" y="811.846" width="21.3362" height="37.5633" transform="rotate(30.4293 123.797 811.846)" fill="#00003E"/>
<rect x="155.486" y="886.961" width="21.3362" height="37.8778" transform="rotate(18.8954 155.486 886.961)" fill="#00003E"/>
<rect x="261.562" y="923.053" width="21.3362" height="38.544" transform="rotate(18.8954 261.562 923.053)" fill="#00003E"/>
<rect x="272.023" y="935.111" width="21.3362" height="38.236" transform="rotate(-35.2528 272.023 935.111)" fill="#00003E"/>
<path d="M389.659 809.286C389.659 807.579 389.09 802.456 389.09 802.456L394.781 800.18L389.09 814.977C389.09 814.977 389.659 810.993 389.659 809.286Z" fill="#34CF12"/>
</svg>
