<svg width="1457" height="1372" viewBox="0 0 1457 1372" fill="none" xmlns="http://www.w3.org/2000/svg">
<path d="M1466.17 918.214L-292.377 436.79L-292.377 748.679L1466.17 918.214Z" fill="#E2E2E2"/>
<path d="M1466.74 918.21L-61.5372 25.2547L-283.937 392.893L1466.74 918.21Z" fill="#E2E2E2"/>
<path d="M872.109 298.142C848.485 304.251 817.715 337.584 781.97 351.903C746.224 366.222 713.015 359.121 677.27 373.44C648.673 384.895 633.27 459.024 635.859 497.879C637.101 516.531 700.433 547.943 722.703 552.704C744.973 557.464 751.816 580.884 755.58 592.415C761.135 609.433 753.271 659.83 827.276 696.602C904.834 735.141 1115.91 772.602 1208.27 765.791C1253.42 762.462 1305.4 739.059 1310.2 716.595C1315.01 694.131 1350.2 699.61 1374.52 704.809C1401.38 710.551 1444.38 705.747 1454.04 691.166C1470.63 666.113 1489.32 578.693 1470.96 552.299C1455.24 529.706 1416.28 509.458 1400.65 506.117C1385.02 502.776 1336.7 475.593 1330.44 452.295C1323.53 426.555 1302.59 403.442 1289.18 387.3C1249.71 349.752 1105.25 318.871 1080.25 313.526C1048.99 306.844 918.599 286.121 872.109 298.142Z" fill="#FF3C00" stroke="#220DFF" stroke-width="43.9482"/>
<path d="M917.734 651.487L910.718 684.306C915.797 685.391 916.077 687.903 916.733 688.656C917.39 689.409 918.019 692.199 918.075 693.845C918.121 695.162 917.353 699.138 916.963 700.962L1111.27 739.025L1111.47 738.048C1112.13 735.941 1113.85 731.121 1115.52 728.698C1117.59 725.669 1122.15 724.397 1123.72 724.731L1132.51 726.611L1137.45 703.51L1138.98 696.331C1138.98 696.331 1132.63 693.487 1130.33 689.987C1127.81 686.163 1127.18 682.966 1128.09 678.478C1129.13 673.313 1131.57 670.082 1136.3 667.772C1139.52 666.204 1145.37 666.443 1145.37 666.443L1147.32 657.31L1152.26 634.21C1150.66 633.731 1147.09 632.613 1145.59 631.967C1143.72 631.158 1140.83 627.476 1140.09 624.254C1139.5 621.676 1139.47 617.924 1139.53 616.371L944.329 571.988C944.301 572.118 944.193 572.817 943.981 574.57C943.717 576.76 942.435 578.937 940.762 581.031C939.423 582.706 934.262 584.68 931.848 585.458L923.872 622.77C923.872 622.77 928.11 624.75 929.971 626.73C932.135 629.031 933.591 633.437 933.27 638.057C932.955 642.59 930.756 645.351 927.219 648.203C924.168 650.664 917.734 651.487 917.734 651.487Z" fill="#34CF12" stroke="#E2E2E2" stroke-width="3.44169"/>
<rect x="953.748" y="659.798" width="64.9234" height="152.82" transform="rotate(-77.9336 953.748 659.798)" fill="#E2E2E2" stroke="#E2E2E2" stroke-width="3.99529"/>
<circle cx="643.163" cy="428.454" r="16.4806" transform="rotate(12.0664 643.163 428.454)" fill="#00003E"/>
<circle cx="636.154" cy="499.474" r="16.4806" transform="rotate(12.0664 636.154 499.474)" fill="#00003E"/>
<circle cx="696.66" cy="546.112" r="16.4806" transform="rotate(12.0664 696.66 546.112)" fill="#00003E"/>
<circle cx="759.333" cy="606.495" r="16.4806" transform="rotate(12.0664 759.333 606.495)" fill="#00003E"/>
<circle cx="794.318" cy="672.193" r="16.4806" transform="rotate(12.0664 794.318 672.193)" fill="#00003E"/>
<circle cx="899.613" cy="724.321" r="16.4806" transform="rotate(12.0664 899.613 724.321)" fill="#00003E"/>
<circle cx="1005.1" cy="746.872" r="16.4806" transform="rotate(12.0664 1005.1 746.872)" fill="#00003E"/>
<circle cx="1118.54" cy="760.907" r="16.4806" transform="rotate(12.0664 1118.54 760.907)" fill="#00003E"/>
<circle cx="1232.74" cy="761.827" r="16.4806" transform="rotate(12.0664 1232.74 761.827)" fill="#00003E"/>
<circle cx="1324.38" cy="705.835" r="16.4806" transform="rotate(12.0664 1324.38 705.835)" fill="#00003E"/>
<circle cx="1425.32" cy="701.878" r="16.4806" transform="rotate(12.0664 1425.32 701.878)" fill="#00003E"/>
<circle cx="1475.93" cy="622.814" r="16.4806" transform="rotate(12.0664 1475.93 622.814)" fill="#00003E"/>
<circle cx="1446.23" cy="527.607" r="16.4806" transform="rotate(12.0664 1446.23 527.607)" fill="#00003E"/>
<circle cx="1355.31" cy="484.679" r="16.4806" transform="rotate(12.0664 1355.31 484.679)" fill="#00003E"/>
<circle cx="1308.95" cy="405.314" r="16.4806" transform="rotate(12.0664 1308.95 405.314)" fill="#00003E"/>
<circle cx="1222.07" cy="353.036" r="16.4806" transform="rotate(12.0664 1222.07 353.036)" fill="#00003E"/>
<circle cx="1129.21" cy="323.991" r="16.4806" transform="rotate(12.0664 1129.21 323.991)" fill="#00003E"/>
<circle cx="1044.23" cy="305.825" r="16.4806" transform="rotate(12.0664 1044.23 305.825)" fill="#00003E"/>
<circle cx="957.37" cy="296.45" r="16.4806" transform="rotate(12.0664 957.37 296.45)" fill="#00003E"/>
<circle cx="867.382" cy="301.728" r="16.4806" transform="rotate(12.0664 867.382 301.728)" fill="#00003E"/>
<circle cx="797.226" cy="348.013" r="16.4806" transform="rotate(12.0664 797.226 348.013)" fill="#00003E"/>
<circle cx="698.036" cy="367.665" r="16.4806" transform="rotate(12.0664 698.036 367.665)" fill="#00003E"/>
<path d="M111.943 465.507L252.283 893.307L139.967 930.152L-20.9961 446.684L456.112 290.582L567.717 253.97L727.136 737.532L615.531 774.143L473.77 346.81L111.943 465.507Z" fill="#34CF12"/>
<path d="M624.38 675.34L600.438 602.356L805.045 617.474L681.998 850.979L661.731 789.198L660.205 784.546L656.023 787.093L305.788 1000.39L305.696 1000.45L305.608 1000.51C296.057 1007.08 280.01 1016.48 263.079 1023.24C245.922 1030.08 228.815 1033.82 216.643 1030.25C184.22 1020.73 168.159 999.577 159.408 978.512C153.561 964.437 140.416 920.845 131.132 890.057C129.116 883.374 127.283 877.294 125.745 872.25C126.203 859.808 130.49 833.377 145.824 814.763C153.199 805.81 162.996 794.7 172.292 784.159C173.262 783.06 174.226 781.966 175.182 780.882C182.383 772.711 189.153 764.994 193.909 759.21L231.267 873.089C233.098 878.672 236.872 887.098 245.871 891.049C254.915 895.02 267.814 893.869 286.402 883.864C322.898 864.22 525.921 739.613 622.73 679.854L625.334 678.247L624.38 675.34Z" fill="#FF3C00" stroke="#220DFF" stroke-width="7.76464"/>
<circle cx="11.647" cy="11.647" r="15.5293" transform="matrix(-0.950179 0.311705 0.311705 0.950179 680.551 723.193)" fill="#220DFF" stroke="#34CF12" stroke-width="7.76464"/>
<circle cx="11.647" cy="11.647" r="15.5293" transform="matrix(-0.950179 0.311705 0.311705 0.950179 558.643 799.959)" fill="#220DFF" stroke="#34CF12" stroke-width="7.76464"/>
<circle cx="11.647" cy="11.647" r="15.5293" transform="matrix(-0.950179 0.311705 0.311705 0.950179 495.543 838.027)" fill="#220DFF" stroke="#34CF12" stroke-width="7.76464"/>
<circle cx="11.647" cy="11.647" r="15.5293" transform="matrix(-0.950179 0.311705 0.311705 0.950179 427.83 877.607)" fill="#220DFF" stroke="#34CF12" stroke-width="7.76464"/>
<circle cx="11.647" cy="11.647" r="15.5293" transform="matrix(-0.950179 0.311705 0.311705 0.950179 362.869 919.348)" fill="#220DFF" stroke="#34CF12" stroke-width="7.76464"/>
<circle cx="11.647" cy="11.647" r="15.5293" transform="matrix(-0.950179 0.311705 0.311705 0.950179 304.365 958.969)" fill="#220DFF" stroke="#34CF12" stroke-width="7.76464"/>
<circle cx="11.647" cy="11.647" r="15.5293" transform="matrix(-0.950179 0.311705 0.311705 0.950179 249.031 977.121)" fill="#220DFF" stroke="#34CF12" stroke-width="7.76464"/>
<circle cx="11.647" cy="11.647" r="15.5293" transform="matrix(-0.950179 0.311705 0.311705 0.950179 203.746 948.057)" fill="#220DFF" stroke="#34CF12" stroke-width="7.76464"/>
<circle cx="11.647" cy="11.647" r="15.5293" transform="matrix(-0.950179 0.311705 0.311705 0.950179 174.523 896.346)" fill="#220DFF" stroke="#34CF12" stroke-width="7.76464"/>
<circle cx="11.647" cy="11.647" r="15.5293" transform="matrix(-0.950179 0.311705 0.311705 0.950179 158.793 848.391)" fill="#220DFF" stroke="#34CF12" stroke-width="7.76464"/>
<circle cx="11.647" cy="11.647" r="15.5293" transform="matrix(-0.950179 0.311705 0.311705 0.950179 622.984 759.443)" fill="#220DFF" stroke="#34CF12" stroke-width="7.76464"/>
<circle cx="11.647" cy="11.647" r="15.5293" transform="matrix(-0.950179 0.311705 0.311705 0.950179 666.938 681.693)" fill="#220DFF" stroke="#34CF12" stroke-width="7.76464"/>
<circle cx="11.647" cy="11.647" r="15.5293" transform="matrix(-0.950179 0.311705 0.311705 0.950179 605.982 720.074)" fill="#220DFF" stroke="#34CF12" stroke-width="7.76464"/>
<circle cx="11.647" cy="11.647" r="15.5293" transform="matrix(-0.950179 0.311705 0.311705 0.950179 544.121 755.691)" fill="#220DFF" stroke="#34CF12" stroke-width="7.76464"/>
<circle cx="11.647" cy="11.647" r="15.5293" transform="matrix(-0.950179 0.311705 0.311705 0.950179 481.02 793.758)" fill="#220DFF" stroke="#34CF12" stroke-width="7.76464"/>
<circle cx="11.647" cy="11.647" r="15.5293" transform="matrix(-0.950179 0.311705 0.311705 0.950179 413.912 835.18)" fill="#220DFF" stroke="#34CF12" stroke-width="7.76464"/>
<circle cx="11.647" cy="11.647" r="15.5293" transform="matrix(-0.950179 0.311705 0.311705 0.950179 348.648 875.996)" fill="#220DFF" stroke="#34CF12" stroke-width="7.76464"/>
<circle cx="11.647" cy="11.647" r="15.5293" transform="matrix(-0.950179 0.311705 0.311705 0.950179 289.238 912.857)" fill="#220DFF" stroke="#34CF12" stroke-width="7.76464"/>
<circle cx="11.647" cy="11.647" r="15.5293" transform="matrix(-0.950179 0.311705 0.311705 0.950179 240.158 906.48)" fill="#220DFF" stroke="#34CF12" stroke-width="7.76464"/>
<circle cx="11.647" cy="11.647" r="15.5293" transform="matrix(-0.950179 0.311705 0.311705 0.950179 212.121 864.604)" fill="#220DFF" stroke="#34CF12" stroke-width="7.76464"/>
<circle cx="11.647" cy="11.647" r="15.5293" transform="matrix(-0.950179 0.311705 0.311705 0.950179 195.783 814.803)" fill="#220DFF" stroke="#34CF12" stroke-width="7.76464"/>
<circle cx="11.647" cy="11.647" r="15.5293" transform="matrix(-0.950179 0.311705 0.311705 0.950179 726.838 671.236)" fill="#220DFF" stroke="#34CF12" stroke-width="7.76464"/>
<circle cx="11.647" cy="11.647" r="15.5293" transform="matrix(-0.950179 0.311705 0.311705 0.950179 651.811 635.58)" fill="#220DFF" stroke="#34CF12" stroke-width="7.76464"/>
<circle cx="11.647" cy="11.647" r="15.5293" transform="matrix(-0.950179 0.311705 0.311705 0.950179 694.469 765.615)" fill="#220DFF" stroke="#34CF12" stroke-width="7.76464"/>
</svg>
