<svg width="705" height="704" viewBox="0 0 705 704" fill="none" xmlns="http://www.w3.org/2000/svg">
<path d="M369.025 201.457L343.87 152.063C336.226 155.956 333.253 153.027 331.628 152.743C330.003 152.46 326.292 149.536 324.506 147.484C323.078 145.842 319.925 139.943 318.528 137.199L29.7052 290.58L30.4539 292.05C31.8069 295.434 34.6104 303.411 35.0002 308.248C35.4875 314.294 30.9603 320.673 28.6082 321.871L15.3775 328.608L33.0831 363.376L38.5857 374.181C38.5857 374.181 49.6885 371.223 56.2865 373.312C63.4964 375.595 67.6283 379.044 71.1342 385.745C75.1687 393.456 75.4126 400.131 71.7414 408.022C69.2475 413.382 61.4944 419.165 61.4944 419.165L68.4943 432.91L86.1999 467.677C88.7499 466.625 94.4977 464.34 97.0893 463.613C100.329 462.703 107.867 464.418 112.171 467.781C115.614 470.47 119.555 475.252 121.095 477.306L417.644 331.098C417.544 330.902 416.956 329.894 415.403 327.426C413.462 324.342 412.842 320.214 412.809 315.788C412.783 312.247 417.348 304.343 419.634 300.834L391.035 244.677C391.035 244.677 383.54 246.548 379.092 245.946C373.923 245.246 367.47 241.109 363.074 234.85C358.761 228.708 358.707 222.879 360.275 215.54C361.629 209.208 369.025 201.457 369.025 201.457Z" fill="#34CF12" stroke="#E2E2E2" stroke-width="5.68453"/>
<rect x="274.528" y="196.836" width="155.074" height="252.738" transform="rotate(63.012 274.528 196.836)" fill="#34CF12" stroke="#E2E2E2" stroke-width="6.5989"/>
<path d="M272.546 248.201L265.089 240.742L255.69 245.528L260.481 236.131L253.024 228.671L263.441 230.323L268.232 220.926L269.88 231.345L280.297 232.997L270.898 237.783L272.546 248.201Z" fill="#220DFF"/>
<path d="M316.878 336.705L309.421 329.245L300.022 334.032L304.813 324.635L297.356 317.175L307.773 318.827L312.564 309.43L314.212 319.848L324.629 321.501L315.23 326.287L316.878 336.705Z" fill="#220DFF"/>
<path d="M246.673 261.377L239.216 253.917L229.817 258.704L234.607 249.307L227.151 241.847L237.568 243.499L242.359 234.102L244.006 244.52L254.424 246.173L245.025 250.959L246.673 261.377Z" fill="#220DFF"/>
<path d="M291.003 349.881L283.546 342.421L274.147 347.208L278.938 337.811L271.481 330.351L281.898 332.003L286.689 322.606L288.337 333.024L298.754 334.676L289.355 339.463L291.003 349.881Z" fill="#220DFF"/>
<path d="M220.8 274.555L213.343 267.095L203.944 271.882L208.734 262.485L201.278 255.025L211.695 256.677L216.486 247.28L218.133 257.698L228.551 259.35L219.152 264.137L220.8 274.555Z" fill="#220DFF"/>
<path d="M265.13 363.057L257.673 355.597L248.274 360.384L253.065 350.987L245.608 343.527L256.025 345.179L260.816 335.782L262.464 346.2L272.881 347.852L263.482 352.639L265.13 363.057Z" fill="#220DFF"/>
<path d="M194.927 287.731L187.47 280.271L178.071 285.057L182.861 275.66L175.405 268.201L185.822 269.853L190.613 260.456L192.26 270.874L202.678 272.526L193.279 277.313L194.927 287.731Z" fill="#220DFF"/>
<path d="M239.257 376.235L231.8 368.775L222.401 373.561L227.191 364.164L219.735 356.704L230.152 358.357L234.943 348.96L236.59 359.378L247.008 361.03L237.609 365.816L239.257 376.235Z" fill="#220DFF"/>
<path d="M169.054 300.906L161.597 293.447L152.198 298.233L156.988 288.836L149.532 281.376L159.949 283.029L164.74 273.632L166.387 284.05L176.805 285.702L167.406 290.488L169.054 300.906Z" fill="#220DFF"/>
<path d="M213.384 389.41L205.927 381.951L196.528 386.737L201.318 377.34L193.862 369.88L204.279 371.532L209.07 362.135L210.717 372.554L221.135 374.206L211.736 378.992L213.384 389.41Z" fill="#220DFF"/>
<path d="M143.181 314.082L135.724 306.622L126.325 311.409L131.115 302.012L123.659 294.552L134.076 296.204L138.866 286.807L140.514 297.225L150.932 298.878L141.533 303.664L143.181 314.082Z" fill="#220DFF"/>
<path d="M187.511 402.586L180.054 395.126L170.655 399.913L175.445 390.516L167.989 383.056L178.406 384.708L183.197 375.311L184.844 385.729L195.262 387.382L185.863 392.168L187.511 402.586Z" fill="#220DFF"/>
<path d="M117.306 327.26L109.849 319.8L100.45 324.587L105.24 315.19L97.7836 307.73L108.201 309.382L112.991 299.985L114.639 310.403L125.057 312.055L115.658 316.842L117.306 327.26Z" fill="#220DFF"/>
<path d="M161.638 415.762L154.181 408.302L144.782 413.089L149.572 403.692L142.116 396.232L152.533 397.884L157.324 388.487L158.971 398.905L169.389 400.557L159.99 405.344L161.638 415.762Z" fill="#220DFF"/>
<path d="M92.0224 340.135L84.5656 332.675L75.1666 337.462L79.9571 328.065L72.5004 320.605L82.9178 322.257L87.7083 312.86L89.3561 323.278L99.7735 324.93L90.3745 329.717L92.0224 340.135Z" fill="#220DFF"/>
<path d="M136.352 428.639L128.896 421.179L119.497 425.966L124.287 416.569L116.83 409.109L127.248 410.761L132.038 401.364L133.686 411.782L144.104 413.434L134.705 418.221L136.352 428.639Z" fill="#220DFF"/>
<path d="M721.892 71.6916L696.738 22.2972C689.093 26.1902 686.12 23.2609 684.495 22.9778C682.87 22.6947 679.159 19.7709 677.373 17.7182C675.945 16.0761 672.793 10.1773 671.395 7.43315L382.572 160.814L383.321 162.284C384.674 165.668 387.478 173.645 387.867 178.482C388.355 184.529 383.827 190.907 381.475 192.105L368.245 198.843L385.95 233.61L391.453 244.415C391.453 244.415 402.556 241.457 409.154 243.546C416.364 245.83 420.495 249.278 424.001 255.979C428.036 263.691 428.28 270.366 424.609 278.257C422.115 283.617 414.362 289.399 414.362 289.399L421.362 303.144L439.067 337.911C441.617 336.86 447.365 334.574 449.957 333.847C453.196 332.938 460.734 334.653 465.038 338.015C468.482 340.705 472.422 345.486 473.962 347.54L770.511 201.333C770.411 201.137 769.823 200.128 768.271 197.66C766.33 194.576 765.709 190.449 765.676 186.022C765.65 182.481 770.215 174.578 772.501 171.068L743.903 114.912C743.903 114.912 736.407 116.782 731.96 116.18C726.79 115.481 720.337 111.344 715.941 105.084C711.629 98.9426 711.574 93.1131 713.143 85.7743C714.496 79.4426 721.892 71.6916 721.892 71.6916Z" fill="#220DFF" stroke="#E2E2E2" stroke-width="5.68453"/>
<rect x="627.395" y="67.0703" width="155.074" height="252.738" transform="rotate(63.012 627.395 67.0703)" fill="#220DFF" stroke="#E2E2E2" stroke-width="6.5989"/>
<path d="M625.413 118.436L617.956 110.976L608.557 115.762L613.348 106.365L605.891 98.9056L616.308 100.558L621.099 91.1608L622.747 101.579L633.164 103.231L623.765 108.018L625.413 118.436Z" fill="#34CF12"/>
<path d="M669.745 206.94L662.288 199.48L652.889 204.266L657.68 194.869L650.223 187.41L660.64 189.062L665.431 179.665L667.079 190.083L677.496 191.735L668.097 196.522L669.745 206.94Z" fill="#34CF12"/>
<path d="M599.54 131.612L592.083 124.152L582.684 128.938L587.475 119.541L580.018 112.081L590.435 113.734L595.226 104.337L596.874 114.755L607.291 116.407L597.892 121.193L599.54 131.612Z" fill="#34CF12"/>
<path d="M643.87 220.115L636.413 212.656L627.014 217.442L631.805 208.045L624.348 200.585L634.765 202.237L639.556 192.84L641.204 203.259L651.621 204.911L642.222 209.697L643.87 220.115Z" fill="#34CF12"/>
<path d="M573.667 144.787L566.21 137.327L556.811 142.114L561.602 132.717L554.145 125.257L564.562 126.909L569.353 117.512L571.001 127.93L581.418 129.583L572.019 134.369L573.667 144.787Z" fill="#34CF12"/>
<path d="M617.997 233.291L610.54 225.831L601.141 230.618L605.932 221.221L598.475 213.761L608.892 215.413L613.683 206.016L615.331 216.434L625.748 218.087L616.349 222.873L617.997 233.291Z" fill="#34CF12"/>
<path d="M547.794 157.965L540.337 150.505L530.938 155.292L535.729 145.895L528.272 138.435L538.689 140.087L543.48 130.69L545.128 141.108L555.545 142.76L546.146 147.547L547.794 157.965Z" fill="#34CF12"/>
<path d="M592.124 246.467L584.667 239.007L575.268 243.794L580.059 234.397L572.602 226.937L583.019 228.589L587.81 219.192L589.458 229.61L599.875 231.262L590.476 236.049L592.124 246.467Z" fill="#34CF12"/>
<path d="M521.921 171.141L514.464 163.681L505.065 168.468L509.856 159.071L502.399 151.611L512.816 153.263L517.607 143.866L519.255 154.284L529.672 155.936L520.273 160.723L521.921 171.141Z" fill="#34CF12"/>
<path d="M566.251 259.645L558.794 252.185L549.395 256.971L554.186 247.574L546.729 240.115L557.146 241.767L561.937 232.37L563.585 242.788L574.002 244.44L564.603 249.227L566.251 259.645Z" fill="#34CF12"/>
<path d="M496.048 184.317L488.591 176.857L479.192 181.643L483.982 172.246L476.526 164.786L486.943 166.439L491.734 157.042L493.381 167.46L503.799 169.112L494.4 173.899L496.048 184.317Z" fill="#34CF12"/>
<path d="M540.378 272.821L532.921 265.361L523.522 270.147L528.313 260.75L520.856 253.29L531.273 254.943L536.064 245.546L537.712 255.964L548.129 257.616L538.73 262.402L540.378 272.821Z" fill="#34CF12"/>
<path d="M470.173 197.494L462.716 190.035L453.317 194.821L458.107 185.424L450.651 177.964L461.068 179.616L465.859 170.219L467.506 180.638L477.924 182.29L468.525 187.076L470.173 197.494Z" fill="#34CF12"/>
<path d="M514.505 285.996L507.048 278.536L497.649 283.323L502.44 273.926L494.983 266.466L505.4 268.118L510.191 258.721L511.839 269.139L522.256 270.792L512.857 275.578L514.505 285.996Z" fill="#34CF12"/>
<path d="M444.89 210.369L437.433 202.91L428.034 207.696L432.824 198.299L425.368 190.839L435.785 192.491L440.575 183.094L442.223 193.513L452.641 195.165L443.242 199.951L444.89 210.369Z" fill="#34CF12"/>
<path d="M489.22 298.873L481.763 291.413L472.364 296.2L477.154 286.803L469.698 279.343L480.115 280.995L484.906 271.598L486.553 282.016L496.971 283.669L487.572 288.455L489.22 298.873Z" fill="#34CF12"/>
<path d="M523.83 412.037L498.675 362.643C491.031 366.536 488.058 363.607 486.433 363.323C484.807 363.04 481.097 360.117 479.311 358.064C477.882 356.422 474.73 350.523 473.333 347.779L184.51 501.16L185.259 502.63C186.612 506.014 189.415 513.991 189.805 518.828C190.292 524.874 185.765 531.253 183.413 532.451L170.182 539.188L187.888 573.956L193.39 584.761C193.39 584.761 204.493 581.803 211.091 583.892C218.301 586.176 222.433 589.624 225.939 596.325C229.973 604.036 230.217 610.712 226.546 618.602C224.052 623.962 216.299 629.745 216.299 629.745L223.299 643.49L241.005 678.257C243.555 677.205 249.302 674.92 251.894 674.193C255.134 673.283 262.672 674.998 266.976 678.361C270.419 681.05 274.36 685.832 275.9 687.886L572.449 541.679C572.349 541.483 571.761 540.474 570.208 538.006C568.267 534.922 567.646 530.795 567.614 526.368C567.588 522.827 572.153 514.923 574.439 511.414L545.84 455.257C545.84 455.257 538.344 457.128 533.897 456.526C528.727 455.826 522.275 451.689 517.879 445.43C513.566 439.288 513.512 433.459 515.08 426.12C516.433 419.788 523.83 412.037 523.83 412.037Z" fill="#34CF12" stroke="#E2E2E2" stroke-width="5.68453"/>
<rect x="429.335" y="407.418" width="155.074" height="252.738" transform="rotate(63.012 429.335 407.418)" fill="#34CF12" stroke="#E2E2E2" stroke-width="6.5989"/>
<path d="M427.352 458.783L419.896 451.324L410.497 456.11L415.287 446.713L407.83 439.253L418.248 440.905L423.038 431.508L424.686 441.927L435.104 443.579L425.705 448.365L427.352 458.783Z" fill="#220DFF"/>
<path d="M471.684 547.287L464.228 539.827L454.829 544.614L459.619 535.217L452.162 527.757L462.58 529.409L467.37 520.012L469.018 530.43L479.436 532.083L470.037 536.869L471.684 547.287Z" fill="#220DFF"/>
<path d="M401.479 471.959L394.023 464.499L384.624 469.286L389.414 459.889L381.957 452.429L392.375 454.081L397.165 444.684L398.813 455.102L409.231 456.755L399.832 461.541L401.479 471.959Z" fill="#220DFF"/>
<path d="M445.809 560.463L438.353 553.003L428.954 557.79L433.744 548.393L426.287 540.933L436.705 542.585L441.495 533.188L443.143 543.606L453.561 545.258L444.162 550.045L445.809 560.463Z" fill="#220DFF"/>
<path d="M375.606 485.135L368.15 477.675L358.751 482.462L363.541 473.065L356.084 465.605L366.502 467.257L371.292 457.86L372.94 468.278L383.358 469.93L373.959 474.717L375.606 485.135Z" fill="#220DFF"/>
<path d="M419.936 573.639L412.48 566.179L403.081 570.966L407.871 561.569L400.414 554.109L410.832 555.761L415.622 546.364L417.27 556.782L427.688 558.434L418.289 563.221L419.936 573.639Z" fill="#220DFF"/>
<path d="M349.733 498.313L342.277 490.853L332.878 495.639L337.668 486.242L330.211 478.783L340.629 480.435L345.419 471.038L347.067 481.456L357.484 483.108L348.085 487.895L349.733 498.313Z" fill="#220DFF"/>
<path d="M394.063 586.815L386.607 579.355L377.208 584.141L381.998 574.744L374.541 567.285L384.959 568.937L389.749 559.54L391.397 569.958L401.815 571.61L392.416 576.397L394.063 586.815Z" fill="#220DFF"/>
<path d="M323.86 511.489L316.404 504.029L307.004 508.815L311.795 499.418L304.338 491.958L314.756 493.611L319.546 484.214L321.194 494.632L331.611 496.284L322.212 501.07L323.86 511.489Z" fill="#220DFF"/>
<path d="M368.19 599.992L360.734 592.533L351.335 597.319L356.125 587.922L348.668 580.462L359.086 582.114L363.876 572.717L365.524 583.136L375.942 584.788L366.542 589.574L368.19 599.992Z" fill="#220DFF"/>
<path d="M297.987 524.664L290.53 517.204L281.131 521.991L285.922 512.594L278.465 505.134L288.883 506.786L293.673 497.389L295.321 507.807L305.738 509.46L296.339 514.246L297.987 524.664Z" fill="#220DFF"/>
<path d="M342.317 613.168L334.861 605.708L325.462 610.495L330.252 601.098L322.795 593.638L333.213 595.29L338.003 585.893L339.651 596.311L350.068 597.964L340.669 602.75L342.317 613.168Z" fill="#220DFF"/>
<path d="M272.114 537.84L264.657 530.38L255.258 535.167L260.049 525.77L252.592 518.31L263.01 519.962L267.8 510.565L269.448 520.983L279.865 522.635L270.466 527.422L272.114 537.84Z" fill="#220DFF"/>
<path d="M316.444 626.344L308.987 618.884L299.588 623.671L304.379 614.274L296.922 606.814L307.34 608.466L312.13 599.069L313.778 609.487L324.195 611.139L314.796 615.926L316.444 626.344Z" fill="#220DFF"/>
<path d="M246.829 550.717L239.372 543.257L229.973 548.044L234.764 538.647L227.307 531.187L237.724 532.839L242.515 523.442L244.163 533.86L254.58 535.512L245.181 540.299L246.829 550.717Z" fill="#220DFF"/>
<path d="M291.159 639.221L283.702 631.761L274.303 636.548L279.094 627.151L271.637 619.691L282.055 621.343L286.845 611.946L288.493 622.364L298.91 624.016L289.511 628.803L291.159 639.221Z" fill="#220DFF"/>
<path d="M876.697 283.412L851.542 234.018C843.898 237.911 840.925 234.982 839.3 234.698C837.675 234.415 833.964 231.492 832.178 229.439C830.749 227.797 827.597 221.898 826.2 219.154L537.377 372.535L538.126 374.005C539.479 377.389 542.282 385.366 542.672 390.203C543.159 396.249 538.632 402.628 536.28 403.826L523.049 410.563L540.755 445.331L546.258 456.136C546.258 456.136 557.36 453.178 563.958 455.267C571.168 457.551 575.3 460.999 578.806 467.7C582.841 475.411 583.085 482.087 579.413 489.977C576.919 495.337 569.166 501.12 569.166 501.12L576.166 514.865L593.872 549.632C596.422 548.58 602.17 546.295 604.761 545.568C608.001 544.658 615.539 546.373 619.843 549.736C623.286 552.425 627.227 557.207 628.767 559.261L925.316 413.054C925.216 412.858 924.628 411.849 923.075 409.381C921.134 406.297 920.514 402.17 920.481 397.743C920.455 394.202 925.02 386.298 927.306 382.789L898.707 326.632C898.707 326.632 891.211 328.503 886.764 327.901C881.595 327.201 875.142 323.064 870.746 316.805C866.433 310.663 866.379 304.834 867.947 297.495C869.3 291.163 876.697 283.412 876.697 283.412Z" fill="#FF3C00" stroke="#E2E2E2" stroke-width="5.68453"/>
<rect x="782.202" y="278.791" width="155.074" height="252.738" transform="rotate(63.012 782.202 278.791)" fill="#FF3C00" stroke="#E2E2E2" stroke-width="6.5989"/>
<path d="M728.474 356.508L721.017 349.048L711.618 353.835L716.408 344.438L708.952 336.978L719.369 338.63L724.159 329.233L725.807 339.651L736.225 341.303L726.826 346.09L728.474 356.508Z" fill="#34CF12"/>
<path d="M702.6 369.686L695.144 362.226L685.745 367.012L690.535 357.615L683.078 350.156L693.496 351.808L698.286 342.411L699.934 352.829L710.352 354.481L700.953 359.268L702.6 369.686Z" fill="#34CF12"/>
<path d="M676.727 382.862L669.271 375.402L659.872 380.188L664.662 370.791L657.205 363.331L667.623 364.984L672.413 355.587L674.061 366.005L684.479 367.657L675.08 372.443L676.727 382.862Z" fill="#34CF12"/>
<path d="M721.058 471.365L713.601 463.906L704.202 468.692L708.992 459.295L701.536 451.835L711.953 453.487L716.743 444.09L718.391 454.509L728.809 456.161L719.41 460.947L721.058 471.365Z" fill="#34CF12"/>
<path d="M650.854 396.037L643.398 388.577L633.999 393.364L638.789 383.967L631.332 376.507L641.75 378.159L646.54 368.762L648.188 379.18L658.606 380.833L649.207 385.619L650.854 396.037Z" fill="#34CF12"/>
<path d="M695.184 484.541L687.728 477.081L678.329 481.868L683.119 472.471L675.662 465.011L686.08 466.663L690.87 457.266L692.518 467.684L702.936 469.337L693.537 474.123L695.184 484.541Z" fill="#34CF12"/>
<path d="M624.979 409.215L617.523 401.755L608.124 406.542L612.914 397.145L605.457 389.685L615.875 391.337L620.665 381.94L622.313 392.358L632.731 394.01L623.332 398.797L624.979 409.215Z" fill="#34CF12"/>
<path d="M669.311 497.717L661.855 490.257L652.456 495.044L657.246 485.647L649.789 478.187L660.207 479.839L664.997 470.442L666.645 480.86L677.063 482.512L667.664 487.299L669.311 497.717Z" fill="#34CF12"/>
<path d="M599.696 422.09L592.239 414.63L582.84 419.417L587.631 410.02L580.174 402.56L590.592 404.212L595.382 394.815L597.03 405.233L607.447 406.885L598.048 411.672L599.696 422.09Z" fill="#34CF12"/>
<path d="M644.026 510.594L636.57 503.134L627.171 507.921L631.961 498.524L624.504 491.064L634.922 492.716L639.712 483.319L641.36 493.737L651.777 495.389L642.378 500.176L644.026 510.594Z" fill="#34CF12"/>
</svg>
