<svg width="1052" height="970" viewBox="0 0 1052 970" fill="none" xmlns="http://www.w3.org/2000/svg">
<path d="M-2.02117 127.73L-23.4454 178.853C-15.5335 182.169 -15.8466 186.33 -15.0119 187.753C-14.1773 189.176 -14.0093 193.898 -14.4209 196.587C-14.7502 198.739 -17.2129 204.957 -18.4032 207.797L285.33 329.001L285.968 327.48C287.675 324.26 291.948 316.964 295.387 313.54C299.685 309.259 307.478 308.59 309.913 309.61L323.606 315.349L338.686 279.365L343.373 268.182C343.373 268.182 333.938 261.623 331.267 255.238C328.348 248.261 328.308 242.88 331.155 235.873C334.43 227.81 339.365 223.308 347.758 221.008C353.46 219.446 362.884 221.623 362.884 221.623L368.846 207.397L383.926 171.413C381.475 170.147 376.015 167.239 373.785 165.732C370.997 163.849 367.432 156.989 367.215 151.531C367.041 147.166 368.142 141.068 368.714 138.565L65.4591 6.82887C65.3741 7.03173 64.9843 8.13244 64.1056 10.9123C63.0071 14.3872 60.2596 17.5288 56.9035 20.4153C54.2186 22.7244 45.2373 24.3507 41.0823 24.8752L16.725 82.9973C16.725 82.9973 22.9978 87.507 25.4135 91.2891C28.2218 95.6856 29.2369 103.283 27.3027 110.684C25.4052 117.944 20.9925 121.754 14.3796 125.302C8.67403 128.362 -2.02117 127.73 -2.02117 127.73Z" fill="#34CF12" stroke="#E2E2E2" stroke-width="5.68453"/>
<rect x="55.5409" y="202.812" width="155.074" height="252.738" transform="rotate(-67.2628 55.5409 202.812)" fill="#34CF12" stroke="#E2E2E2" stroke-width="6.5989"/>
<path d="M96.0105 171.119L95.1394 181.631L104.867 185.707L94.601 188.127L93.73 198.639L88.2561 189.623L77.9898 192.042L84.8731 184.05L79.3992 175.034L89.1272 179.111L96.0105 171.119Z" fill="#220DFF"/>
<path d="M134.878 80.0818L134.007 90.5934L143.735 94.6701L133.468 97.0899L132.597 107.602L127.123 98.5855L116.857 101.005L123.74 93.0132L118.266 83.9972L127.994 88.0739L134.878 80.0818Z" fill="#220DFF"/>
<path d="M122.79 182.342L121.919 192.853L131.647 196.93L121.38 199.35L120.509 209.861L115.035 200.845L104.769 203.265L111.652 195.273L106.179 186.257L115.906 190.334L122.79 182.342Z" fill="#220DFF"/>
<path d="M161.657 91.3064L160.786 101.818L170.514 105.895L160.248 108.315L159.376 118.826L153.903 109.81L143.636 112.23L150.52 104.238L145.046 95.2218L154.774 99.2985L161.657 91.3064Z" fill="#220DFF"/>
<path d="M149.569 193.564L148.698 204.076L158.426 208.153L148.16 210.572L147.289 221.084L141.815 212.068L131.548 214.488L138.432 206.496L132.958 197.48L142.686 201.556L149.569 193.564Z" fill="#220DFF"/>
<path d="M188.434 102.527L187.563 113.039L197.291 117.115L187.025 119.535L186.154 130.047L180.68 121.031L170.414 123.451L177.297 115.459L171.823 106.442L181.551 110.519L188.434 102.527Z" fill="#220DFF"/>
<path d="M176.348 204.785L175.477 215.297L185.205 219.373L174.939 221.793L174.068 232.305L168.594 223.289L158.328 225.708L165.211 217.716L159.737 208.7L169.465 212.777L176.348 204.785Z" fill="#220DFF"/>
<path d="M215.214 113.75L214.343 124.261L224.07 128.338L213.804 130.758L212.933 141.27L207.459 132.253L197.193 134.673L204.076 126.681L198.602 117.665L208.33 121.742L215.214 113.75Z" fill="#220DFF"/>
<path d="M203.126 216.008L202.255 226.519L211.983 230.596L201.716 233.016L200.845 243.527L195.371 234.511L185.105 236.931L191.988 228.939L186.514 219.923L196.242 224L203.126 216.008Z" fill="#220DFF"/>
<path d="M241.993 124.972L241.122 135.484L250.85 139.561L240.583 141.981L239.712 152.492L234.239 143.476L223.972 145.896L230.856 137.904L225.382 128.888L235.11 132.964L241.993 124.972Z" fill="#220DFF"/>
<path d="M229.905 227.23L229.034 237.742L238.762 241.819L228.496 244.238L227.624 254.75L222.151 245.734L211.884 248.154L218.768 240.162L213.294 231.146L223.022 235.222L229.905 227.23Z" fill="#220DFF"/>
<path d="M268.772 136.193L267.901 146.705L277.629 150.781L267.363 153.201L266.492 163.713L261.018 154.697L250.752 157.117L257.635 149.125L252.161 140.108L261.889 144.185L268.772 136.193Z" fill="#220DFF"/>
<path d="M256.684 238.453L255.813 248.965L265.541 253.041L255.275 255.461L254.404 265.973L248.93 256.957L238.664 259.376L245.547 251.384L240.073 242.368L249.801 246.445L256.684 238.453Z" fill="#220DFF"/>
<path d="M295.55 147.416L294.678 157.927L304.406 162.004L294.14 164.424L293.269 174.936L287.795 165.919L277.529 168.339L284.412 160.347L278.938 151.331L288.666 155.408L295.55 147.416Z" fill="#220DFF"/>
<path d="M282.854 249.42L281.983 259.931L291.711 264.008L281.445 266.428L280.574 276.939L275.1 267.923L264.834 270.343L271.717 262.351L266.243 253.335L275.971 257.412L282.854 249.42Z" fill="#220DFF"/>
<path d="M321.719 158.383L320.848 168.894L330.576 172.971L320.31 175.391L319.439 185.902L313.965 176.886L303.699 179.306L310.582 171.314L305.108 162.298L314.836 166.375L321.719 158.383Z" fill="#220DFF"/>
<path d="M328.08 308.714L306.656 359.837C314.568 363.153 314.255 367.315 315.09 368.738C315.924 370.161 316.092 374.882 315.681 377.571C315.351 379.723 312.889 385.941 311.698 388.781L615.432 509.986L616.069 508.464C617.776 505.244 622.05 497.949 625.488 494.524C629.787 490.244 637.58 489.574 640.014 490.595L653.708 496.333L668.788 460.349L673.474 449.166C673.474 449.166 664.04 442.607 661.369 436.223C658.45 429.246 658.41 423.864 661.256 416.857C664.531 408.794 669.466 404.293 677.86 401.993C683.562 400.43 692.986 402.608 692.986 402.608L698.947 388.381L714.027 352.397C711.576 351.132 706.117 348.224 703.887 346.717C701.099 344.833 697.534 337.973 697.317 332.516C697.143 328.15 698.243 322.052 698.815 319.549L395.561 187.813C395.476 188.016 395.086 189.117 394.207 191.897C393.109 195.372 390.361 198.513 387.005 201.4C384.32 203.709 375.339 205.335 371.184 205.86L346.827 263.982C346.827 263.982 353.099 268.491 355.515 272.273C358.323 276.67 359.338 284.267 357.404 291.668C355.507 298.928 351.094 302.738 344.481 306.286C338.776 309.347 328.08 308.714 328.08 308.714Z" fill="#220DFF" stroke="#E2E2E2" stroke-width="5.68453"/>
<rect x="385.643" y="383.799" width="155.074" height="252.738" transform="rotate(-67.2628 385.643 383.799)" fill="#220DFF" stroke="#E2E2E2" stroke-width="6.5989"/>
<path d="M426.112 352.105L425.241 362.617L434.969 366.694L424.703 369.113L423.832 379.625L418.358 370.609L408.091 373.029L414.975 365.037L409.501 356.021L419.229 360.097L426.112 352.105Z" fill="#34CF12"/>
<path d="M464.979 261.068L464.108 271.58L473.836 275.656L463.57 278.076L462.699 288.588L457.225 279.572L446.959 281.992L453.842 274L448.368 264.983L458.096 269.06L464.979 261.068Z" fill="#34CF12"/>
<path d="M452.891 363.328L452.02 373.84L461.748 377.916L451.482 380.336L450.611 390.848L445.137 381.832L434.871 384.251L441.754 376.259L436.28 367.243L446.008 371.32L452.891 363.328Z" fill="#34CF12"/>
<path d="M491.759 272.291L490.887 282.802L500.615 286.879L490.349 289.299L489.478 299.811L484.004 290.794L473.738 293.214L480.621 285.222L475.147 276.206L484.875 280.283L491.759 272.291Z" fill="#34CF12"/>
<path d="M479.671 374.551L478.8 385.062L488.527 389.139L478.261 391.559L477.39 402.07L471.916 393.054L461.65 395.474L468.533 387.482L463.059 378.466L472.787 382.543L479.671 374.551Z" fill="#34CF12"/>
<path d="M518.536 283.513L517.665 294.025L527.393 298.102L517.126 300.522L516.255 311.033L510.782 302.017L500.515 304.437L507.398 296.445L501.925 287.429L511.653 291.506L518.536 283.513Z" fill="#34CF12"/>
<path d="M506.45 385.771L505.579 396.283L515.307 400.36L505.04 402.779L504.169 413.291L498.696 404.275L488.429 406.695L495.313 398.703L489.839 389.687L499.567 393.763L506.45 385.771Z" fill="#34CF12"/>
<path d="M545.315 294.736L544.444 305.248L554.172 309.324L543.906 311.744L543.035 322.256L537.561 313.24L527.294 315.66L534.178 307.668L528.704 298.651L538.432 302.728L545.315 294.736Z" fill="#34CF12"/>
<path d="M533.227 396.994L532.356 407.506L542.084 411.582L531.818 414.002L530.947 424.514L525.473 415.498L515.207 417.917L522.09 409.925L516.616 400.909L526.344 404.986L533.227 396.994Z" fill="#34CF12"/>
<path d="M572.094 305.959L571.223 316.47L580.951 320.547L570.685 322.967L569.814 333.478L564.34 324.462L554.074 326.882L560.957 318.89L555.483 309.874L565.211 313.951L572.094 305.959Z" fill="#34CF12"/>
<path d="M560.007 408.217L559.135 418.728L568.863 422.805L558.597 425.225L557.726 435.736L552.252 426.72L541.986 429.14L548.869 421.148L543.395 412.132L553.123 416.209L560.007 408.217Z" fill="#34CF12"/>
<path d="M598.874 317.181L598.003 327.693L607.731 331.77L597.464 334.19L596.593 344.701L591.119 335.685L580.853 338.105L587.736 330.113L582.263 321.097L591.99 325.173L598.874 317.181Z" fill="#34CF12"/>
<path d="M586.786 419.439L585.915 429.951L595.643 434.028L585.376 436.447L584.505 446.959L579.032 437.943L568.765 440.363L575.648 432.371L570.175 423.355L579.903 427.431L586.786 419.439Z" fill="#34CF12"/>
<path d="M625.651 328.402L624.78 338.914L634.508 342.99L624.242 345.41L623.371 355.922L617.897 346.906L607.63 349.326L614.514 341.334L609.04 332.317L618.768 336.394L625.651 328.402Z" fill="#34CF12"/>
<path d="M612.956 430.406L612.085 440.918L621.813 444.994L611.546 447.414L610.675 457.926L605.201 448.91L594.935 451.33L601.818 443.337L596.345 434.321L606.073 438.398L612.956 430.406Z" fill="#34CF12"/>
<path d="M651.821 339.369L650.95 349.881L660.678 353.957L650.412 356.377L649.541 366.889L644.067 357.873L633.8 360.292L640.684 352.3L635.21 343.284L644.938 347.361L651.821 339.369Z" fill="#34CF12"/>
<path d="M654.766 494.253L633.342 545.376C641.254 548.692 640.941 552.854 641.775 554.277C642.61 555.7 642.778 560.421 642.366 563.11C642.037 565.262 639.574 571.48 638.384 574.32L942.117 695.525L942.755 694.003C944.462 690.783 948.736 683.488 952.174 680.063C956.472 675.783 964.265 675.113 966.7 676.134L980.393 681.872L995.473 645.888L1000.16 634.705C1000.16 634.705 990.725 628.146 988.054 621.762C985.136 614.785 985.096 609.403 987.942 602.396C991.217 594.333 996.152 589.832 1004.55 587.532C1010.25 585.97 1019.67 588.147 1019.67 588.147L1025.63 573.92L1040.71 537.936C1038.26 536.671 1032.8 533.763 1030.57 532.256C1027.78 530.372 1024.22 523.512 1024 518.055C1023.83 513.689 1024.93 507.591 1025.5 505.088L722.246 373.352C722.161 373.555 721.771 374.656 720.893 377.436C719.794 380.911 717.047 384.052 713.691 386.939C711.006 389.248 702.024 390.874 697.869 391.399L673.512 449.521C673.512 449.521 679.785 454.03 682.201 457.812C685.009 462.209 686.024 469.807 684.09 477.207C682.192 484.468 677.78 488.277 671.167 491.825C665.461 494.886 654.766 494.253 654.766 494.253Z" fill="#FF3C00" stroke="#E2E2E2" stroke-width="5.68453"/>
<rect x="712.33" y="569.338" width="155.074" height="252.738" transform="rotate(-67.2628 712.33 569.338)" fill="#FF3C00" stroke="#E2E2E2" stroke-width="6.5989"/>
<path d="M752.801 537.644L751.93 548.156L761.658 552.233L751.392 554.652L750.521 565.164L745.047 556.148L734.781 558.568L741.664 550.576L736.19 541.56L745.918 545.636L752.801 537.644Z" fill="#220DFF"/>
<path d="M791.667 446.607L790.796 457.119L800.524 461.196L790.257 463.615L789.386 474.127L783.912 465.111L773.646 467.531L780.529 459.539L775.055 450.523L784.783 454.599L791.667 446.607Z" fill="#220DFF"/>
<path d="M779.579 548.867L778.708 559.379L788.436 563.455L778.169 565.875L777.298 576.387L771.824 567.371L761.558 569.79L768.441 561.798L762.968 552.782L772.696 556.859L779.579 548.867Z" fill="#220DFF"/>
<path d="M818.446 457.83L817.575 468.341L827.303 472.418L817.037 474.838L816.166 485.35L810.692 476.334L800.425 478.753L807.309 470.761L801.835 461.745L811.563 465.822L818.446 457.83Z" fill="#220DFF"/>
<path d="M806.358 560.09L805.487 570.601L815.215 574.678L804.949 577.098L804.078 587.609L798.604 578.593L788.337 581.013L795.221 573.021L789.747 564.005L799.475 568.082L806.358 560.09Z" fill="#220DFF"/>
<path d="M845.223 469.053L844.352 479.564L854.08 483.641L843.814 486.061L842.943 496.572L837.469 487.556L827.203 489.976L834.086 481.984L828.612 472.968L838.34 477.045L845.223 469.053Z" fill="#220DFF"/>
<path d="M833.137 571.31L832.266 581.822L841.994 585.899L831.728 588.318L830.857 598.83L825.383 589.814L815.117 592.234L822 584.242L816.526 575.226L826.254 579.302L833.137 571.31Z" fill="#220DFF"/>
<path d="M872.003 480.275L871.132 490.787L880.86 494.863L870.593 497.283L869.722 507.795L864.248 498.779L853.982 501.199L860.865 493.207L855.391 484.191L865.119 488.267L872.003 480.275Z" fill="#220DFF"/>
<path d="M859.915 582.533L859.044 593.045L868.772 597.121L858.505 599.541L857.634 610.053L852.16 601.037L841.894 603.456L848.777 595.464L843.304 586.448L853.031 590.525L859.915 582.533Z" fill="#220DFF"/>
<path d="M898.782 491.498L897.911 502.009L907.639 506.086L897.373 508.506L896.501 519.018L891.028 510.001L880.761 512.421L887.645 504.429L882.171 495.413L891.899 499.49L898.782 491.498Z" fill="#220DFF"/>
<path d="M886.694 593.756L885.823 604.267L895.551 608.344L885.285 610.764L884.414 621.275L878.94 612.259L868.673 614.679L875.557 606.687L870.083 597.671L879.811 601.748L886.694 593.756Z" fill="#220DFF"/>
<path d="M925.561 502.719L924.69 513.23L934.418 517.307L924.152 519.727L923.281 530.238L917.807 521.222L907.541 523.642L914.424 515.65L908.95 506.634L918.678 510.711L925.561 502.719Z" fill="#220DFF"/>
<path d="M913.473 604.978L912.602 615.49L922.33 619.567L912.064 621.986L911.193 632.498L905.719 623.482L895.453 625.902L902.336 617.91L896.862 608.894L906.59 612.97L913.473 604.978Z" fill="#220DFF"/>
<path d="M952.339 513.941L951.468 524.453L961.195 528.529L950.929 530.949L950.058 541.461L944.584 532.445L934.318 534.865L941.201 526.873L935.727 517.857L945.455 521.933L952.339 513.941Z" fill="#220DFF"/>
<path d="M939.643 615.945L938.772 626.457L948.5 630.533L938.234 632.953L937.363 643.465L931.889 634.449L921.623 636.869L928.506 628.877L923.032 619.86L932.76 623.937L939.643 615.945Z" fill="#220DFF"/>
<path d="M978.509 524.908L977.637 535.42L987.365 539.496L977.099 541.916L976.228 552.428L970.754 543.412L960.488 545.831L967.371 537.839L961.897 528.823L971.625 532.9L978.509 524.908Z" fill="#220DFF"/>
<path d="M-60.0739 378.15L-81.4981 429.273C-73.5862 432.589 -73.8993 436.75 -73.0647 438.173C-72.23 439.596 -72.062 444.317 -72.4736 447.007C-72.8029 449.159 -75.2657 455.377 -76.4559 458.217L227.277 579.421L227.915 577.9C229.622 574.68 233.896 567.384 237.334 563.96C241.632 559.679 249.425 559.01 251.86 560.03L265.553 565.769L280.633 529.785L285.32 518.602C285.32 518.602 275.886 512.043 273.215 505.658C270.296 498.681 270.256 493.299 273.102 486.293C276.377 478.23 281.312 473.728 289.706 471.428C295.407 469.866 304.831 472.043 304.831 472.043L310.793 457.817L325.873 421.833C323.422 420.567 317.963 417.659 315.732 416.152C312.944 414.268 309.38 407.408 309.162 401.951C308.989 397.585 310.089 391.488 310.661 388.985L7.40635 257.249C7.32134 257.452 6.93161 258.552 6.05283 261.332C4.95436 264.807 2.20684 267.949 -1.14928 270.835C-3.83418 273.144 -12.8154 274.771 -16.9704 275.295L-41.3277 333.417C-41.3277 333.417 -35.0549 337.927 -32.6392 341.709C-29.831 346.106 -28.8158 353.703 -30.75 361.103C-32.6476 368.364 -37.0603 372.174 -43.6732 375.722C-49.3787 378.782 -60.0739 378.15 -60.0739 378.15Z" fill="#220DFF" stroke="#E2E2E2" stroke-width="5.68453"/>
<rect x="-2.51179" y="453.234" width="155.074" height="252.738" transform="rotate(-67.2628 -2.51179 453.234)" fill="#220DFF" stroke="#E2E2E2" stroke-width="6.5989"/>
<path d="M37.9577 421.541L37.0867 432.052L46.8146 436.129L36.5483 438.549L35.6772 449.061L30.2034 440.044L19.9371 442.464L26.8204 434.472L21.3465 425.456L31.0745 429.533L37.9577 421.541Z" fill="#34CF12"/>
<path d="M76.8249 330.504L75.9538 341.015L85.6818 345.092L75.4155 347.512L74.5444 358.023L69.0706 349.007L58.8043 351.427L65.6875 343.435L60.2137 334.419L69.9416 338.496L76.8249 330.504Z" fill="#34CF12"/>
<path d="M64.737 432.763L63.866 443.275L73.5939 447.352L63.3276 449.772L62.4565 460.283L56.9827 451.267L46.7164 453.687L53.5996 445.695L48.1258 436.679L57.8538 440.756L64.737 432.763Z" fill="#34CF12"/>
<path d="M103.604 341.726L102.733 352.238L112.461 356.315L102.195 358.734L101.324 369.246L95.8499 360.23L85.5836 362.65L92.4668 354.658L86.993 345.642L96.7209 349.718L103.604 341.726Z" fill="#34CF12"/>
<path d="M91.5163 443.986L90.6453 454.498L100.373 458.574L90.1069 460.994L89.2358 471.506L83.762 462.49L73.4957 464.91L80.3789 456.918L74.9051 447.901L84.633 451.978L91.5163 443.986Z" fill="#34CF12"/>
<path d="M130.382 352.949L129.51 363.461L139.238 367.537L128.972 369.957L128.101 380.469L122.627 371.453L112.361 373.872L119.244 365.88L113.77 356.864L123.498 360.941L130.382 352.949Z" fill="#34CF12"/>
<path d="M118.296 455.207L117.425 465.718L127.152 469.795L116.886 472.215L116.015 482.727L110.541 473.71L100.275 476.13L107.158 468.138L101.684 459.122L111.412 463.199L118.296 455.207Z" fill="#34CF12"/>
<path d="M157.161 364.172L156.29 374.683L166.018 378.76L155.751 381.18L154.88 391.691L149.407 382.675L139.14 385.095L146.023 377.103L140.55 368.087L150.278 372.164L157.161 364.172Z" fill="#34CF12"/>
<path d="M145.073 466.429L144.202 476.941L153.93 481.018L143.664 483.438L142.792 493.949L137.319 484.933L127.052 487.353L133.936 479.361L128.462 470.345L138.19 474.422L145.073 466.429Z" fill="#34CF12"/>
<path d="M183.94 375.394L183.069 385.906L192.797 389.983L182.531 392.402L181.66 402.914L176.186 393.898L165.919 396.318L172.803 388.326L167.329 379.31L177.057 383.386L183.94 375.394Z" fill="#34CF12"/>
<path d="M171.852 477.652L170.981 488.164L180.709 492.24L170.443 494.66L169.572 505.172L164.098 496.156L153.832 498.576L160.715 490.584L155.241 481.567L164.969 485.644L171.852 477.652Z" fill="#34CF12"/>
<path d="M210.719 386.615L209.848 397.127L219.576 401.203L209.31 403.623L208.439 414.135L202.965 405.119L192.699 407.538L199.582 399.546L194.108 390.53L203.836 394.607L210.719 386.615Z" fill="#34CF12"/>
<path d="M198.632 488.875L197.76 499.386L207.488 503.463L197.222 505.883L196.351 516.395L190.877 507.378L180.611 509.798L187.494 501.806L182.02 492.79L191.748 496.867L198.632 488.875Z" fill="#34CF12"/>
<path d="M237.497 397.838L236.626 408.349L246.354 412.426L236.087 414.846L235.216 425.357L229.742 416.341L219.476 418.761L226.359 410.769L220.886 401.753L230.614 405.83L237.497 397.838Z" fill="#34CF12"/>
<path d="M224.801 499.842L223.93 510.353L233.658 514.43L223.392 516.85L222.521 527.361L217.047 518.345L206.781 520.765L213.664 512.773L208.19 503.757L217.918 507.834L224.801 499.842Z" fill="#34CF12"/>
<path d="M263.667 408.804L262.796 419.316L272.524 423.393L262.257 425.813L261.386 436.324L255.912 427.308L245.646 429.728L252.529 421.736L247.055 412.72L256.783 416.797L263.667 408.804Z" fill="#34CF12"/>
<path d="M267.752 564.828L246.328 615.951C254.24 619.266 253.927 623.428 254.762 624.851C255.596 626.274 255.764 630.995 255.353 633.685C255.023 635.836 252.56 642.054 251.37 644.895L555.103 766.099L555.741 764.577C557.448 761.358 561.722 754.062 565.16 750.637C569.458 746.357 577.252 745.688 579.686 746.708L593.38 752.446L608.46 716.462L613.146 705.279C613.146 705.279 603.712 698.721 601.041 692.336C598.122 685.359 598.082 679.977 600.928 672.97C604.203 664.907 609.138 660.406 617.532 658.106C623.233 656.544 632.657 658.721 632.657 658.721L638.619 644.495L653.699 608.511C651.248 607.245 645.789 604.337 643.559 602.83C640.77 600.946 637.206 594.086 636.989 588.629C636.815 584.263 637.915 578.166 638.487 575.663L335.233 443.927C335.148 444.129 334.758 445.23 333.879 448.01C332.781 451.485 330.033 454.626 326.677 457.513C323.992 459.822 315.011 461.448 310.856 461.973L286.498 520.095C286.498 520.095 292.771 524.605 295.187 528.387C297.995 532.783 299.01 540.381 297.076 547.781C295.179 555.042 290.766 558.852 284.153 562.399C278.447 565.46 267.752 564.828 267.752 564.828Z" fill="#FF3C00" stroke="#E2E2E2" stroke-width="5.68453"/>
<rect x="325.314" y="639.912" width="155.074" height="252.738" transform="rotate(-67.2628 325.314 639.912)" fill="#FF3C00" stroke="#E2E2E2" stroke-width="6.5989"/>
<path d="M365.784 608.219L364.913 618.73L374.641 622.807L364.374 625.227L363.503 635.738L358.03 626.722L347.763 629.142L354.647 621.15L349.173 612.134L358.901 616.211L365.784 608.219Z" fill="#34CF12"/>
<path d="M404.651 517.181L403.78 527.693L413.508 531.77L403.242 534.19L402.371 544.701L396.897 535.685L386.63 538.105L393.514 530.113L388.04 521.097L397.768 525.173L404.651 517.181Z" fill="#34CF12"/>
<path d="M392.563 619.441L391.692 629.953L401.42 634.029L391.154 636.449L390.283 646.961L384.809 637.945L374.543 640.365L381.426 632.373L375.952 623.357L385.68 627.433L392.563 619.441Z" fill="#34CF12"/>
<path d="M431.43 528.404L430.559 538.916L440.287 542.992L430.021 545.412L429.15 555.924L423.676 546.908L413.41 549.328L420.293 541.335L414.819 532.319L424.547 536.396L431.43 528.404Z" fill="#34CF12"/>
<path d="M419.343 630.662L418.471 641.173L428.199 645.25L417.933 647.67L417.062 658.182L411.588 649.166L401.322 651.585L408.205 643.593L402.731 634.577L412.459 638.654L419.343 630.662Z" fill="#34CF12"/>
<path d="M458.208 539.627L457.337 550.138L467.065 554.215L456.798 556.635L455.927 567.146L450.453 558.13L440.187 560.55L447.07 552.558L441.597 543.542L451.324 547.619L458.208 539.627Z" fill="#34CF12"/>
<path d="M446.122 641.885L445.251 652.396L454.979 656.473L444.712 658.893L443.841 669.404L438.367 660.388L428.101 662.808L434.984 654.816L429.511 645.8L439.239 649.877L446.122 641.885Z" fill="#34CF12"/>
<path d="M484.987 550.849L484.116 561.361L493.844 565.438L483.578 567.858L482.707 578.369L477.233 569.353L466.966 571.773L473.85 563.781L468.376 554.765L478.104 558.841L484.987 550.849Z" fill="#34CF12"/>
<path d="M472.899 653.107L472.028 663.619L481.756 667.696L471.49 670.115L470.619 680.627L465.145 671.611L454.878 674.031L461.762 666.039L456.288 657.023L466.016 661.099L472.899 653.107Z" fill="#34CF12"/>
<path d="M511.766 562.072L510.895 572.584L520.623 576.66L510.357 579.08L509.486 589.592L504.012 580.576L493.746 582.996L500.629 575.003L495.155 565.987L504.883 570.064L511.766 562.072Z" fill="#34CF12"/>
<path d="M499.678 664.33L498.807 674.841L508.535 678.918L498.269 681.338L497.398 691.85L491.924 682.834L481.658 685.253L488.541 677.261L483.067 668.245L492.795 672.322L499.678 664.33Z" fill="#34CF12"/>
<path d="M538.546 573.293L537.675 583.804L547.402 587.881L537.136 590.301L536.265 600.812L530.791 591.796L520.525 594.216L527.408 586.224L521.934 577.208L531.662 581.285L538.546 573.293Z" fill="#34CF12"/>
<path d="M526.458 675.551L525.587 686.062L535.315 690.139L525.048 692.559L524.177 703.07L518.703 694.054L508.437 696.474L515.32 688.482L509.847 679.466L519.574 683.543L526.458 675.551Z" fill="#34CF12"/>
<path d="M565.323 584.515L564.452 595.027L574.18 599.104L563.914 601.524L563.042 612.035L557.569 603.019L547.302 605.439L554.186 597.447L548.712 588.431L558.44 592.507L565.323 584.515Z" fill="#34CF12"/>
<path d="M552.628 686.519L551.757 697.031L561.485 701.108L551.218 703.527L550.347 714.039L544.873 705.023L534.607 707.443L541.49 699.451L536.016 690.435L545.744 694.511L552.628 686.519Z" fill="#34CF12"/>
<path d="M591.493 595.482L590.622 605.994L600.35 610.071L590.083 612.49L589.212 623.002L583.739 613.986L573.472 616.406L580.356 608.414L574.882 599.398L584.61 603.474L591.493 595.482Z" fill="#34CF12"/>
<path d="M594.438 751.505L573.014 802.628C580.926 805.944 580.612 810.106 581.447 811.529C582.282 812.952 582.45 817.673 582.038 820.362C581.709 822.514 579.246 828.732 578.056 831.572L881.789 952.777L882.427 951.255C884.134 948.035 888.407 940.74 891.846 937.315C896.144 933.035 903.937 932.365 906.372 933.386L920.065 939.124L935.145 903.14L939.832 891.957C939.832 891.957 930.397 885.398 927.726 879.014C924.807 872.037 924.767 866.655 927.614 859.648C930.889 851.585 935.824 847.084 944.217 844.784C949.919 843.222 959.343 845.399 959.343 845.399L965.305 831.172L980.385 795.188C977.934 793.923 972.474 791.015 970.244 789.508C967.456 787.624 963.891 780.764 963.674 775.307C963.5 770.941 964.601 764.843 965.173 762.34L661.918 630.604C661.833 630.807 661.443 631.908 660.565 634.688C659.466 638.163 656.719 641.304 653.362 644.191C650.678 646.5 641.696 648.126 637.541 648.651L613.184 706.773C613.184 706.773 619.457 711.282 621.873 715.064C624.681 719.461 625.696 727.058 623.762 734.459C621.864 741.719 617.451 745.529 610.839 749.077C605.133 752.138 594.438 751.505 594.438 751.505Z" fill="#34CF12" stroke="#E2E2E2" stroke-width="5.68453"/>
<rect x="652" y="826.59" width="155.074" height="252.738" transform="rotate(-67.2628 652 826.59)" fill="#34CF12" stroke="#E2E2E2" stroke-width="6.5989"/>
<path d="M692.469 794.896L691.598 805.408L701.326 809.485L691.06 811.904L690.189 822.416L684.715 813.4L674.449 815.82L681.332 807.828L675.858 798.812L685.586 802.888L692.469 794.896Z" fill="#220DFF"/>
<path d="M731.337 703.859L730.466 714.371L740.194 718.447L729.927 720.867L729.056 731.379L723.582 722.363L713.316 724.783L720.199 716.791L714.725 707.775L724.453 711.851L731.337 703.859Z" fill="#220DFF"/>
<path d="M719.249 806.119L718.378 816.631L728.106 820.707L717.839 823.127L716.968 833.639L711.494 824.623L701.228 827.042L708.111 819.05L702.638 810.034L712.365 814.111L719.249 806.119Z" fill="#220DFF"/>
<path d="M758.116 715.082L757.245 725.593L766.973 729.67L756.707 732.09L755.835 742.602L750.362 733.585L740.095 736.005L746.979 728.013L741.505 718.997L751.233 723.074L758.116 715.082Z" fill="#220DFF"/>
<path d="M746.028 817.34L745.157 827.851L754.885 831.928L744.619 834.348L743.748 844.859L738.274 835.843L728.007 838.263L734.891 830.271L729.417 821.255L739.145 825.332L746.028 817.34Z" fill="#220DFF"/>
<path d="M784.893 726.304L784.022 736.816L793.75 740.893L783.484 743.313L782.613 753.824L777.139 744.808L766.873 747.228L773.756 739.236L768.282 730.22L778.01 734.297L784.893 726.304Z" fill="#220DFF"/>
<path d="M772.807 828.562L771.936 839.074L781.664 843.151L771.398 845.57L770.527 856.082L765.053 847.066L754.787 849.486L761.67 841.494L756.196 832.478L765.924 836.554L772.807 828.562Z" fill="#220DFF"/>
<path d="M811.673 737.527L810.802 748.039L820.529 752.115L810.263 754.535L809.392 765.047L803.918 756.031L793.652 758.451L800.535 750.459L795.061 741.442L804.789 745.519L811.673 737.527Z" fill="#220DFF"/>
<path d="M799.585 839.785L798.714 850.297L808.442 854.373L798.175 856.793L797.304 867.305L791.83 858.289L781.564 860.708L788.447 852.716L782.973 843.7L792.701 847.777L799.585 839.785Z" fill="#220DFF"/>
<path d="M838.452 748.75L837.581 759.261L847.309 763.338L837.042 765.758L836.171 776.27L830.698 767.253L820.431 769.673L827.314 761.681L821.841 752.665L831.569 756.742L838.452 748.75Z" fill="#220DFF"/>
<path d="M826.364 851.008L825.493 861.519L835.221 865.596L824.955 868.016L824.083 878.527L818.61 869.511L808.343 871.931L815.227 863.939L809.753 854.923L819.481 859L826.364 851.008Z" fill="#220DFF"/>
<path d="M865.231 759.97L864.36 770.482L874.088 774.559L863.822 776.979L862.951 787.49L857.477 778.474L847.211 780.894L854.094 772.902L848.62 763.886L858.348 767.963L865.231 759.97Z" fill="#220DFF"/>
<path d="M853.143 862.23L852.272 872.742L862 876.819L851.734 879.238L850.863 889.75L845.389 880.734L835.123 883.154L842.006 875.162L836.532 866.146L846.26 870.222L853.143 862.23Z" fill="#220DFF"/>
<path d="M892.009 771.193L891.137 781.705L900.865 785.781L890.599 788.201L889.728 798.713L884.254 789.697L873.988 792.117L880.871 784.125L875.397 775.108L885.125 779.185L892.009 771.193Z" fill="#220DFF"/>
<path d="M879.313 873.197L878.442 883.709L888.17 887.785L877.904 890.205L877.033 900.717L871.559 891.701L861.293 894.121L868.176 886.128L862.702 877.112L872.43 881.189L879.313 873.197Z" fill="#220DFF"/>
<path d="M918.178 782.16L917.307 792.672L927.035 796.748L916.769 799.168L915.898 809.68L910.424 800.664L900.158 803.083L907.041 795.091L901.567 786.075L911.295 790.152L918.178 782.16Z" fill="#220DFF"/>
<path d="M45.5192 150.364L36.2927 135.26C34.1956 135.048 32.7525 135.056 31.9633 135.286C31.1609 135.483 30.5222 136.148 30.047 137.282C29.6289 138.28 29.6372 139.31 30.0719 140.371C30.5161 141.411 31.1904 142.346 32.0947 143.179C33.0084 143.988 34.2115 144.839 35.7039 145.731C37.1736 146.613 38.5065 147.345 39.7025 147.926C40.9081 148.485 42.2705 149.083 43.7899 149.719L45.5192 150.364ZM45.1058 137.514L54.4025 152.927C56.3029 153.164 57.7508 153.144 58.7462 152.868C59.7417 152.592 60.4722 151.898 60.9379 150.787C61.299 149.925 61.4085 149.092 61.2664 148.286C61.1112 147.447 60.6882 146.644 59.9975 145.874C59.3069 145.105 58.5489 144.401 57.7237 143.762C56.908 143.1 55.8322 142.422 54.4964 141.729C53.1379 141.027 51.9079 140.431 50.8062 139.943C49.714 139.432 48.3742 138.844 46.7868 138.179L45.1058 137.514ZM23.0343 134.263C23.9371 132.109 25.1615 130.396 26.7075 129.124C28.2629 127.83 29.9527 126.978 31.7769 126.57C33.5783 126.152 35.6099 126.043 37.8716 126.245C40.1106 126.436 42.2754 126.837 44.3661 127.447C46.4662 128.033 48.6728 128.812 50.9859 129.781C53.367 130.779 55.5418 131.823 57.5104 132.915C59.4563 133.997 61.3394 135.293 63.1596 136.802C64.9666 138.279 66.3867 139.821 67.4199 141.427C68.4531 143.033 69.0716 144.865 69.2755 146.923C69.4793 148.981 69.1203 151.11 68.1985 153.31C67.2482 155.578 66.015 157.407 64.4991 158.798C62.9831 160.189 61.3602 161.135 59.6305 161.636C57.9102 162.115 55.9599 162.284 53.7794 162.144C51.5857 161.971 49.4502 161.596 47.3727 161.018C45.3048 160.418 43.0689 159.615 40.6651 158.607C38.919 157.875 37.3052 157.146 35.8239 156.418C34.3293 155.659 32.8227 154.801 31.304 153.844C29.7948 152.865 28.4662 151.869 27.3183 150.855C26.1704 149.84 25.1524 148.707 24.2641 147.455C23.3531 146.194 22.6938 144.904 22.286 143.587C21.8878 142.247 21.7404 140.786 21.8439 139.203C21.9247 137.61 22.3215 135.964 23.0343 134.263ZM37.947 97.7235L42.9274 90.1332L86.6718 108.465L82.994 117.241L50.2422 103.596C52.8181 108.328 54.368 112.963 54.8921 117.501L45.56 119.349C45.4022 116.99 45.0363 114.651 44.4623 112.331C43.8751 109.979 43.2587 108.014 42.6132 106.437C41.9772 104.838 41.2871 103.336 40.5428 101.931C39.7854 100.493 39.2172 99.4955 38.8382 98.9368C38.4365 98.3686 38.1394 97.9641 37.947 97.7235Z" fill="#E2E2E2"/>
<path d="M375.621 331.35L366.394 316.247C364.297 316.034 362.854 316.043 362.065 316.272C361.263 316.469 360.624 317.134 360.149 318.268C359.73 319.266 359.739 320.296 360.173 321.358C360.618 322.397 361.292 323.333 362.196 324.165C363.11 324.974 364.313 325.825 365.805 326.717C367.275 327.6 368.608 328.332 369.804 328.913C371.01 329.471 372.372 330.069 373.891 330.706L375.621 331.35ZM375.207 318.5L384.504 333.913C386.404 334.15 387.852 334.13 388.848 333.854C389.843 333.578 390.574 332.885 391.039 331.773C391.401 330.912 391.51 330.078 391.368 329.272C391.213 328.434 390.79 327.63 390.099 326.861C389.408 326.091 388.65 325.387 387.825 324.748C387.01 324.086 385.934 323.409 384.598 322.716C383.239 322.013 382.009 321.418 380.908 320.929C379.816 320.418 378.476 319.83 376.888 319.165L375.207 318.5ZM353.136 315.249C354.039 313.095 355.263 311.382 356.809 310.11C358.364 308.816 360.054 307.965 361.878 307.556C363.68 307.138 365.711 307.03 367.973 307.231C370.212 307.423 372.377 307.823 374.468 308.433C376.568 309.02 378.774 309.798 381.087 310.767C383.469 311.765 385.643 312.81 387.612 313.901C389.558 314.983 391.441 316.279 393.261 317.788C395.068 319.265 396.488 320.807 397.521 322.413C398.555 324.019 399.173 325.851 399.377 327.909C399.581 329.968 399.222 332.097 398.3 334.296C397.35 336.564 396.117 338.393 394.601 339.784C393.085 341.175 391.462 342.121 389.732 342.623C388.012 343.101 386.061 343.271 383.881 343.13C381.687 342.957 379.552 342.582 377.474 342.005C375.406 341.405 373.17 340.601 370.767 339.594C369.021 338.862 367.407 338.132 365.925 337.405C364.431 336.645 362.924 335.787 361.406 334.831C359.896 333.852 358.568 332.855 357.42 331.841C356.272 330.827 355.254 329.693 354.366 328.441C353.455 327.18 352.795 325.891 352.388 324.573C351.989 323.233 351.842 321.772 351.945 320.189C352.026 318.597 352.423 316.95 353.136 315.249ZM394.908 308.801L398.486 300.263C400.278 301.014 401.776 301.002 402.98 300.227C404.162 299.442 405.095 298.234 405.779 296.601C406.596 294.651 406.622 292.809 405.856 291.075C405.076 289.308 403.836 288.069 402.135 287.356C400.435 286.643 399.007 286.392 397.853 286.601C396.686 286.779 395.522 287.264 394.363 288.058C392.318 289.44 390.615 291.753 389.256 294.996L382.453 292.145L382.681 291.6C383.67 289.242 383.957 287.03 383.543 284.963C383.139 282.874 381.894 281.393 379.807 280.518C378.651 280.034 377.531 280.098 376.448 280.71C375.374 281.3 374.51 282.377 373.854 283.942C372.799 286.459 373.562 289.218 376.143 292.22L368.567 297.322C368.391 297.169 368.151 296.882 367.848 296.461C367.531 296.008 367.152 295.29 366.712 294.305C366.258 293.289 365.915 292.199 365.683 291.035C365.46 289.849 365.44 288.401 365.624 286.691C365.794 284.95 366.254 283.183 367.005 281.392L367.162 281.017C368.036 278.931 368.976 277.166 369.981 275.721C370.996 274.253 372.146 273.069 373.43 272.167C374.701 271.234 376.127 270.725 377.708 270.641C379.299 270.535 381.013 270.866 382.85 271.636C385.004 272.539 386.803 274.132 388.245 276.416C389.674 278.668 390.191 280.711 389.795 282.545C392.044 279.915 394.536 278.293 397.273 277.68C400.018 277.045 402.877 277.349 405.847 278.594C408.138 279.554 409.885 280.633 411.089 281.831C412.271 283.019 413.27 284.611 414.087 286.606C415.536 290.146 415.149 294.569 412.925 299.876C410.996 304.479 408.421 307.506 405.201 308.955C401.99 310.383 398.559 310.331 394.908 308.801Z" fill="#E2E2E2"/>
<path d="M702.306 516.891L693.08 501.788C690.983 501.575 689.54 501.584 688.75 501.813C687.948 502.01 687.309 502.675 686.834 503.809C686.416 504.807 686.424 505.837 686.859 506.899C687.303 507.938 687.978 508.874 688.882 509.706C689.796 510.515 690.999 511.366 692.491 512.258C693.961 513.141 695.294 513.873 696.49 514.454C697.695 515.012 699.058 515.61 700.577 516.247L702.306 516.891ZM701.893 504.041L711.19 519.454C713.09 519.691 714.538 519.671 715.533 519.395C716.529 519.119 717.259 518.426 717.725 517.315C718.086 516.453 718.196 515.619 718.054 514.813C717.898 513.975 717.475 513.171 716.785 512.402C716.094 511.632 715.336 510.928 714.511 510.289C713.695 509.627 712.619 508.95 711.284 508.257C709.925 507.554 708.695 506.959 707.593 506.47C706.501 505.959 705.161 505.371 703.574 504.706L701.893 504.041ZM679.821 500.79C680.724 498.636 681.949 496.923 683.495 495.651C685.05 494.357 686.74 493.506 688.564 493.097C690.365 492.679 692.397 492.571 694.659 492.772C696.898 492.964 699.063 493.364 701.153 493.974C703.253 494.561 705.46 495.339 707.773 496.308C710.154 497.306 712.329 498.351 714.298 499.442C716.243 500.524 718.126 501.82 719.947 503.329C721.754 504.806 723.174 506.348 724.207 507.954C725.24 509.56 725.859 511.392 726.063 513.45C726.266 515.509 725.907 517.638 724.986 519.837C724.035 522.105 722.802 523.934 721.286 525.325C719.77 526.716 718.147 527.662 716.418 528.164C714.697 528.642 712.747 528.812 710.566 528.671C708.373 528.498 706.237 528.123 704.16 527.546C702.092 526.946 699.856 526.142 697.452 525.135C695.706 524.403 694.092 523.673 692.611 522.946C691.116 522.186 689.61 521.328 688.091 520.372C686.582 519.393 685.253 518.396 684.105 517.382C682.958 516.368 681.939 515.234 681.051 513.982C680.14 512.721 679.481 511.432 679.073 510.114C678.675 508.774 678.528 507.313 678.631 505.73C678.712 504.138 679.109 502.491 679.821 500.79ZM714.816 474.826C713.742 477.389 714.072 480.006 715.804 482.678C715.853 482.752 715.884 482.805 715.898 482.837L710.468 488.16L690.574 477.423L700.278 454.457L706.965 457.3L700.707 472.232L707.248 475.613C707.401 474.611 707.849 473.226 708.59 471.457C709.787 468.6 711.167 466.485 712.728 465.113C713.783 464.249 714.806 463.558 715.796 463.04C716.773 462.49 717.977 462.034 719.408 461.674C720.825 461.282 722.441 461.212 724.254 461.466C726.077 461.696 728.043 462.254 730.152 463.137C732.76 464.23 734.897 465.619 736.563 467.304C738.217 468.957 739.341 470.761 739.934 472.716C740.515 474.638 740.72 476.631 740.549 478.692C740.388 480.73 739.877 482.809 739.016 484.927L738.987 484.995C736.307 491.39 731.73 494.804 725.257 495.238L724.766 485.914C726.335 485.985 727.754 485.686 729.02 485.018C730.287 484.349 731.205 483.334 731.776 481.973C732.118 481.157 732.293 480.324 732.303 479.475C732.322 478.603 732.158 477.721 731.812 476.83C731.452 475.906 730.809 475.023 729.882 474.182C728.955 473.34 727.778 472.62 726.349 472.021C723.718 470.919 721.332 470.665 719.19 471.26C717.025 471.846 715.567 473.035 714.816 474.826Z" fill="#E2E2E2"/>
<path d="M315.291 587.464L306.064 572.36C303.967 572.148 302.524 572.156 301.735 572.385C300.932 572.582 300.294 573.248 299.819 574.381C299.4 575.379 299.409 576.409 299.843 577.471C300.288 578.51 300.962 579.446 301.866 580.278C302.78 581.088 303.983 581.938 305.475 582.831C306.945 583.713 308.278 584.445 309.474 585.026C310.68 585.585 312.042 586.182 313.561 586.819L315.291 587.464ZM314.877 574.614L324.174 590.027C326.074 590.263 327.522 590.244 328.518 589.968C329.513 589.692 330.244 588.998 330.709 587.887C331.071 587.025 331.18 586.191 331.038 585.385C330.883 584.547 330.46 583.743 329.769 582.974C329.078 582.205 328.32 581.5 327.495 580.861C326.679 580.199 325.604 579.522 324.268 578.829C322.909 578.126 321.679 577.531 320.578 577.043C319.485 576.532 318.146 575.943 316.558 575.278L314.877 574.614ZM292.806 571.363C293.709 569.208 294.933 567.495 296.479 566.224C298.034 564.929 299.724 564.078 301.548 563.669C303.35 563.251 305.381 563.143 307.643 563.344C309.882 563.536 312.047 563.937 314.138 564.546C316.238 565.133 318.444 565.911 320.757 566.881C323.138 567.878 325.313 568.923 327.282 570.015C329.228 571.097 331.111 572.392 332.931 573.902C334.738 575.379 336.158 576.92 337.191 578.526C338.225 580.132 338.843 581.964 339.047 584.023C339.251 586.081 338.892 588.21 337.97 590.41C337.02 592.677 335.786 594.507 334.271 595.897C332.755 597.288 331.132 598.234 329.402 598.736C327.682 599.215 325.731 599.384 323.551 599.243C321.357 599.07 319.222 598.695 317.144 598.118C315.076 597.518 312.84 596.714 310.437 595.707C308.69 594.975 307.077 594.245 305.595 593.518C304.101 592.758 302.594 591.9 301.075 590.944C299.566 589.965 298.238 588.968 297.09 587.954C295.942 586.94 294.924 585.807 294.036 584.555C293.125 583.293 292.465 582.004 292.058 580.687C291.659 579.347 291.512 577.885 291.615 576.302C291.696 574.71 292.093 573.063 292.806 571.363ZM320.988 546.863L318.839 555.999C317.453 555.872 316.088 555.566 314.744 555.083C314.744 555.083 314.461 554.964 313.894 554.727C310.515 553.311 308.211 550.919 306.983 547.552C305.764 544.162 306.039 540.358 307.807 536.14C309.783 531.423 312.323 528.288 315.426 526.736C318.507 525.175 322.292 525.335 326.782 527.216C327.599 527.558 328.375 527.964 329.112 528.432C329.826 528.892 330.444 529.324 330.967 529.73C331.491 530.136 332.023 530.679 332.564 531.359C333.115 532.016 333.536 532.539 333.826 532.928C334.104 533.284 334.457 533.872 334.887 534.692C335.303 535.479 335.575 536.007 335.703 536.273C335.831 536.54 336.085 537.113 336.463 537.991C336.841 538.87 337.057 539.373 337.11 539.502C337.255 539.856 337.664 540.947 338.337 542.776C338.997 544.572 339.619 546.206 340.202 547.676C340.763 549.138 341.404 550.566 342.126 551.961C342.824 553.347 343.389 554.131 343.82 554.311L351.176 536.759L358.489 539.824L346.23 569.077C345.89 568.935 345.363 568.728 344.651 568.456C343.916 568.174 343.355 567.953 342.97 567.791C341.904 567.345 341.014 566.892 340.3 566.433C337.603 564.662 335.191 560.906 333.066 555.163C332.756 554.313 332.336 552.991 331.809 551.197C331.29 549.38 330.803 547.776 330.346 546.385C329.867 544.985 329.288 543.502 328.61 541.939C327.942 540.352 327.153 539.022 326.244 537.948C325.321 536.841 324.316 536.06 323.227 535.604C319.395 533.998 316.718 535.009 315.198 538.637C314.599 540.066 314.486 541.512 314.86 542.975C315.233 544.437 316.214 545.501 317.801 546.167C318.776 546.575 319.839 546.807 320.988 546.863Z" fill="#E2E2E2"/>
<path d="M641.978 774.141L632.752 759.038C630.655 758.825 629.211 758.834 628.422 759.063C627.62 759.26 626.981 759.925 626.506 761.059C626.088 762.057 626.096 763.087 626.531 764.149C626.975 765.188 627.649 766.124 628.554 766.956C629.467 767.765 630.671 768.616 632.163 769.508C633.633 770.391 634.965 771.123 636.162 771.704C637.367 772.262 638.73 772.86 640.249 773.497L641.978 774.141ZM641.565 761.291L650.862 776.704C652.762 776.941 654.21 776.921 655.205 776.645C656.201 776.369 656.931 775.676 657.397 774.565C657.758 773.703 657.868 772.869 657.725 772.063C657.57 771.225 657.147 770.421 656.457 769.652C655.766 768.882 655.008 768.178 654.183 767.539C653.367 766.877 652.291 766.2 650.955 765.507C649.597 764.804 648.367 764.209 647.265 763.72C646.173 763.209 644.833 762.621 643.246 761.956L641.565 761.291ZM619.493 758.04C620.396 755.886 621.62 754.173 623.166 752.901C624.722 751.607 626.412 750.756 628.236 750.347C630.037 749.929 632.069 749.821 634.331 750.022C636.57 750.214 638.734 750.614 640.825 751.224C642.925 751.811 645.132 752.589 647.445 753.558C649.826 754.556 652.001 755.601 653.969 756.692C655.915 757.774 657.798 759.07 659.619 760.579C661.426 762.056 662.846 763.598 663.879 765.204C664.912 766.81 665.531 768.642 665.734 770.7C665.938 772.759 665.579 774.888 664.657 777.087C663.707 779.355 662.474 781.184 660.958 782.575C659.442 783.966 657.819 784.912 656.089 785.414C654.369 785.892 652.419 786.062 650.238 785.921C648.045 785.748 645.909 785.373 643.832 784.796C641.764 784.196 639.528 783.392 637.124 782.385C635.378 781.653 633.764 780.923 632.283 780.196C630.788 779.436 629.282 778.578 627.763 777.622C626.254 776.643 624.925 775.646 623.777 774.632C622.629 773.618 621.611 772.484 620.723 771.232C619.812 769.971 619.153 768.682 618.745 767.364C618.347 766.024 618.199 764.563 618.303 762.98C618.384 761.388 618.78 759.741 619.493 758.04ZM659.548 730.118L648.492 725.485C650.903 728.574 653.395 733.031 655.966 738.854L659.548 730.118ZM653.352 749.196C653.254 749.048 652.561 747.584 651.273 744.805C649.962 742.016 648.575 739.156 647.112 736.223C645.648 733.29 643.849 730.204 641.714 726.963C639.567 723.69 637.578 721.311 635.749 719.824L639.23 711.326L663.211 721.375L665.022 717.055L672.165 720.049L670.354 724.369L683.723 729.971L680.059 738.713L666.793 733.154L660.418 748.557L653.352 749.196Z" fill="#E2E2E2"/>
<path d="M-12.5335 400.786L-21.76 385.682C-23.8571 385.47 -25.3003 385.478 -26.0894 385.707C-26.8918 385.904 -27.5305 386.57 -28.0057 387.704C-28.4239 388.702 -28.4156 389.731 -27.9808 390.793C-27.5366 391.833 -26.8623 392.768 -25.9581 393.601C-25.0443 394.41 -23.8412 395.261 -22.3488 396.153C-20.8792 397.035 -19.5463 397.767 -18.3502 398.348C-17.1447 398.907 -15.7822 399.505 -14.2628 400.141L-12.5335 400.786ZM-12.947 387.936L-3.65018 403.349C-1.74982 403.586 -0.301926 403.566 0.69351 403.29C1.68894 403.014 2.41949 402.32 2.88516 401.209C3.24629 400.347 3.3558 399.513 3.21371 398.707C3.05844 397.869 2.63547 397.065 1.9448 396.296C1.25412 395.527 0.496172 394.823 -0.329056 394.184C-1.14478 393.522 -2.22054 392.844 -3.55633 392.151C-4.9148 391.449 -6.14488 390.853 -7.24656 390.365C-8.33873 389.854 -9.67852 389.266 -11.2659 388.6L-12.947 387.936ZM-35.0185 384.685C-34.1157 382.531 -32.8913 380.818 -31.3453 379.546C-29.7898 378.252 -28.1 377.4 -26.2759 376.992C-24.4744 376.573 -22.4428 376.465 -20.1811 376.666C-17.9421 376.858 -15.7773 377.259 -13.6867 377.868C-11.5866 378.455 -9.37995 379.233 -7.06687 380.203C-4.68577 381.201 -2.51092 382.245 -0.542327 383.337C1.40359 384.419 3.28665 385.715 5.10686 387.224C6.91389 388.701 8.334 390.243 9.3672 391.849C10.4004 393.455 11.0189 395.287 11.2227 397.345C11.4266 399.403 11.0676 401.532 10.1458 403.732C9.19543 406 7.96228 407.829 6.44632 409.22C4.93036 410.611 3.30751 411.557 1.57775 412.058C-0.142502 412.537 -2.09287 412.706 -4.27335 412.565C-6.46701 412.393 -8.60256 412.018 -10.68 411.44C-12.748 410.84 -14.9838 410.036 -17.3876 409.029C-19.1338 408.297 -20.7475 407.568 -22.2289 406.84C-23.7234 406.081 -25.23 405.223 -26.7488 404.266C-28.258 403.287 -29.5865 402.291 -30.7344 401.276C-31.8823 400.262 -32.9004 399.129 -33.7887 397.877C-34.6996 396.615 -35.359 395.326 -35.7667 394.009C-36.1649 392.669 -36.3123 391.208 -36.2088 389.625C-36.128 388.032 -35.7312 386.386 -35.0185 384.685ZM-20.1057 348.145L-15.1253 340.555L28.619 358.887L24.9412 367.663L-7.81049 354.018C-5.23465 358.75 -3.68469 363.385 -3.16061 367.923L-12.4927 369.771C-12.6505 367.412 -13.0165 365.073 -13.5905 362.753C-14.1777 360.401 -14.794 358.436 -15.4395 356.859C-16.0756 355.26 -16.7657 353.757 -17.5099 352.352C-18.2673 350.915 -18.8355 349.917 -19.2145 349.359C-19.6162 348.79 -19.9133 348.386 -20.1057 348.145Z" fill="#E2E2E2"/>
</svg>
