<svg width="705" height="704" viewBox="0 0 705 704" fill="none" xmlns="http://www.w3.org/2000/svg">
<path d="M369.025 201.457L343.87 152.063C336.226 155.956 333.253 153.027 331.628 152.743C330.003 152.46 326.292 149.536 324.506 147.484C323.078 145.842 319.925 139.943 318.528 137.199L29.7052 290.58L30.4539 292.05C31.8069 295.434 34.6104 303.411 35.0002 308.248C35.4875 314.294 30.9603 320.673 28.6082 321.871L15.3775 328.608L33.0831 363.376L38.5857 374.181C38.5857 374.181 49.6885 371.223 56.2865 373.312C63.4964 375.595 67.6283 379.044 71.1342 385.745C75.1687 393.456 75.4126 400.131 71.7414 408.022C69.2475 413.382 61.4944 419.165 61.4944 419.165L68.4943 432.91L86.1999 467.677C88.7499 466.625 94.4977 464.34 97.0893 463.613C100.329 462.703 107.867 464.418 112.171 467.781C115.614 470.47 119.555 475.252 121.095 477.306L417.644 331.098C417.544 330.902 416.956 329.894 415.403 327.426C413.462 324.342 412.842 320.214 412.809 315.788C412.783 312.247 417.348 304.343 419.634 300.834L391.035 244.677C391.035 244.677 383.54 246.548 379.092 245.946C373.923 245.246 367.47 241.109 363.074 234.85C358.761 228.708 358.707 222.879 360.275 215.54C361.629 209.208 369.025 201.457 369.025 201.457Z" fill="#34CF12" stroke="#E2E2E2" stroke-width="5.68453"/>
<rect x="274.528" y="196.836" width="155.074" height="252.738" transform="rotate(63.012 274.528 196.836)" fill="#34CF12" stroke="#E2E2E2" stroke-width="6.5989"/>
<path d="M272.546 248.201L265.089 240.742L255.69 245.528L260.481 236.131L253.024 228.671L263.441 230.323L268.232 220.926L269.88 231.345L280.297 232.997L270.898 237.783L272.546 248.201Z" fill="#220DFF"/>
<path d="M316.878 336.705L309.421 329.245L300.022 334.032L304.813 324.635L297.356 317.175L307.773 318.827L312.564 309.43L314.212 319.848L324.629 321.501L315.23 326.287L316.878 336.705Z" fill="#220DFF"/>
<path d="M246.673 261.377L239.216 253.917L229.817 258.704L234.607 249.307L227.151 241.847L237.568 243.499L242.359 234.102L244.006 244.52L254.424 246.173L245.025 250.959L246.673 261.377Z" fill="#220DFF"/>
<path d="M291.003 349.881L283.546 342.421L274.147 347.208L278.938 337.811L271.481 330.351L281.898 332.003L286.689 322.606L288.337 333.024L298.754 334.676L289.355 339.463L291.003 349.881Z" fill="#220DFF"/>
<path d="M220.8 274.555L213.343 267.095L203.944 271.882L208.734 262.485L201.278 255.025L211.695 256.677L216.486 247.28L218.133 257.698L228.551 259.35L219.152 264.137L220.8 274.555Z" fill="#220DFF"/>
<path d="M265.13 363.057L257.673 355.597L248.274 360.384L253.065 350.987L245.608 343.527L256.025 345.179L260.816 335.782L262.464 346.2L272.881 347.852L263.482 352.639L265.13 363.057Z" fill="#220DFF"/>
<path d="M194.927 287.731L187.47 280.271L178.071 285.057L182.861 275.66L175.405 268.201L185.822 269.853L190.613 260.456L192.26 270.874L202.678 272.526L193.279 277.313L194.927 287.731Z" fill="#220DFF"/>
<path d="M239.257 376.235L231.8 368.775L222.401 373.561L227.191 364.164L219.735 356.704L230.152 358.357L234.943 348.96L236.59 359.378L247.008 361.03L237.609 365.816L239.257 376.235Z" fill="#220DFF"/>
<path d="M169.054 300.906L161.597 293.447L152.198 298.233L156.988 288.836L149.532 281.376L159.949 283.029L164.74 273.632L166.387 284.05L176.805 285.702L167.406 290.488L169.054 300.906Z" fill="#220DFF"/>
<path d="M213.384 389.41L205.927 381.951L196.528 386.737L201.318 377.34L193.862 369.88L204.279 371.532L209.07 362.135L210.717 372.554L221.135 374.206L211.736 378.992L213.384 389.41Z" fill="#220DFF"/>
<path d="M143.181 314.082L135.724 306.622L126.325 311.409L131.115 302.012L123.659 294.552L134.076 296.204L138.866 286.807L140.514 297.225L150.932 298.878L141.533 303.664L143.181 314.082Z" fill="#220DFF"/>
<path d="M187.511 402.586L180.054 395.126L170.655 399.913L175.445 390.516L167.989 383.056L178.406 384.708L183.197 375.311L184.844 385.729L195.262 387.382L185.863 392.168L187.511 402.586Z" fill="#220DFF"/>
<path d="M117.306 327.26L109.849 319.8L100.45 324.587L105.24 315.19L97.7836 307.73L108.201 309.382L112.991 299.985L114.639 310.403L125.057 312.055L115.658 316.842L117.306 327.26Z" fill="#220DFF"/>
<path d="M161.638 415.762L154.181 408.302L144.782 413.089L149.572 403.692L142.116 396.232L152.533 397.884L157.324 388.487L158.971 398.905L169.389 400.557L159.99 405.344L161.638 415.762Z" fill="#220DFF"/>
<path d="M92.0224 340.135L84.5656 332.675L75.1666 337.462L79.9571 328.065L72.5004 320.605L82.9178 322.257L87.7083 312.86L89.3561 323.278L99.7735 324.93L90.3745 329.717L92.0224 340.135Z" fill="#220DFF"/>
<path d="M136.352 428.639L128.896 421.179L119.497 425.966L124.287 416.569L116.83 409.109L127.248 410.761L132.038 401.364L133.686 411.782L144.104 413.434L134.705 418.221L136.352 428.639Z" fill="#220DFF"/>
<path d="M721.892 71.6916L696.738 22.2972C689.093 26.1902 686.12 23.2609 684.495 22.9778C682.87 22.6947 679.159 19.7709 677.373 17.7182C675.945 16.0761 672.793 10.1773 671.395 7.43315L382.572 160.814L383.321 162.284C384.674 165.668 387.478 173.645 387.867 178.482C388.355 184.529 383.827 190.907 381.475 192.105L368.245 198.843L385.95 233.61L391.453 244.415C391.453 244.415 402.556 241.457 409.154 243.546C416.364 245.83 420.495 249.278 424.001 255.979C428.036 263.691 428.28 270.366 424.609 278.257C422.115 283.617 414.362 289.399 414.362 289.399L421.362 303.144L439.067 337.911C441.617 336.86 447.365 334.574 449.957 333.847C453.196 332.938 460.734 334.653 465.038 338.015C468.482 340.705 472.422 345.486 473.962 347.54L770.511 201.333C770.411 201.137 769.823 200.128 768.271 197.66C766.33 194.576 765.709 190.449 765.676 186.022C765.65 182.481 770.215 174.578 772.501 171.068L743.903 114.912C743.903 114.912 736.407 116.782 731.96 116.18C726.79 115.481 720.337 111.344 715.941 105.084C711.629 98.9426 711.574 93.1131 713.143 85.7743C714.496 79.4426 721.892 71.6916 721.892 71.6916Z" fill="#220DFF" stroke="#E2E2E2" stroke-width="5.68453"/>
<rect x="627.395" y="67.0703" width="155.074" height="252.738" transform="rotate(63.012 627.395 67.0703)" fill="#220DFF" stroke="#E2E2E2" stroke-width="6.5989"/>
<path d="M625.413 118.436L617.956 110.976L608.557 115.762L613.348 106.365L605.891 98.9056L616.308 100.558L621.099 91.1608L622.747 101.579L633.164 103.231L623.765 108.018L625.413 118.436Z" fill="#34CF12"/>
<path d="M669.745 206.94L662.288 199.48L652.889 204.266L657.68 194.869L650.223 187.41L660.64 189.062L665.431 179.665L667.079 190.083L677.496 191.735L668.097 196.522L669.745 206.94Z" fill="#34CF12"/>
<path d="M599.54 131.612L592.083 124.152L582.684 128.938L587.475 119.541L580.018 112.081L590.435 113.734L595.226 104.337L596.874 114.755L607.291 116.407L597.892 121.193L599.54 131.612Z" fill="#34CF12"/>
<path d="M643.87 220.115L636.413 212.656L627.014 217.442L631.805 208.045L624.348 200.585L634.765 202.237L639.556 192.84L641.204 203.259L651.621 204.911L642.222 209.697L643.87 220.115Z" fill="#34CF12"/>
<path d="M573.667 144.787L566.21 137.327L556.811 142.114L561.602 132.717L554.145 125.257L564.562 126.909L569.353 117.512L571.001 127.93L581.418 129.583L572.019 134.369L573.667 144.787Z" fill="#34CF12"/>
<path d="M617.997 233.291L610.54 225.831L601.141 230.618L605.932 221.221L598.475 213.761L608.892 215.413L613.683 206.016L615.331 216.434L625.748 218.087L616.349 222.873L617.997 233.291Z" fill="#34CF12"/>
<path d="M547.794 157.965L540.337 150.505L530.938 155.292L535.729 145.895L528.272 138.435L538.689 140.087L543.48 130.69L545.128 141.108L555.545 142.76L546.146 147.547L547.794 157.965Z" fill="#34CF12"/>
<path d="M592.124 246.467L584.667 239.007L575.268 243.794L580.059 234.397L572.602 226.937L583.019 228.589L587.81 219.192L589.458 229.61L599.875 231.262L590.476 236.049L592.124 246.467Z" fill="#34CF12"/>
<path d="M521.921 171.141L514.464 163.681L505.065 168.468L509.856 159.071L502.399 151.611L512.816 153.263L517.607 143.866L519.255 154.284L529.672 155.936L520.273 160.723L521.921 171.141Z" fill="#34CF12"/>
<path d="M566.251 259.645L558.794 252.185L549.395 256.971L554.186 247.574L546.729 240.115L557.146 241.767L561.937 232.37L563.585 242.788L574.002 244.44L564.603 249.227L566.251 259.645Z" fill="#34CF12"/>
<path d="M496.048 184.317L488.591 176.857L479.192 181.643L483.982 172.246L476.526 164.786L486.943 166.439L491.734 157.042L493.381 167.46L503.799 169.112L494.4 173.899L496.048 184.317Z" fill="#34CF12"/>
<path d="M540.378 272.821L532.921 265.361L523.522 270.147L528.313 260.75L520.856 253.29L531.273 254.943L536.064 245.546L537.712 255.964L548.129 257.616L538.73 262.402L540.378 272.821Z" fill="#34CF12"/>
<path d="M470.173 197.494L462.716 190.035L453.317 194.821L458.107 185.424L450.651 177.964L461.068 179.616L465.859 170.219L467.506 180.638L477.924 182.29L468.525 187.076L470.173 197.494Z" fill="#34CF12"/>
<path d="M514.505 285.996L507.048 278.536L497.649 283.323L502.44 273.926L494.983 266.466L505.4 268.118L510.191 258.721L511.839 269.139L522.256 270.792L512.857 275.578L514.505 285.996Z" fill="#34CF12"/>
<path d="M444.89 210.369L437.433 202.91L428.034 207.696L432.824 198.299L425.368 190.839L435.785 192.491L440.575 183.094L442.223 193.513L452.641 195.165L443.242 199.951L444.89 210.369Z" fill="#34CF12"/>
<path d="M489.22 298.873L481.763 291.413L472.364 296.2L477.154 286.803L469.698 279.343L480.115 280.995L484.906 271.598L486.553 282.016L496.971 283.669L487.572 288.455L489.22 298.873Z" fill="#34CF12"/>
<path d="M523.83 412.037L498.675 362.643C491.031 366.536 488.058 363.607 486.433 363.323C484.807 363.04 481.097 360.117 479.311 358.064C477.882 356.422 474.73 350.523 473.333 347.779L184.51 501.16L185.259 502.63C186.612 506.014 189.415 513.991 189.805 518.828C190.292 524.874 185.765 531.253 183.413 532.451L170.182 539.188L187.888 573.956L193.39 584.761C193.39 584.761 204.493 581.803 211.091 583.892C218.301 586.176 222.433 589.624 225.939 596.325C229.973 604.036 230.217 610.712 226.546 618.602C224.052 623.962 216.299 629.745 216.299 629.745L223.299 643.49L241.005 678.257C243.555 677.205 249.302 674.92 251.894 674.193C255.134 673.283 262.672 674.998 266.976 678.361C270.419 681.05 274.36 685.832 275.9 687.886L572.449 541.679C572.349 541.483 571.761 540.474 570.208 538.006C568.267 534.922 567.646 530.795 567.614 526.368C567.588 522.827 572.153 514.923 574.439 511.414L545.84 455.257C545.84 455.257 538.344 457.128 533.897 456.526C528.727 455.826 522.275 451.689 517.879 445.43C513.566 439.288 513.512 433.459 515.08 426.12C516.433 419.788 523.83 412.037 523.83 412.037Z" fill="#34CF12" stroke="#E2E2E2" stroke-width="5.68453"/>
<rect x="429.335" y="407.418" width="155.074" height="252.738" transform="rotate(63.012 429.335 407.418)" fill="#34CF12" stroke="#E2E2E2" stroke-width="6.5989"/>
<path d="M427.352 458.783L419.896 451.324L410.497 456.11L415.287 446.713L407.83 439.253L418.248 440.905L423.038 431.508L424.686 441.927L435.104 443.579L425.705 448.365L427.352 458.783Z" fill="#220DFF"/>
<path d="M471.684 547.287L464.228 539.827L454.829 544.614L459.619 535.217L452.162 527.757L462.58 529.409L467.37 520.012L469.018 530.43L479.436 532.083L470.037 536.869L471.684 547.287Z" fill="#220DFF"/>
<path d="M401.479 471.959L394.023 464.499L384.624 469.286L389.414 459.889L381.957 452.429L392.375 454.081L397.165 444.684L398.813 455.102L409.231 456.755L399.832 461.541L401.479 471.959Z" fill="#220DFF"/>
<path d="M445.809 560.463L438.353 553.003L428.954 557.79L433.744 548.393L426.287 540.933L436.705 542.585L441.495 533.188L443.143 543.606L453.561 545.258L444.162 550.045L445.809 560.463Z" fill="#220DFF"/>
<path d="M375.606 485.135L368.15 477.675L358.751 482.462L363.541 473.065L356.084 465.605L366.502 467.257L371.292 457.86L372.94 468.278L383.358 469.93L373.959 474.717L375.606 485.135Z" fill="#220DFF"/>
<path d="M419.936 573.639L412.48 566.179L403.081 570.966L407.871 561.569L400.414 554.109L410.832 555.761L415.622 546.364L417.27 556.782L427.688 558.434L418.289 563.221L419.936 573.639Z" fill="#220DFF"/>
<path d="M349.733 498.313L342.277 490.853L332.878 495.639L337.668 486.242L330.211 478.783L340.629 480.435L345.419 471.038L347.067 481.456L357.484 483.108L348.085 487.895L349.733 498.313Z" fill="#220DFF"/>
<path d="M394.063 586.815L386.607 579.355L377.208 584.141L381.998 574.744L374.541 567.285L384.959 568.937L389.749 559.54L391.397 569.958L401.815 571.61L392.416 576.397L394.063 586.815Z" fill="#220DFF"/>
<path d="M323.86 511.489L316.404 504.029L307.004 508.815L311.795 499.418L304.338 491.958L314.756 493.611L319.546 484.214L321.194 494.632L331.611 496.284L322.212 501.07L323.86 511.489Z" fill="#220DFF"/>
<path d="M368.19 599.992L360.734 592.533L351.335 597.319L356.125 587.922L348.668 580.462L359.086 582.114L363.876 572.717L365.524 583.136L375.942 584.788L366.542 589.574L368.19 599.992Z" fill="#220DFF"/>
<path d="M297.987 524.664L290.53 517.204L281.131 521.991L285.922 512.594L278.465 505.134L288.883 506.786L293.673 497.389L295.321 507.807L305.738 509.46L296.339 514.246L297.987 524.664Z" fill="#220DFF"/>
<path d="M342.317 613.168L334.861 605.708L325.462 610.495L330.252 601.098L322.795 593.638L333.213 595.29L338.003 585.893L339.651 596.311L350.068 597.964L340.669 602.75L342.317 613.168Z" fill="#220DFF"/>
<path d="M272.114 537.84L264.657 530.38L255.258 535.167L260.049 525.77L252.592 518.31L263.01 519.962L267.8 510.565L269.448 520.983L279.865 522.635L270.466 527.422L272.114 537.84Z" fill="#220DFF"/>
<path d="M316.444 626.344L308.987 618.884L299.588 623.671L304.379 614.274L296.922 606.814L307.34 608.466L312.13 599.069L313.778 609.487L324.195 611.139L314.796 615.926L316.444 626.344Z" fill="#220DFF"/>
<path d="M246.829 550.717L239.372 543.257L229.973 548.044L234.764 538.647L227.307 531.187L237.724 532.839L242.515 523.442L244.163 533.86L254.58 535.512L245.181 540.299L246.829 550.717Z" fill="#220DFF"/>
<path d="M291.159 639.221L283.702 631.761L274.303 636.548L279.094 627.151L271.637 619.691L282.055 621.343L286.845 611.946L288.493 622.364L298.91 624.016L289.511 628.803L291.159 639.221Z" fill="#220DFF"/>
<path d="M876.697 283.412L851.542 234.018C843.898 237.911 840.925 234.982 839.3 234.698C837.675 234.415 833.964 231.492 832.178 229.439C830.749 227.797 827.597 221.898 826.2 219.154L537.377 372.535L538.126 374.005C539.479 377.389 542.282 385.366 542.672 390.203C543.159 396.249 538.632 402.628 536.28 403.826L523.049 410.563L540.755 445.331L546.258 456.136C546.258 456.136 557.36 453.178 563.958 455.267C571.168 457.551 575.3 460.999 578.806 467.7C582.841 475.411 583.085 482.087 579.413 489.977C576.919 495.337 569.166 501.12 569.166 501.12L576.166 514.865L593.872 549.632C596.422 548.58 602.17 546.295 604.761 545.568C608.001 544.658 615.539 546.373 619.843 549.736C623.286 552.425 627.227 557.207 628.767 559.261L925.316 413.054C925.216 412.858 924.628 411.849 923.075 409.381C921.134 406.297 920.514 402.17 920.481 397.743C920.455 394.202 925.02 386.298 927.306 382.789L898.707 326.632C898.707 326.632 891.211 328.503 886.764 327.901C881.595 327.201 875.142 323.064 870.746 316.805C866.433 310.663 866.379 304.834 867.947 297.495C869.3 291.163 876.697 283.412 876.697 283.412Z" fill="#FF3C00" stroke="#E2E2E2" stroke-width="5.68453"/>
<rect x="782.202" y="278.791" width="155.074" height="252.738" transform="rotate(63.012 782.202 278.791)" fill="#FF3C00" stroke="#E2E2E2" stroke-width="6.5989"/>
<path d="M728.474 356.508L721.017 349.048L711.618 353.835L716.408 344.438L708.952 336.978L719.369 338.63L724.159 329.233L725.807 339.651L736.225 341.303L726.826 346.09L728.474 356.508Z" fill="#34CF12"/>
<path d="M702.6 369.686L695.144 362.226L685.745 367.012L690.535 357.615L683.078 350.156L693.496 351.808L698.286 342.411L699.934 352.829L710.352 354.481L700.953 359.268L702.6 369.686Z" fill="#34CF12"/>
<path d="M676.727 382.862L669.271 375.402L659.872 380.188L664.662 370.791L657.205 363.331L667.623 364.984L672.413 355.587L674.061 366.005L684.479 367.657L675.08 372.443L676.727 382.862Z" fill="#34CF12"/>
<path d="M721.058 471.365L713.601 463.906L704.202 468.692L708.992 459.295L701.536 451.835L711.953 453.487L716.743 444.09L718.391 454.509L728.809 456.161L719.41 460.947L721.058 471.365Z" fill="#34CF12"/>
<path d="M650.854 396.037L643.398 388.577L633.999 393.364L638.789 383.967L631.332 376.507L641.75 378.159L646.54 368.762L648.188 379.18L658.606 380.833L649.207 385.619L650.854 396.037Z" fill="#34CF12"/>
<path d="M695.184 484.541L687.728 477.081L678.329 481.868L683.119 472.471L675.662 465.011L686.08 466.663L690.87 457.266L692.518 467.684L702.936 469.337L693.537 474.123L695.184 484.541Z" fill="#34CF12"/>
<path d="M624.979 409.215L617.523 401.755L608.124 406.542L612.914 397.145L605.457 389.685L615.875 391.337L620.665 381.94L622.313 392.358L632.731 394.01L623.332 398.797L624.979 409.215Z" fill="#34CF12"/>
<path d="M669.311 497.717L661.855 490.257L652.456 495.044L657.246 485.647L649.789 478.187L660.207 479.839L664.997 470.442L666.645 480.86L677.063 482.512L667.664 487.299L669.311 497.717Z" fill="#34CF12"/>
<path d="M599.696 422.09L592.239 414.63L582.84 419.417L587.631 410.02L580.174 402.56L590.592 404.212L595.382 394.815L597.03 405.233L607.447 406.885L598.048 411.672L599.696 422.09Z" fill="#34CF12"/>
<path d="M644.026 510.594L636.57 503.134L627.171 507.921L631.961 498.524L624.504 491.064L634.922 492.716L639.712 483.319L641.36 493.737L651.777 495.389L642.378 500.176L644.026 510.594Z" fill="#34CF12"/>
<path d="M265.894 266.906L281.588 297.722C283.683 296.656 285.552 295.692 287.197 294.831C288.832 293.998 289.861 293.474 290.284 293.259L293.19 298.965C292.216 299.461 288.936 301.131 283.349 303.976C277.754 306.849 274.019 308.762 272.145 309.717C270.087 310.765 268.478 311.399 267.317 311.62L266.122 305.182C267.189 304.916 268.275 304.502 269.377 303.941L274.421 301.372L258.728 270.556L265.894 266.906ZM261.409 315.15C257.872 317.066 254.652 318.764 251.749 320.243C249.489 321.394 246.093 323.088 241.563 325.326L238.629 319.496C239.823 318.887 240.99 318.316 242.13 317.782C243.261 317.276 244.23 316.817 245.039 316.405L232.391 291.57C231.987 291.776 231.629 291.958 231.316 292.117C231.013 292.295 230.623 292.505 230.145 292.749C228.767 293.45 227.425 294.087 226.12 294.66L223.046 288.692C224.977 287.848 226.934 286.921 228.919 285.91C229.323 285.704 229.989 285.353 230.917 284.858C231.854 284.38 232.607 283.997 233.177 283.707C233.673 283.454 234.987 282.739 237.118 281.561C239.24 280.411 241.109 279.424 242.726 278.601L245.758 284.554C243.857 285.638 242.227 286.526 240.867 287.219L239.434 287.949L252.081 312.784C254.672 311.418 256.734 310.287 258.267 309.39L261.409 315.15ZM217.477 330.719C218.304 330.298 218.981 329.629 219.51 328.712C220.019 327.804 220.347 326.654 220.494 325.26C220.65 323.885 220.457 322.166 219.916 320.104C219.385 318.061 218.511 315.845 217.294 313.456C215.479 309.891 213.394 307.342 211.04 305.81C208.686 304.278 206.719 303.915 205.139 304.719L204.753 304.916C203.908 305.346 203.243 305.812 202.758 306.314C202.272 306.816 201.936 307.427 201.747 308.148C201.559 308.868 201.468 309.598 201.473 310.335C201.478 311.073 201.55 312.032 201.688 313.211L192.984 312.888C192.891 310.205 193.61 307.664 195.141 305.264C196.655 302.873 198.725 301.009 201.353 299.67L201.435 299.628C205.441 297.588 209.095 297.105 212.395 298.178C217.425 299.921 221.503 303.861 224.628 309.998C227.398 315.438 228.497 320.617 227.925 325.537C227.673 327.678 226.89 329.732 225.577 331.697C224.254 333.689 222.454 335.266 220.175 336.426C218.025 337.521 215.668 338.073 213.105 338.083C210.522 338.102 208.133 337.363 205.936 335.867L210.576 329.165C212.08 330.482 213.303 331.225 214.245 331.393C215.168 331.57 216.246 331.346 217.477 330.719ZM182.796 336.37C180.309 335.577 176.39 333.674 171.037 330.66C165.684 327.647 162.176 325.372 160.514 323.835L165.251 317.049C167.005 318.54 170.013 320.606 174.274 323.249C178.518 325.902 181.855 327.616 184.286 328.391C184.735 326.727 184.899 325.094 184.776 323.49L178.6 311.362L185.711 307.74L204.451 344.538L197.339 348.16L190.826 335.37C190.299 338.925 188.399 345.736 185.125 355.803L177.238 353.675C179.41 349.306 181.263 343.538 182.796 336.37ZM174.512 359.229C173.521 359.827 171.665 360.818 168.945 362.203C168.945 362.203 168.045 362.662 166.244 363.579L163.212 365.123C161.669 365.909 159.757 366.859 157.478 367.973C155.19 369.115 153.789 369.817 153.275 370.079L152.834 370.304L149.998 364.736L164.579 357.31L160.803 349.896L151.487 354.64L148.637 349.045L157.954 344.3L157.519 343.446C156.405 341.259 155.23 338.93 153.995 336.458C152.759 333.986 152.029 332.53 151.805 332.089L140.366 337.984C139.907 338.218 139.425 338.544 138.921 338.963C138.417 339.381 138.018 339.735 137.725 340.023L137.3 340.482L132.522 336.008C132.668 335.887 132.943 335.631 133.346 335.241C133.73 334.86 134.051 334.558 134.308 334.335C134.546 334.121 134.931 333.832 135.463 333.468C135.995 333.105 136.574 332.764 137.199 332.446L155.997 322.872L174.512 359.229ZM119.806 341.303L135.5 372.12C137.594 371.053 139.464 370.089 141.109 369.228C142.744 368.396 143.773 367.872 144.196 367.656L147.101 373.362C146.127 373.858 142.847 375.528 137.261 378.373C131.666 381.246 127.931 383.16 126.057 384.114C123.999 385.162 122.389 385.797 121.229 386.017L120.033 379.58C121.101 379.313 122.186 378.9 123.289 378.338L128.333 375.769L112.639 344.953L119.806 341.303Z" fill="#FF3C00"/>
<path d="M321.022 223.094L338.51 225.818C340.028 224.356 340.954 223.249 341.289 222.499C341.658 221.759 341.563 220.842 341.005 219.746C340.514 218.782 339.723 218.123 338.632 217.768C337.552 217.435 336.402 217.345 335.183 217.497C333.974 217.671 332.547 218.038 330.902 218.6C329.279 219.151 327.859 219.695 326.642 220.232C325.437 220.791 324.1 221.444 322.632 222.191L321.022 223.094ZM331.093 231.085L313.324 228.215C311.915 229.512 310.994 230.629 310.561 231.567C310.128 232.505 310.185 233.511 310.732 234.584C311.156 235.417 311.721 236.039 312.428 236.452C313.168 236.875 314.055 237.072 315.088 237.043C316.121 237.013 317.149 236.89 318.17 236.674C319.202 236.479 320.414 236.096 321.807 235.525C323.221 234.943 324.47 234.389 325.555 233.864C326.651 233.361 327.966 232.719 329.5 231.938L331.093 231.085ZM347.842 216.348C348.902 218.429 349.417 220.471 349.388 222.472C349.37 224.496 348.927 226.335 348.06 227.991C347.214 229.636 345.984 231.256 344.368 232.851C342.774 234.436 341.069 235.828 339.252 237.029C337.447 238.252 335.427 239.433 333.192 240.571C330.891 241.742 328.688 242.726 326.583 243.523C324.5 244.308 322.294 244.907 319.965 245.32C317.67 245.744 315.576 245.831 313.683 245.581C311.79 245.331 309.992 244.618 308.29 243.443C306.588 242.268 305.196 240.618 304.113 238.493C302.997 236.302 302.399 234.178 302.318 232.123C302.237 230.067 302.564 228.217 303.3 226.573C304.046 224.951 305.178 223.354 306.695 221.781C308.245 220.219 309.912 218.832 311.695 217.621C313.49 216.431 315.548 215.244 317.871 214.062C319.558 213.202 321.158 212.443 322.67 211.783C324.216 211.134 325.845 210.539 327.556 209.998C329.279 209.48 330.898 209.111 332.414 208.89C333.93 208.67 335.452 208.626 336.982 208.758C338.533 208.878 339.943 209.209 341.212 209.749C342.492 210.312 343.702 211.144 344.843 212.246C346.005 213.337 347.005 214.704 347.842 216.348ZM364.253 265.314C363.073 263.487 361.99 261.955 361.002 260.72C360.026 259.506 358.912 258.377 357.662 257.33C356.411 256.284 355.048 255.502 353.57 254.985C352.104 254.49 350.475 254.244 348.682 254.246C346.846 254.215 344.886 254.648 342.803 255.543C342.925 255.564 343.068 255.601 343.233 255.655C343.42 255.698 343.779 255.833 344.308 256.06C344.838 256.287 345.335 256.558 345.799 256.873C346.285 257.178 346.799 257.619 347.343 258.198C347.919 258.788 348.397 259.455 348.776 260.2C350.929 264.428 351.414 268.224 350.229 271.587C349.066 274.938 346.524 277.613 342.602 279.61C338.461 281.719 334.521 282.111 330.784 280.786C327.068 279.45 324.106 276.613 321.896 272.274C319.743 268.046 319.58 263.879 321.408 259.775C323.236 255.671 326.593 252.375 331.479 249.886C347.978 241.484 361.077 244.774 370.776 259.757L364.253 265.314ZM335.454 258.748C332.211 260.399 330.013 262.043 328.86 263.679C327.739 265.325 327.675 267.124 328.669 269.074C329.416 270.542 330.715 271.522 332.566 272.014C334.451 272.517 336.368 272.272 338.318 271.279C340.158 270.342 341.408 269.112 342.068 267.589C342.727 266.067 342.761 264.725 342.17 263.564C341.344 261.943 340.412 260.789 339.373 260.104C338.346 259.441 337.039 258.989 335.454 258.748Z" fill="#E2E2E2"/>
<path d="M618.761 137.14L634.455 167.957C636.55 166.89 638.42 165.926 640.064 165.066C641.7 164.233 642.729 163.709 643.151 163.493L646.057 169.199C645.083 169.695 641.803 171.366 636.217 174.21C630.621 177.083 626.887 178.997 625.012 179.951C622.954 180.999 621.345 181.634 620.184 181.854L618.989 175.417C620.057 175.151 621.142 174.737 622.244 174.175L627.288 171.606L611.595 140.79L618.761 137.14ZM614.276 185.384C610.739 187.301 607.519 188.998 604.616 190.477C602.356 191.628 598.961 193.322 594.43 195.56L591.496 189.73C592.691 189.122 593.858 188.551 594.997 188.016C596.128 187.51 597.097 187.051 597.906 186.639L585.258 161.804C584.854 162.01 584.496 162.193 584.183 162.352C583.88 162.529 583.49 162.74 583.012 162.983C581.634 163.685 580.292 164.322 578.987 164.894L575.913 158.927C577.844 158.082 579.801 157.155 581.786 156.144C582.19 155.938 582.856 155.588 583.784 155.092C584.721 154.615 585.475 154.231 586.044 153.941C586.54 153.688 587.854 152.973 589.985 151.795C592.107 150.645 593.976 149.658 595.593 148.835L598.625 154.789C596.724 155.873 595.094 156.761 593.734 157.453L592.301 158.183L604.948 183.018C607.539 181.653 609.601 180.521 611.135 179.625L614.276 185.384ZM570.344 200.953C571.171 200.532 571.849 199.863 572.377 198.946C572.886 198.039 573.215 196.888 573.361 195.494C573.517 194.119 573.324 192.4 572.784 190.339C572.252 188.295 571.378 186.079 570.161 183.69C568.346 180.125 566.261 177.577 563.907 176.045C561.554 174.513 559.587 174.149 558.006 174.954L557.62 175.15C556.775 175.581 556.11 176.047 555.625 176.548C555.14 177.05 554.803 177.661 554.615 178.382C554.426 179.103 554.335 179.832 554.34 180.57C554.346 181.307 554.417 182.266 554.555 183.446L545.851 183.122C545.758 180.439 546.477 177.898 548.008 175.498C549.522 173.107 551.592 171.243 554.22 169.905L554.303 169.863C558.309 167.823 561.962 167.339 565.262 168.412C570.292 170.155 574.37 174.095 577.495 180.233C580.265 185.672 581.364 190.852 580.792 195.771C580.54 197.913 579.758 199.966 578.444 201.931C577.122 203.924 575.321 205.5 573.042 206.66C570.892 207.755 568.536 208.308 565.972 208.317C563.39 208.336 561 207.598 558.803 206.102L563.443 199.399C564.947 200.716 566.17 201.459 567.112 201.627C568.036 201.805 569.113 201.58 570.344 200.953ZM535.663 206.604C533.176 205.811 529.257 203.908 523.904 200.895C518.551 197.882 515.044 195.607 513.381 194.069L518.118 187.284C519.872 188.774 522.88 190.841 527.142 193.484C531.385 196.136 534.722 197.85 537.154 198.625C537.603 196.962 537.766 195.328 537.643 193.724L531.467 181.596L538.578 177.975L557.318 214.772L550.206 218.394L543.693 205.604C543.166 209.159 541.266 215.97 537.992 226.037L530.105 223.91C532.277 219.541 534.13 213.772 535.663 206.604ZM527.38 229.463C526.388 230.061 524.532 231.052 521.813 232.437C521.813 232.437 520.912 232.896 519.111 233.813L516.079 235.357C514.536 236.143 512.625 237.093 510.346 238.208C508.058 239.35 506.656 240.052 506.142 240.314L505.701 240.538L502.865 234.97L517.447 227.545L513.671 220.13L504.354 224.875L501.504 219.279L510.821 214.535L510.386 213.68C509.272 211.493 508.098 209.164 506.862 206.692C505.626 204.221 504.896 202.764 504.672 202.323L493.233 208.218C492.774 208.452 492.292 208.778 491.788 209.197C491.284 209.616 490.885 209.969 490.592 210.257L490.167 210.717L485.389 206.242C485.535 206.121 485.81 205.866 486.213 205.475C486.598 205.094 486.918 204.792 487.175 204.569C487.413 204.355 487.798 204.066 488.33 203.703C488.863 203.339 489.441 202.998 490.066 202.68L508.864 193.107L527.38 229.463ZM472.673 211.538L488.367 242.354C490.462 241.287 492.331 240.323 493.976 239.463C495.611 238.63 496.64 238.106 497.063 237.891L499.969 243.596C498.995 244.092 495.715 245.763 490.128 248.608C484.533 251.48 480.798 253.394 478.924 254.348C476.866 255.397 475.256 256.031 474.096 256.252L472.9 249.814C473.968 249.548 475.053 249.134 476.156 248.573L481.2 246.004L465.507 215.187L472.673 211.538Z" fill="#FF3C00"/>
<path d="M673.889 93.3302L691.377 96.0547C692.895 94.592 693.821 93.4855 694.157 92.7353C694.525 91.9958 694.43 91.0783 693.872 89.9828C693.381 89.0187 692.59 88.3593 691.499 88.0044C690.419 87.6715 689.269 87.5811 688.05 87.733C686.841 87.9069 685.415 88.2748 683.769 88.8368C682.146 89.3876 680.726 89.9314 679.509 90.4682C678.304 91.0269 676.967 91.6801 675.499 92.4276L673.889 93.3302ZM683.96 101.322L666.191 98.4509C664.782 99.7479 663.861 100.865 663.428 101.803C662.995 102.741 663.052 103.747 663.599 104.82C664.023 105.653 664.588 106.276 665.295 106.688C666.035 107.112 666.922 107.309 667.955 107.279C668.989 107.249 670.016 107.126 671.037 106.91C672.069 106.715 673.281 106.332 674.674 105.761C676.088 105.179 677.337 104.626 678.422 104.101C679.518 103.598 680.833 102.956 682.367 102.175L683.96 101.322ZM700.709 86.5839C701.769 88.6654 702.284 90.7069 702.255 92.7085C702.237 94.7319 701.794 96.5716 700.927 98.2275C700.081 99.8722 698.851 101.492 697.235 103.088C695.641 104.672 693.936 106.065 692.12 107.266C690.314 108.488 688.294 109.669 686.059 110.807C683.759 111.979 681.556 112.963 679.45 113.759C677.367 114.544 675.161 115.143 672.833 115.556C670.538 115.98 668.443 116.067 666.55 115.817C664.657 115.567 662.859 114.855 661.157 113.68C659.455 112.505 658.063 110.854 656.98 108.729C655.865 106.538 655.266 104.415 655.185 102.359C655.104 100.303 655.431 98.4534 656.167 96.8095C656.913 95.1875 658.045 93.5902 659.562 92.0175C661.112 90.4555 662.779 89.0687 664.562 87.8569C666.357 86.6671 668.416 85.4807 670.738 84.298C672.425 83.4388 674.025 82.6792 675.538 82.0193C677.083 81.3701 678.712 80.7753 680.423 80.2348C682.146 79.7162 683.765 79.3469 685.281 79.1268C686.797 78.9067 688.32 78.8624 689.849 78.9941C691.4 79.1146 692.81 79.4451 694.079 79.9855C695.359 80.5479 696.569 81.3802 697.71 82.4824C698.872 83.5735 699.872 84.9406 700.709 86.5839ZM711.701 109.793C712.181 110.735 712.912 112.253 713.895 114.346C714.878 116.439 715.582 117.902 716.006 118.734C716.854 120.4 718.181 122.924 719.988 126.309C721.816 129.682 723.126 132.147 723.918 133.703L724.605 135.05L720.921 141.065C719.557 140.932 717.609 140.737 715.078 140.481C712.393 140.193 710.401 139.993 709.102 139.882C707.826 139.759 706.098 139.618 703.92 139.458C701.775 139.309 700.103 139.25 698.904 139.281C697.728 139.301 696.233 139.345 694.419 139.413C692.627 139.47 691.094 139.63 689.82 139.892C688.558 140.177 687.12 140.523 685.506 140.93C683.893 141.338 682.319 141.85 680.784 142.466C679.26 143.104 677.666 143.847 676 144.695L671.632 136.117C674.261 134.778 676.903 133.709 679.559 132.908C682.225 132.13 684.783 131.572 687.233 131.235C689.682 130.898 692.453 130.784 695.543 130.893C698.634 131.003 701.555 131.212 704.307 131.522C707.058 131.831 710.432 132.307 714.428 132.948C713.392 131.075 711.791 128.013 709.627 123.763C708.645 121.835 707.835 120.164 707.198 118.75C707.165 118.739 706.929 118.79 706.49 118.904C706.073 119.006 705.551 119.147 704.926 119.328C704.334 119.519 703.84 119.687 703.445 119.833L701.297 110.414C703.263 110.103 706.731 109.896 711.701 109.793Z" fill="#E2E2E2"/>
<path d="M420.699 477.486L436.393 508.302C438.487 507.236 440.357 506.272 442.002 505.411C443.637 504.578 444.666 504.054 445.089 503.839L447.994 509.545C447.021 510.041 443.74 511.711 438.154 514.556C432.559 517.429 428.824 519.342 426.95 520.297C424.892 521.345 423.282 521.979 422.122 522.2L420.926 515.762C421.994 515.496 423.079 515.082 424.182 514.521L429.226 511.952L413.532 481.136L420.699 477.486ZM416.213 525.73C412.677 527.647 409.457 529.344 406.553 530.823C404.293 531.974 400.898 533.668 396.368 535.906L393.434 530.076C394.628 529.467 395.795 528.896 396.935 528.362C398.065 527.856 399.035 527.397 399.843 526.985L387.196 502.15C386.792 502.356 386.433 502.538 386.121 502.697C385.818 502.875 385.427 503.085 384.95 503.329C383.572 504.03 382.23 504.667 380.924 505.24L377.851 499.272C379.781 498.428 381.739 497.501 383.723 496.49C384.128 496.284 384.794 495.933 385.721 495.438C386.659 494.96 387.412 494.577 387.982 494.287C388.478 494.034 389.791 493.319 391.922 492.141C394.044 490.991 395.914 490.004 397.531 489.181L400.563 495.134C398.662 496.218 397.031 497.106 395.672 497.799L394.238 498.529L406.886 523.364C409.476 521.998 411.539 520.867 413.072 519.97L416.213 525.73ZM372.282 541.299C373.109 540.878 373.786 540.209 374.314 539.292C374.824 538.384 375.152 537.234 375.299 535.84C375.454 534.465 375.262 532.746 374.721 530.684C374.189 528.641 373.315 526.425 372.099 524.036C370.283 520.471 368.199 517.922 365.845 516.39C363.491 514.858 361.524 514.495 359.944 515.3L359.558 515.496C358.713 515.927 358.047 516.393 357.562 516.894C357.077 517.396 356.74 518.007 356.552 518.728C356.364 519.448 356.272 520.178 356.278 520.915C356.283 521.653 356.355 522.612 356.493 523.791L347.789 523.468C347.695 520.785 348.414 518.244 349.946 515.844C351.459 513.453 353.53 511.589 356.157 510.251L356.24 510.208C360.246 508.168 363.899 507.685 367.2 508.758C372.23 510.501 376.307 514.441 379.433 520.578C382.203 526.018 383.302 531.197 382.729 536.117C382.478 538.259 381.695 540.312 380.382 542.277C379.059 544.269 377.258 545.846 374.98 547.006C372.83 548.101 370.473 548.653 367.909 548.663C365.327 548.682 362.938 547.943 360.741 546.447L365.381 539.745C366.885 541.062 368.108 541.805 369.05 541.973C369.973 542.151 371.05 541.926 372.282 541.299ZM337.601 546.95C335.114 546.157 331.194 544.254 325.841 541.241C320.489 538.227 316.981 535.952 315.319 534.415L320.055 527.629C321.809 529.12 324.817 531.186 329.079 533.829C333.323 536.482 336.66 538.196 339.091 538.971C339.54 537.307 339.703 535.674 339.581 534.07L333.404 521.942L340.516 518.32L359.255 555.118L352.144 558.74L345.631 545.95C345.104 549.505 343.203 556.316 339.93 566.383L332.043 564.256C334.215 559.887 336.067 554.118 337.601 546.95ZM329.317 569.809C328.325 570.407 326.47 571.398 323.75 572.783C323.75 572.783 322.85 573.242 321.049 574.159L318.017 575.703C316.473 576.489 314.562 577.439 312.283 578.553C309.995 579.695 308.594 580.397 308.079 580.659L307.638 580.884L304.803 575.316L319.384 567.89L315.608 560.476L306.291 565.22L303.442 559.625L312.759 554.88L312.323 554.026C311.21 551.839 310.035 549.51 308.8 547.038C307.564 544.566 306.834 543.11 306.609 542.669L295.171 548.564C294.711 548.798 294.23 549.124 293.725 549.543C293.221 549.961 292.823 550.315 292.53 550.603L292.104 551.063L287.326 546.588C287.473 546.467 287.748 546.211 288.151 545.821C288.535 545.44 288.856 545.138 289.112 544.915C289.35 544.701 289.736 544.412 290.268 544.049C290.8 543.685 291.379 543.344 292.003 543.026L310.802 533.452L329.317 569.809ZM274.611 551.883L290.304 582.7C292.399 581.633 294.269 580.669 295.913 579.809C297.549 578.976 298.578 578.452 299 578.236L301.906 583.942C300.932 584.438 297.652 586.109 292.066 588.953C286.47 591.826 282.736 593.74 280.861 594.694C278.803 595.742 277.194 596.377 276.034 596.597L274.838 590.16C275.906 589.893 276.991 589.48 278.093 588.918L283.138 586.349L267.444 555.533L274.611 551.883Z" fill="#FF3C00"/>
<path d="M475.829 433.676L493.317 436.4C494.834 434.938 495.761 433.831 496.096 433.081C496.465 432.341 496.37 431.424 495.812 430.328C495.321 429.364 494.53 428.705 493.439 428.35C492.358 428.017 491.209 427.927 489.989 428.079C488.781 428.253 487.354 428.62 485.709 429.182C484.085 429.733 482.665 430.277 481.449 430.814C480.243 431.373 478.906 432.026 477.438 432.773L475.829 433.676ZM485.9 441.667L468.13 438.797C466.722 440.094 465.801 441.211 465.368 442.149C464.935 443.087 464.992 444.093 465.538 445.166C465.962 445.999 466.528 446.621 467.235 447.034C467.975 447.457 468.861 447.654 469.895 447.625C470.928 447.595 471.955 447.472 472.976 447.256C474.009 447.061 475.221 446.678 476.613 446.107C478.027 445.525 479.277 444.971 480.362 444.446C481.458 443.944 482.772 443.302 484.306 442.52L485.9 441.667ZM502.649 426.93C503.709 429.011 504.224 431.053 504.195 433.054C504.177 435.078 503.734 436.917 502.866 438.573C502.021 440.218 500.79 441.838 499.175 443.433C497.581 445.018 495.876 446.41 494.059 447.611C492.254 448.834 490.234 450.015 487.999 451.153C485.698 452.324 483.495 453.308 481.39 454.105C479.306 454.89 477.1 455.489 474.772 455.902C472.477 456.326 470.383 456.413 468.49 456.163C466.596 455.913 464.799 455.2 463.097 454.025C461.394 452.85 460.002 451.2 458.92 449.075C457.804 446.884 457.206 444.76 457.124 442.705C457.043 440.649 457.371 438.799 458.106 437.155C458.853 435.533 459.985 433.936 461.502 432.363C463.052 430.801 464.718 429.414 466.502 428.203C468.296 427.013 470.355 425.826 472.677 424.644C474.365 423.785 475.964 423.025 477.477 422.365C479.023 421.716 480.651 421.121 482.363 420.58C484.085 420.062 485.705 419.693 487.221 419.472C488.736 419.252 490.259 419.208 491.789 419.34C493.34 419.46 494.75 419.791 496.018 420.331C497.298 420.894 498.508 421.726 499.649 422.828C500.812 423.919 501.812 425.286 502.649 426.93ZM513.151 464.295C512.292 462.608 511.118 461.55 509.631 461.121C508.165 460.681 506.808 460.779 505.559 461.415C503.85 462.285 502.748 463.536 502.255 465.167C501.772 466.82 501.932 468.435 502.736 470.013C503.985 472.467 505.965 474.025 508.675 474.686C510.973 473.185 512.506 471.508 513.273 469.655C514.073 467.812 514.032 466.026 513.151 464.295ZM501.175 453.051C504.484 451.367 507.853 451.237 511.284 452.663C514.714 454.09 517.439 456.786 519.459 460.751C520.742 463.271 521.48 465.641 521.672 467.861C521.876 470.102 521.632 472.089 520.941 473.821C520.283 475.563 519.157 477.254 517.564 478.893C515.992 480.521 514.266 481.952 512.383 483.187C510.512 484.443 508.262 485.741 505.633 487.08C503.727 488.051 501.918 488.861 500.207 489.512C498.497 490.162 496.708 490.714 494.842 491.168C492.998 491.61 491.235 491.777 489.551 491.669C487.901 491.571 486.288 491.247 484.711 490.698C483.157 490.138 481.693 489.186 480.319 487.844C478.957 486.523 477.762 484.855 476.736 482.84L476.686 482.741C472.713 474.941 473.582 468.194 479.291 462.499L486.236 469.31C484.26 471.227 483.085 472.929 482.711 474.416C482.348 475.925 482.652 477.633 483.623 479.539C484.739 481.73 486.66 482.821 489.387 482.812C492.136 482.792 495.45 481.794 499.328 479.819L500.937 478.917C499.161 478.028 497.463 475.995 495.845 472.818C494.952 471.065 494.384 469.217 494.138 467.272C493.904 465.35 493.984 463.502 494.378 461.728C494.793 459.944 495.573 458.278 496.716 456.73C497.892 455.192 499.379 453.966 501.175 453.051Z" fill="#E2E2E2"/>
<path d="M773.566 348.861L789.26 379.677C791.355 378.611 793.224 377.647 794.869 376.786C796.504 375.953 797.533 375.429 797.956 375.214L800.862 380.92C799.888 381.416 796.608 383.086 791.021 385.931C785.426 388.804 781.691 390.717 779.817 391.672C777.759 392.72 776.15 393.354 774.989 393.575L773.793 387.137C774.861 386.871 775.946 386.457 777.049 385.896L782.093 383.327L766.4 352.511L773.566 348.861ZM769.081 397.105C765.544 399.022 762.324 400.719 759.421 402.198C757.16 403.349 753.765 405.043 749.235 407.281L746.301 401.451C747.495 400.842 748.662 400.271 749.802 399.737C750.933 399.231 751.902 398.772 752.711 398.36L740.063 373.525C739.659 373.731 739.301 373.913 738.988 374.072C738.685 374.25 738.295 374.46 737.817 374.704C736.439 375.405 735.097 376.042 733.792 376.615L730.718 370.647C732.648 369.803 734.606 368.876 736.591 367.865C736.995 367.659 737.661 367.308 738.589 366.813C739.526 366.335 740.279 365.952 740.849 365.662C741.345 365.409 742.659 364.694 744.79 363.516C746.911 362.366 748.781 361.379 750.398 360.556L753.43 366.509C751.529 367.593 749.899 368.481 748.539 369.174L747.105 369.904L759.753 394.739C762.344 393.373 764.406 392.242 765.939 391.345L769.081 397.105ZM725.149 412.674C725.976 412.253 726.653 411.584 727.181 410.667C727.691 409.759 728.019 408.609 728.166 407.215C728.322 405.84 728.129 404.121 727.588 402.059C727.057 400.016 726.183 397.8 724.966 395.411C723.151 391.846 721.066 389.297 718.712 387.765C716.358 386.233 714.391 385.87 712.811 386.675L712.425 386.871C711.58 387.302 710.915 387.768 710.429 388.269C709.944 388.771 709.608 389.382 709.419 390.103C709.231 390.823 709.139 391.553 709.145 392.29C709.15 393.028 709.222 393.987 709.36 395.166L700.656 394.843C700.562 392.16 701.281 389.619 702.813 387.219C704.326 384.828 706.397 382.964 709.025 381.626L709.107 381.583C713.113 379.543 716.766 379.06 720.067 380.133C725.097 381.876 729.174 385.816 732.3 391.953C735.07 397.393 736.169 402.572 735.597 407.492C735.345 409.634 734.562 411.687 733.249 413.652C731.926 415.644 730.126 417.221 727.847 418.381C725.697 419.476 723.34 420.028 720.776 420.038C718.194 420.057 715.805 419.318 713.608 417.822L718.248 411.12C719.752 412.437 720.975 413.18 721.917 413.348C722.84 413.526 723.918 413.301 725.149 412.674ZM690.468 418.325C687.981 417.532 684.061 415.629 678.709 412.616C673.356 409.602 669.848 407.327 668.186 405.79L672.922 399.004C674.676 400.495 677.684 402.561 681.946 405.204C686.19 407.857 689.527 409.571 691.958 410.346C692.407 408.682 692.57 407.049 692.448 405.445L686.271 393.317L693.383 389.695L712.123 426.493L705.011 430.115L698.498 417.325C697.971 420.88 696.071 427.691 692.797 437.758L684.91 435.631C687.082 431.262 688.935 425.493 690.468 418.325ZM682.184 441.184C681.193 441.782 679.337 442.773 676.617 444.158C676.617 444.158 675.717 444.617 673.916 445.534L670.884 447.078C669.34 447.864 667.429 448.814 665.15 449.928C662.862 451.07 661.461 451.772 660.947 452.034L660.506 452.259L657.67 446.691L672.251 439.265L668.475 431.851L659.159 436.595L656.309 431L665.626 426.255L665.191 425.401C664.077 423.214 662.902 420.885 661.667 418.413C660.431 415.941 659.701 414.485 659.476 414.044L648.038 419.939C647.579 420.173 647.097 420.499 646.593 420.918C646.088 421.336 645.69 421.69 645.397 421.978L644.971 422.438L640.193 417.963C640.34 417.842 640.615 417.586 641.018 417.196C641.402 416.815 641.723 416.513 641.979 416.29C642.218 416.076 642.603 415.787 643.135 415.424C643.667 415.06 644.246 414.719 644.871 414.401L663.669 404.827L682.184 441.184ZM627.478 423.258L643.171 454.075C645.266 453.008 647.136 452.044 648.78 451.184C650.416 450.351 651.445 449.827 651.868 449.611L654.773 455.317C653.799 455.813 650.519 457.484 644.933 460.328C639.338 463.201 635.603 465.115 633.729 466.069C631.67 467.117 630.061 467.752 628.901 467.972L627.705 461.535C628.773 461.268 629.858 460.855 630.961 460.293L636.005 457.724L620.311 426.908L627.478 423.258Z" fill="#220DFF"/>
</svg>
