<svg width="1425" height="1118" viewBox="0 0 1425 1118" fill="none" xmlns="http://www.w3.org/2000/svg">
<rect x="457.541" y="379.736" width="663" height="357.811" transform="rotate(-9.17673 457.541 379.736)" fill="#220DFF"/>
<rect x="4.57089" y="3.33226" width="577.218" height="301.086" transform="matrix(0.987933 -0.154882 0.15479 0.987947 499.08 403.389)" stroke="#34CF12" stroke-width="8"/>
<path d="M554.309 612.826L484.955 582.439L547.63 511.71L598.957 503.799L535.52 567.893L531.52 571.936L536.677 574.334L603.352 605.342L554.309 612.826Z" fill="#FF3C00" stroke="#34CF12" stroke-width="8"/>
<path d="M489.052 626.786L418.573 599.108L478.461 526.005L529.443 516.111L468.537 582.615L464.696 586.809L469.942 589.006L537.768 617.408L489.052 626.786Z" fill="#FF3C00" stroke="#34CF12" stroke-width="8"/>
<path d="M423.559 644.435L351.73 620.475L407.719 544.345L458.115 531.802L400.765 601.396L397.148 605.785L402.501 607.705L471.718 632.526L423.559 644.435Z" fill="#FF3C00" stroke="#34CF12" stroke-width="8"/>
<path d="M355.429 665.702L282.937 643.831L336.699 566.112L386.711 552.117L331.399 623.34L327.91 627.833L333.317 629.597L403.224 652.404L355.429 665.702Z" fill="#FF3C00" stroke="#34CF12" stroke-width="8"/>
<path d="M292.31 687.37L219.026 668.323L269.737 588.58L319.169 572.658L266.657 645.97L263.345 650.594L268.817 652.148L339.554 672.23L292.31 687.37Z" fill="#FF3C00" stroke="#34CF12" stroke-width="8"/>
<path d="M229.399 712.729L155.22 697.536L201.698 615.253L250.231 596.771L201.619 672.726L198.553 677.517L204.098 678.782L275.788 695.144L229.399 712.729Z" fill="#FF3C00" stroke="#34CF12" stroke-width="8"/>
<path d="M167.244 740.753L92.7009 727.46L137.061 644.017L185.106 624.301L138.451 701.473L135.509 706.34L141.084 707.464L213.168 721.987L167.244 740.753Z" fill="#FF3C00" stroke="#34CF12" stroke-width="8"/>
<path d="M107.072 769.614L32.07 759.219L73.1642 674.119L120.41 652.557L76.7793 731.479L74.0275 736.457L79.6424 737.363L152.235 749.084L107.072 769.614Z" fill="#FF3C00" stroke="#34CF12" stroke-width="8"/>
<circle cx="678.541" cy="542" r="57" fill="#220DFF" stroke="#FF3C00" stroke-width="8"/>
<circle cx="807.541" cy="503" r="57" fill="#220DFF" stroke="#FF3C00" stroke-width="8"/>
<circle cx="945.541" cy="496" r="57" fill="#220DFF" stroke="#FF3C00" stroke-width="8"/>
<path d="M1432.91 449.467L913.774 212.978L994 224L1432.91 449.467Z" fill="#34CF12"/>
<path d="M1450.65 510.914L1288 911.5L1301.5 929.5L1450.65 510.914Z" fill="#FF3C00"/>
<path d="M1436.82 469.001L436.5 304.5L518.998 258.001L1436.82 469.001Z" fill="#FF3C00"/>
<path d="M1448.38 478.318L621.5 746.502L530.5 722.002L1448.38 478.318Z" fill="#34CF12"/>
<path d="M1445.43 489.172L1053 808L1106 808L1445.43 489.172Z" fill="#220DFF"/>
</svg>
