<svg width="667" height="1196" viewBox="0 0 667 1196" fill="none" xmlns="http://www.w3.org/2000/svg">
<path d="M217.006 419.661L460.78 605.517" stroke="#FF3C00" stroke-width="9.10625"/>
<path d="M288.86 408.489L500.152 577.201" stroke="#FF3C00" stroke-width="9.10625"/>
<path d="M506.031 647.386L460.84 606.295L499.61 577.22L547.154 624.085L506.031 647.386Z" fill="#FF3C00" stroke="#34CF12" stroke-width="9.10625"/>
<path d="M508.921 648.582L492.135 695.472L535.634 687.684L547.58 627.024L508.921 648.582Z" fill="#FF3C00" stroke="#34CF12" stroke-width="9.10625"/>
<path d="M220.813 424.969L453.392 672.538" stroke="#FF3C00" stroke-width="9.10625"/>
<path d="M487.429 698.238L453.835 674.982L475.59 622.716" stroke="#34CF12" stroke-width="9.10625"/>
<path d="M289.611 407.405L491.93 657.003" stroke="#FF3C00" stroke-width="9.10625"/>
<path d="M536.833 688.622L491.68 657.364L514.879 592.205" stroke="#34CF12" stroke-width="9.10625"/>
<rect x="0.595675" y="403.312" width="144.709" height="646.006" transform="rotate(19.8716 0.595675 403.312)" fill="#34CF12" stroke="#FF3C00" stroke-width="9.10625"/>
<path d="M63.6405 248.027L188.738 302.382L281.961 355.288L338.747 400.016L367.981 440.881L370.943 468.825L130.471 482.423L130.928 474.459L121.233 464.391L103.901 448.178L78.3658 435.68L47.7923 424.795L17.0758 423.032L-5.60259 427.058L-13.6655 434.966L-138.288 335.542L-105.154 285.521L-53.9165 241.283L63.6405 248.027Z" fill="#220DFF"/>
<path d="M47.7923 424.795L63.6405 248.027M47.7923 424.795L78.3658 435.68M47.7923 424.795L17.0758 423.032M63.6405 248.027L188.738 302.382M63.6405 248.027L-53.9165 241.283M188.738 302.382L78.3658 435.68M188.738 302.382L281.961 355.288M78.3658 435.68L103.901 448.178M281.961 355.288L103.901 448.178M281.961 355.288L338.747 400.016M103.901 448.178L121.233 464.391M338.747 400.016L121.233 464.391M338.747 400.016L367.981 440.881M121.233 464.391L130.928 474.459M367.981 440.881L130.928 474.459M367.981 440.881L370.943 468.825L130.471 482.423L130.928 474.459M-53.9165 241.283L17.0758 423.032M-53.9165 241.283L-105.154 285.521M17.0758 423.032L-5.60258 427.058M-5.60258 427.058L-105.154 285.521M-5.60258 427.058L-13.6655 434.966L-138.288 335.542L-105.154 285.521" stroke="#FF3C00" stroke-width="9.10625"/>
<path d="M84.6 181.127L64.9527 245.059C63.804 265.081 84.9975 275.885 95.7378 278.784C104.376 282.957 125.754 292.757 142.161 298.568C158.568 304.379 182.115 302.889 191.838 301.418L222.753 240.035C223.359 242.733 224.269 245.448 223.058 234.726C221.847 224.003 194.265 206.061 180.626 198.43C170.864 193.939 146.692 183.776 128.092 179.056C109.491 174.337 91.3471 178.47 84.6 181.127Z" fill="#FF3C00" stroke="#34CF12" stroke-width="9.10625"/>
<path d="M224.842 239.141L197.499 300.18C193.903 319.911 213.611 333.233 223.914 337.427C231.975 342.629 251.989 354.977 267.559 362.758C283.129 370.538 306.682 371.948 316.512 371.681L354.724 314.554C354.995 317.306 355.564 320.112 355.678 309.322C355.791 298.532 330.619 277.342 318.019 268.095C308.883 262.44 286.14 249.388 268.259 242.422C250.378 235.457 231.864 237.333 224.842 239.141Z" fill="#FF3C00" stroke="#34CF12" stroke-width="9.10625"/>
<path d="M349.898 304.934L316.866 361.639C309.348 380.232 317.612 393.899 322.683 398.408C326.13 403.762 334.843 416.518 342.116 424.703C349.389 432.888 363.2 435.414 369.196 435.653L407.717 383.217C407.134 385.849 406.716 388.548 409.711 378.287C412.705 368.026 403.283 346.598 398.197 337.166C394.225 331.326 384.059 317.765 375.173 310.238C366.286 302.711 354.62 303.566 349.898 304.934Z" fill="#FF3C00" stroke="#34CF12" stroke-width="9.10625"/>
<path d="M404.202 380.045L367.722 434.025C357.821 451.466 359.123 463.212 361.011 466.904C361.651 471.49 363.488 482.374 365.713 489.228C367.938 496.082 375.82 497.295 379.484 497.045L418.179 446.507C417.077 448.939 416.059 451.418 420.805 441.883C425.55 432.347 425.709 413.655 425.194 405.502C424.364 400.517 421.849 389.015 418.436 382.884C415.022 376.753 407.524 378.437 404.202 380.045Z" fill="#FF3C00" stroke="#34CF12" stroke-width="9.10625"/>
<path d="M-66.4554 161.557L-49.4885 231.034C-44.9879 250.579 -27.7559 256.947 -16.9296 256.793C-7.70975 258.438 3.00296 257.507 19.9262 258.599C36.8494 259.691 58.402 251.817 67.0629 247.744L78.8204 180.333C80.1367 182.758 81.7409 185.117 77.627 175.151C73.5132 165.184 42.7893 155.499 27.9416 151.902C17.5855 150.259 -7.79312 147.112 -26.4586 147.669C-45.1241 148.225 -60.9004 157.159 -66.4554 161.557Z" fill="#FF3C00" stroke="#34CF12" stroke-width="9.10625"/>
<path d="M176.455 323.443L311.207 696.99" stroke="#FF3C00" stroke-width="9.10625"/>
<path d="M262.512 361.764L373.953 693.832" stroke="#FF3C00" stroke-width="9.10625"/>
<path d="M329.99 775.638L309.005 696.651L374.407 692.048L393.869 779.326L329.99 775.638Z" fill="#FF3C00" stroke="#34CF12" stroke-width="9.10625"/>
<path d="M332.929 776.308L279.472 817.272L335.278 840.605L393.552 780.225L332.929 776.308Z" fill="#FF3C00" stroke="#34CF12" stroke-width="9.10625"/>
<path d="M176.87 331.894L256.079 764.744" stroke="#FF3C00" stroke-width="9.10625"/>
<path d="M275.07 816.63L254.845 767.716L315.243 726.113" stroke="#34CF12" stroke-width="9.10625"/>
<path d="M264.089 361.111L308.939 774.911" stroke="#FF3C00" stroke-width="9.10625"/>
<path d="M335.597 840.874L308.413 775.13L379.441 720.51" stroke="#34CF12" stroke-width="9.10625"/>
<path d="M62.5575 256.317L76.814 690.379" stroke="#FF3C00" stroke-width="9.10625"/>
<path d="M181.482 313.175L143.159 708.248" stroke="#FF3C00" stroke-width="9.10625"/>
<path d="M69.3996 778.822L74.2406 688.747L144.693 706.221L135.429 804.512L69.3996 778.822Z" fill="#FF3C00" stroke="#34CF12" stroke-width="9.10625"/>
<path d="M72.6801 779.769L2.40942 804.663L53.3828 848.423L135.435 804.68L72.6801 779.769Z" fill="#FF3C00" stroke="#34CF12" stroke-width="9.10625"/>
<path d="M60.1399 265.249L-3.38241 742.284" stroke="#FF3C00" stroke-width="9.10625"/>
<path d="M-1.11715 802.668L-5.66879 744.961L71.1941 722.04" stroke="#34CF12" stroke-width="9.10625"/>
<path d="M182.136 310.18L48.1832 770.683" stroke="#FF3C00" stroke-width="9.10625"/>
<path d="M53.6811 848.298L47.5633 770.734L139.874 737.854" stroke="#34CF12" stroke-width="9.10625"/>
<rect x="395.877" y="784.332" width="11.8389" height="4.11278" transform="rotate(-50.0425 395.877 784.332)" fill="#00003E"/>
<rect x="399.859" y="785.158" width="11.8389" height="7.8275" transform="rotate(-102.671 399.859 785.158)" fill="#00003E"/>
<rect x="552.066" y="628.023" width="11.839" height="7.8275" transform="rotate(-81.2984 552.066 628.023)" fill="#00003E"/>
<rect x="554.352" y="624.924" width="11.839" height="8.45404" transform="rotate(-134.958 554.352 624.924)" fill="#00003E"/>
<rect x="134.576" y="810.324" width="11.8389" height="3.73789" transform="rotate(-28.8818 134.576 810.324)" fill="#00003E"/>
<rect x="139.088" y="812.516" width="11.8389" height="6.75692" transform="rotate(-83.7757 139.088 812.516)" fill="#00003E"/>
</svg>
