<svg width="863" height="952" viewBox="0 0 863 952" fill="none" xmlns="http://www.w3.org/2000/svg">
<path d="M628.529 946.873L446.404 445.46L456.649 431.801L725.283 946.873H628.529Z" fill="#FF3C00" stroke="#220DFF" stroke-width="9.10625"/>
<path d="M260.295 946.873L442.42 445.46L432.175 431.801L163.541 946.873H260.295Z" fill="#FF3C00" stroke="#220DFF" stroke-width="9.10625"/>
<path d="M853.34 422.695C853.34 652.908 672.045 839.306 448.681 839.306C225.317 839.306 44.0219 652.908 44.0219 422.695C44.0219 192.483 225.317 6.08438 448.681 6.08438C672.045 6.08438 853.34 192.483 853.34 422.695Z" stroke="#FF3C00" stroke-width="9.10625"/>
<path d="M659.832 481.859L601.313 585.476L503.361 639.537H379.14L279.119 585.514L224.44 482.053V357.899L279.004 263.214L379.368 204.713H500.368L601.469 263.33L659.832 358.105V481.859Z" stroke="#FF3C00" stroke-width="26.1805"/>
<path d="M329.162 816.539L551.127 23.157" stroke="#FF3C00" stroke-width="9.10625"/>
<path d="M161.266 713.523L730.841 121.166" stroke="#FF3C00" stroke-width="9.10625"/>
<path d="M60.5273 529.693L833.42 306.59" stroke="#FF3C00" stroke-width="9.10625"/>
<path d="M59.3887 314.559L835.697 528.555" stroke="#FF3C00" stroke-width="9.10625"/>
<path d="M157.85 136.416L732.682 718.078" stroke="#FF3C00" stroke-width="9.10625"/>
<path d="M334.854 20.8809L551.127 823.938" stroke="#FF3C00" stroke-width="9.10625"/>
<rect x="519.825" y="826.784" width="68.2969" height="78.5414" fill="#34CF12" stroke="#220DFF" stroke-width="9.10625"/>
<rect x="691.704" y="717.51" width="68.2969" height="78.5414" fill="#220DFF" stroke="#34CF12" stroke-width="9.10625"/>
<rect x="788.459" y="527.916" width="68.2969" height="78.5414" fill="#34CF12" stroke="#220DFF" stroke-width="9.10625"/>
<rect x="789.596" y="303.676" width="68.2969" height="78.5414" fill="#220DFF" stroke="#34CF12" stroke-width="9.10625"/>
<rect x="691.704" y="123.327" width="68.2969" height="78.5414" fill="#34CF12" stroke="#220DFF" stroke-width="9.10625"/>
<rect x="503.789" y="5.4457" width="68.2969" height="78.5414" fill="#FF3C00" stroke="#34CF12" stroke-width="9.10625"/>
<rect x="295.485" y="6.58438" width="68.2969" height="78.5414" fill="#34CF12" stroke="#220DFF" stroke-width="9.10625"/>
<rect x="125.979" y="132.432" width="68.2969" height="78.5414" fill="#220DFF" stroke="#34CF12" stroke-width="9.10625"/>
<rect x="10.9145" y="308.229" width="68.2969" height="78.5414" fill="#FF3C00" stroke="#34CF12" stroke-width="9.10625"/>
<rect x="5.3207" y="532.469" width="68.2969" height="78.5414" fill="#220DFF" stroke="#34CF12" stroke-width="9.10625"/>
<rect x="138.5" y="710.678" width="68.2969" height="78.5414" fill="#34CF12" stroke="#220DFF" stroke-width="9.10625"/>
<rect x="286.477" y="821.092" width="68.2969" height="78.5414" fill="#FF3C00" stroke="#34CF12" stroke-width="9.10625"/>
<path d="M510.717 422.695C510.717 461.805 480.009 493.268 442.42 493.268C404.832 493.268 374.123 461.805 374.123 422.695C374.123 383.585 404.832 352.121 442.42 352.121C480.009 352.121 510.717 383.585 510.717 422.695Z" fill="#220DFF" stroke="#FF3C00" stroke-width="9.10625"/>
</svg>
