<svg width="732" height="664" viewBox="0 0 732 664" fill="none" xmlns="http://www.w3.org/2000/svg">
<path d="M445.152 530.072C449.144 536.582 504.894 586.591 531.063 539.192" stroke="#220DFF" stroke-width="9.10625"/>
<path d="M423.647 228.474C444.848 261.65 463.119 320.065 467.593 375.644C469.825 403.389 468.593 430.133 462.734 452.469C456.87 474.826 446.506 492.307 430.834 502.322C415.163 512.337 394.946 514.399 372.193 510.329C349.462 506.263 324.674 496.147 300.435 482.466C251.876 455.059 206.541 413.94 185.339 380.763C143.296 314.972 162.558 227.546 228.366 185.492C294.173 143.438 381.603 162.683 423.647 228.474Z" fill="#220DFF" stroke="#FF3C00" stroke-width="9.10625"/>
<path d="M358.142 473.735L254.625 343.606C242.55 353.212 231.893 361.775 222.656 369.296C213.335 376.711 207.456 381.388 205.02 383.326L178.477 349.959C184.091 345.493 202.998 330.452 235.2 304.837C267.423 279.03 288.937 261.83 299.741 253.235C310.44 244.725 318.308 239.07 323.347 236.273L346.03 278.158C337.103 280.417 328.138 285.127 319.134 292.289L295.142 311.375L398.659 441.505L358.142 473.735Z" fill="#00003E"/>
<circle cx="350.3" cy="275.066" r="43.4717" transform="rotate(-0.214273 350.3 275.066)" stroke="#34CF12" stroke-width="9.10625" stroke-linecap="round"/>
<path d="M432.76 505.991C432.457 502.344 436.489 499.951 439.546 501.964L474.066 524.704C476.772 526.487 476.678 530.487 473.892 532.14L442.798 550.595C440.012 552.249 436.456 550.415 436.187 547.186L432.76 505.991Z" fill="#220DFF" stroke="#FF3C00" stroke-width="9.10625"/>
<path d="M515.54 531.247L518.638 534.675L522.02 531.527C548.301 507.071 569.261 485.817 584.855 467.782L587.788 464.39L584.442 461.406C573.71 451.835 562.104 446.485 549.678 445.844C537.218 445.04 526.168 449.05 516.778 457.678C505.741 467.82 500.168 480.082 500.472 494.247C500.695 508.085 505.797 520.465 515.54 531.247ZM524.158 433.093L524.168 433.089L524.178 433.084C530.774 430.209 536.764 428.675 542.18 428.343C547.731 428.004 553.476 428.577 559.434 430.102L559.455 430.108L559.476 430.113C565.477 431.588 570.77 433.547 575.388 435.96L575.402 435.967L575.416 435.974C580.079 438.371 584.753 441.311 589.434 444.81L589.467 444.834L589.501 444.858C594.358 448.353 598.205 451.432 601.089 454.102C604.069 456.862 606.887 459.688 609.545 462.58C610.326 463.43 610.995 464.166 611.561 464.795C578.27 499.736 552.186 526.097 533.283 543.911L530.011 546.995L533.053 550.305C543.136 561.278 554.876 567.638 568.21 568.927L568.226 568.929L568.242 568.93C582.039 570.169 595.306 564.436 607.902 552.861C616.303 545.141 622.02 536.645 624.71 527.34C626.729 520.354 627.68 513.609 627.497 507.132L645.739 506.832C645.721 508.319 645.691 509.576 645.649 510.608L645.645 510.699L645.645 510.79C645.644 512.341 645.243 515.772 644.292 521.426C643.403 526.586 642.136 531.162 640.517 535.181C638.812 539.138 636.096 544.041 632.289 549.928C628.522 555.555 624.008 560.793 618.732 565.642C601.601 581.383 583.853 587.407 565.244 584.545C546.397 581.558 527.97 570.635 509.996 551.075C493.534 533.161 484.909 514.713 483.592 495.693C482.298 476.993 489.365 460.366 505.443 445.591C511.575 439.956 517.817 435.82 524.158 433.093Z" fill="#220DFF" stroke="#00003E" stroke-width="9.10625"/>
<path d="M623.871 495.718L628.469 496.166L628.85 491.562C631.81 455.784 632.993 425.957 632.376 402.123L632.26 397.64L627.777 397.687C613.398 397.839 601.216 401.699 591.597 409.593C581.844 417.389 576.376 427.795 575.244 440.496C573.915 455.426 578.052 468.245 587.816 478.512C597.299 488.591 609.407 494.309 623.871 495.718ZM564.144 417.352L564.149 417.342L564.153 417.332C567.093 410.764 570.488 405.597 574.269 401.705C578.144 397.715 582.778 394.271 588.21 391.386L588.229 391.376L588.248 391.365C593.677 388.415 598.909 386.299 603.948 384.973L603.963 384.969L603.979 384.965C609.04 383.596 614.475 382.623 620.292 382.056L620.333 382.052L620.374 382.048C626.318 381.36 631.236 381.046 635.165 381.078C639.227 381.112 643.213 381.303 647.126 381.651C648.276 381.754 649.266 381.847 650.108 381.931C649.026 430.181 647.494 467.233 645.515 493.132L645.173 497.616L649.651 498.014C664.495 499.336 677.456 496.132 688.183 488.106L688.195 488.096L688.208 488.087C699.241 479.712 705.189 466.54 706.707 449.5C707.719 438.135 706.224 428.005 701.946 419.315C698.734 412.79 694.895 407.163 690.399 402.499L703.682 389.992C704.671 391.103 705.495 392.053 706.159 392.844L706.217 392.914L706.278 392.981C707.322 394.129 709.336 396.936 712.44 401.756C715.258 406.169 717.403 410.405 718.912 414.467C720.317 418.54 721.611 423.994 722.76 430.91C723.765 437.606 723.955 444.518 723.319 451.656C721.256 474.829 712.191 491.234 696.507 501.649C680.562 512.133 659.584 516.467 633.124 514.11C608.89 511.952 590.091 504.122 576.31 490.947C562.761 477.995 556.788 460.944 558.725 439.194C559.464 430.899 561.293 423.638 564.144 417.352Z" fill="#220DFF" stroke="#00003E" stroke-width="9.10625"/>
<path d="M677.428 394.403L680.983 391.452L677.981 387.94C654.651 360.653 634.298 338.818 616.935 322.479L613.669 319.406L610.547 322.624C600.533 332.943 594.7 344.314 593.537 356.702C592.209 369.118 595.751 380.327 603.976 390.071C613.645 401.524 625.661 407.609 639.827 407.9C653.662 408.26 666.246 403.684 677.428 394.403ZM579.723 381.664L579.719 381.653L579.715 381.643C577.12 374.932 575.839 368.883 575.736 363.458C575.63 357.897 576.445 352.181 578.219 346.292L578.226 346.272L578.232 346.251C579.958 340.318 582.138 335.111 584.743 330.599L584.751 330.586L584.759 330.572C587.349 326.014 590.484 321.468 594.176 316.938L594.202 316.906L594.227 316.873C597.923 312.167 601.162 308.453 603.95 305.685C606.833 302.823 609.775 300.126 612.777 297.592C613.659 296.848 614.422 296.21 615.074 295.671C648.584 330.403 673.824 357.573 690.827 377.208L693.771 380.607L697.206 377.707C708.594 368.094 715.441 356.632 717.29 343.364L717.293 343.348L717.295 343.333C719.113 329.6 713.943 316.104 702.908 303.031C695.548 294.313 687.301 288.244 678.117 285.165C671.222 282.854 664.523 281.62 658.044 281.53L658.512 263.292C659.996 263.372 661.251 263.455 662.28 263.54L662.371 263.548L662.462 263.552C664.012 263.618 667.423 264.163 673.032 265.352C678.15 266.456 682.669 267.915 686.616 269.702C690.498 271.572 695.283 274.491 701.004 278.543C706.467 282.543 711.511 287.274 716.133 292.749C731.14 310.527 736.412 328.513 732.77 346.985C728.993 365.69 717.304 383.641 697.006 400.776C678.414 416.47 659.62 424.311 640.561 424.826C621.824 425.333 605.508 417.573 591.423 400.888C586.051 394.524 582.182 388.114 579.723 381.664Z" fill="#220DFF" stroke="#00003E" stroke-width="9.10625"/>
<path d="M663.599 272.429C657.879 272.353 641.667 271.67 636.159 278.806C624.347 294.112 638.246 309.474 654.985 311.451C671.723 313.428 705.551 295.071 709.996 267.264C714.441 239.458 719.765 149.306 633.948 68.7688C565.294 4.339 425.802 9.38441 364.335 47.5163" stroke="#220DFF" stroke-width="9.10625"/>
</svg>
