<svg width="764" height="1211" viewBox="0 0 764 1211" fill="none" xmlns="http://www.w3.org/2000/svg">
<rect x="592.052" y="451.606" width="56.6146" height="8.24757" rx="4.12379" transform="rotate(160.211 592.052 451.606)" fill="#FF3C00" stroke="#220DFF" stroke-width="8.24757"/>
<rect x="289.328" y="175.161" width="84.2925" height="48.2441" rx="24.122" transform="rotate(87.9447 289.328 175.161)" fill="#FF3C00" stroke="#220DFF" stroke-width="9.10625"/>
<rect x="225.73" y="476.494" width="143.626" height="69.2053" rx="34.6026" transform="rotate(179.848 225.73 476.494)" fill="#FF3C00" stroke="#220DFF" stroke-width="9.10625"/>
<rect x="438.788" y="556.966" width="143.626" height="69.2053" rx="34.6026" transform="rotate(134.273 438.788 556.966)" fill="#FF3C00" stroke="#220DFF" stroke-width="9.10625"/>
<rect x="560.757" y="488.476" width="115.435" height="55.218" rx="27.609" transform="rotate(164.08 560.757 488.476)" fill="#FF3C00" stroke="#220DFF" stroke-width="9.10625"/>
<path d="M179.043 240.77C181.026 244.887 177.393 249.479 172.931 248.497L142.79 241.861C138.838 240.991 137.161 236.285 139.672 233.113L156.422 211.942C158.932 208.769 163.897 209.319 165.652 212.964L179.043 240.77Z" fill="#FF3C00" stroke="#220DFF" stroke-width="9.10625"/>
<rect x="243.9" y="330.008" width="294.201" height="159.483" rx="79.7414" transform="rotate(23.2459 243.9 330.008)" fill="#FF3C00" stroke="#220DFF" stroke-width="9.10625"/>
<rect x="307.05" y="289.417" width="107.657" height="69.2053" rx="34.6026" transform="rotate(94.2187 307.05 289.417)" fill="#FF3C00" stroke="#220DFF" stroke-width="9.10625"/>
<rect x="452.105" y="535.349" width="143.626" height="69.2053" rx="34.6026" transform="rotate(61.0306 452.105 535.349)" fill="#FF3C00" stroke="#220DFF" stroke-width="9.10625"/>
<rect x="264.826" y="507.261" width="143.626" height="69.2053" rx="34.6026" transform="rotate(131.898 264.826 507.261)" fill="#FF3C00" stroke="#220DFF" stroke-width="9.10625"/>
<rect x="190.694" y="206.656" width="125.533" height="69.2053" rx="34.6026" transform="rotate(25.9835 190.694 206.656)" fill="#FF3C00" stroke="#220DFF" stroke-width="9.10625"/>
<rect x="375.252" y="278.681" width="98.127" height="51.9364" rx="25.9682" transform="rotate(166.538 375.252 278.681)" fill="#FF3C00" stroke="#220DFF" stroke-width="9.10625"/>
<path d="M137.278 594.837C95.7027 640.412 102.347 723.677 60.5541 722.476C18.7615 721.275 -16.1198 644.392 -11.2722 618.483C-5.71479 588.781 47.4242 592.569 40.7587 630.083C32.4268 676.977 -74.4239 738.397 -113.646 703.861C-145.701 675.636 -209.878 719.021 -222.975 682.728C-229.236 657.462 -213.996 626.393 -178.328 657.253C-142.659 688.112 -168.224 761.199 -185.465 793.885C-209.184 828.733 -282.018 879.951 -383.602 806.037" stroke="#220DFF" stroke-width="9.10625"/>
<path d="M122.487 629.968L139.584 596.613C146.063 612.902 149.09 633.656 149.794 641.997C147.304 647.169 139.697 656.26 129.199 651.247C118.701 646.234 120.351 634.972 122.487 629.968Z" stroke="#220DFF" stroke-width="9.10625"/>
<path d="M99.8619 610.253L136.686 594.344C113.992 578.982 91.0064 576.502 82.3505 577.182C77.2857 579.671 68.1531 587.3 72.1409 597.9C76.1286 608.5 92.2831 610.552 99.8619 610.253Z" stroke="#220DFF" stroke-width="9.10625"/>
<path d="M343.14 476.097C339.824 480.401 338.637 484.429 339.579 488.182C340.585 491.983 342.861 495.249 346.406 497.981C351.09 501.591 356.593 503.157 362.913 502.681C369.296 502.253 374.294 500.808 377.906 498.346L381.345 493.884C381.133 490.492 380.076 486.954 378.173 483.269C376.334 479.633 373.927 476.668 370.951 474.375C367.09 471.4 362.379 469.788 356.82 469.539C351.309 469.227 346.749 471.413 343.14 476.097ZM399.948 520.021C396.534 524.452 394.317 528.442 393.296 531.993C392.275 535.544 392.289 539.388 393.338 543.526L370.568 548.526C370.247 547.371 369.749 545.726 369.073 543.592C368.398 541.457 367.931 539.836 367.674 538.73C367.416 537.624 367.213 536.055 367.063 534.023C367.026 531.977 367.142 529.796 367.411 527.482C360.701 528.465 354.338 527.95 348.322 525.938C342.418 523.91 335.288 519.677 326.931 513.238C318.512 506.75 313.141 498.073 310.82 487.205C308.611 476.324 310.726 466.705 317.163 458.35C324.284 449.109 332.905 443.748 343.026 442.266C350.808 441.201 358.09 441.768 364.871 443.967C371.652 446.166 378.556 449.972 385.583 455.387C391.85 460.216 396.022 465.801 398.098 472.142C400.926 468.471 402.763 464.843 403.609 461.257C404.518 457.721 404.486 454.62 403.514 451.954C402.653 449.273 401.563 447.021 400.244 445.198C398.988 443.423 397.506 441.877 395.797 440.56C384.528 431.877 372.863 428.488 360.802 430.391L364.434 401.717C370.549 402.292 375.535 402.957 379.394 403.711C383.315 404.513 387.229 405.915 391.136 407.917C395.091 409.854 398.13 411.541 400.253 412.975C402.44 414.458 406.28 417.266 411.773 421.397C418.99 426.958 424.557 433.417 428.474 440.773C432.503 448.114 434.263 455.977 433.755 464.362C433.359 472.732 430.357 480.556 424.748 487.835L399.948 520.021Z" fill="#00003E"/>
<circle cx="375.433" cy="495.325" r="22.607" transform="rotate(48.6853 375.433 495.325)" stroke="#34CF12" stroke-width="9.10625" stroke-linecap="round"/>
</svg>
